%TF.GenerationSoftware,KiCad,Pcbnew,5.99.0-unknown-5a832fc337~130~ubuntu20.04.1*%
%TF.CreationDate,2021-06-20T17:00:01+02:00*%
%TF.ProjectId,LED-Treiber,4c45442d-5472-4656-9962-65722e6b6963,rev?*%
%TF.SameCoordinates,Original*%
%TF.FileFunction,Copper,L2,Bot*%
%TF.FilePolarity,Positive*%
%FSLAX46Y46*%
G04 Gerber Fmt 4.6, Leading zero omitted, Abs format (unit mm)*
G04 Created by KiCad (PCBNEW 5.99.0-unknown-5a832fc337~130~ubuntu20.04.1) date 2021-06-20 17:00:01*
%MOMM*%
%LPD*%
G01*
G04 APERTURE LIST*
G04 Aperture macros list*
%AMRoundRect*
0 Rectangle with rounded corners*
0 $1 Rounding radius*
0 $2 $3 $4 $5 $6 $7 $8 $9 X,Y pos of 4 corners*
0 Add a 4 corners polygon primitive as box body*
4,1,4,$2,$3,$4,$5,$6,$7,$8,$9,$2,$3,0*
0 Add four circle primitives for the rounded corners*
1,1,$1+$1,$2,$3*
1,1,$1+$1,$4,$5*
1,1,$1+$1,$6,$7*
1,1,$1+$1,$8,$9*
0 Add four rect primitives between the rounded corners*
20,1,$1+$1,$2,$3,$4,$5,0*
20,1,$1+$1,$4,$5,$6,$7,0*
20,1,$1+$1,$6,$7,$8,$9,0*
20,1,$1+$1,$8,$9,$2,$3,0*%
G04 Aperture macros list end*
%TA.AperFunction,ComponentPad*%
%ADD10RoundRect,0.250000X0.750000X-0.600000X0.750000X0.600000X-0.750000X0.600000X-0.750000X-0.600000X0*%
%TD*%
%TA.AperFunction,ComponentPad*%
%ADD11O,2.000000X1.700000*%
%TD*%
%TA.AperFunction,ComponentPad*%
%ADD12RoundRect,0.250000X0.725000X-0.600000X0.725000X0.600000X-0.725000X0.600000X-0.725000X-0.600000X0*%
%TD*%
%TA.AperFunction,ComponentPad*%
%ADD13O,1.950000X1.700000*%
%TD*%
%TA.AperFunction,ComponentPad*%
%ADD14RoundRect,0.250000X-0.750000X0.600000X-0.750000X-0.600000X0.750000X-0.600000X0.750000X0.600000X0*%
%TD*%
%TA.AperFunction,ViaPad*%
%ADD15C,0.600000*%
%TD*%
%TA.AperFunction,ViaPad*%
%ADD16C,0.700000*%
%TD*%
%TA.AperFunction,Conductor*%
%ADD17C,0.300000*%
%TD*%
%TA.AperFunction,Conductor*%
%ADD18C,0.500000*%
%TD*%
G04 APERTURE END LIST*
D10*
%TO.P,J5,1,Pin_1*%
%TO.N,Net-(C5-Pad2)*%
X161875000Y-91050000D03*
D11*
%TO.P,J5,2,Pin_2*%
%TO.N,Net-(C4-Pad1)*%
X161875000Y-88550000D03*
%TD*%
D12*
%TO.P,J2,1,Pin_1*%
%TO.N,RX*%
X161975000Y-81100000D03*
D13*
%TO.P,J2,2,Pin_2*%
%TO.N,TX*%
X161975000Y-78600000D03*
%TO.P,J2,3,Pin_3*%
%TO.N,GND*%
X161975000Y-76100000D03*
%TO.P,J2,4,Pin_4*%
%TO.N,+3V3*%
X161975000Y-73600000D03*
%TD*%
D12*
%TO.P,J6,1,Pin_1*%
%TO.N,GND*%
X161975000Y-67050000D03*
D13*
%TO.P,J6,2,Pin_2*%
%TO.N,SDA*%
X161975000Y-64550000D03*
%TO.P,J6,3,Pin_3*%
%TO.N,SCL*%
X161975000Y-62050000D03*
%TO.P,J6,4,Pin_4*%
%TO.N,+3V3*%
X161975000Y-59550000D03*
%TD*%
D14*
%TO.P,J1,1,Pin_1*%
%TO.N,GND*%
X114625000Y-59600000D03*
D11*
%TO.P,J1,2,Pin_2*%
%TO.N,VCC*%
X114625000Y-62100000D03*
%TD*%
D15*
%TO.N,TX*%
X155000000Y-73000000D03*
%TO.N,PWM-LED*%
X132300000Y-88165000D03*
X140000000Y-77365000D03*
D16*
%TO.N,Net-(D1-Pad1)*%
X122200000Y-73865000D03*
X119200000Y-73865000D03*
%TO.N,+3V3*%
X114300000Y-88265000D03*
D15*
X156900000Y-62400000D03*
X125040000Y-67500000D03*
X126108000Y-57804000D03*
X156900000Y-58765000D03*
X151029000Y-59230000D03*
X138017000Y-59230000D03*
X132712000Y-59582000D03*
D16*
X121700000Y-83900000D03*
D15*
%TO.N,RX*%
X155100000Y-74600000D03*
X149625000Y-63040000D03*
%TO.N,TX*%
X150800000Y-61765000D03*
%TD*%
D17*
%TO.N,PWM-LED*%
X132300000Y-81365000D02*
X136100000Y-77565000D01*
%TO.N,RX*%
X149600000Y-69100000D02*
X155100000Y-74600000D01*
X149600000Y-69100000D02*
X149600000Y-63065000D01*
%TO.N,TX*%
X150800000Y-68800000D02*
X155000000Y-73000000D01*
X150800000Y-68365000D02*
X150800000Y-68800000D01*
X150800000Y-68365000D02*
X150800000Y-61765000D01*
%TO.N,PWM-LED*%
X132300000Y-88165000D02*
X132300000Y-81365000D01*
X136100000Y-77565000D02*
X136300000Y-77365000D01*
X136300000Y-77365000D02*
X140000000Y-77365000D01*
D18*
%TO.N,Net-(D1-Pad1)*%
X119200000Y-73865000D02*
X119100000Y-73865000D01*
X122200000Y-73865000D02*
X119200000Y-73865000D01*
%TD*%
%TA.AperFunction,Conductor*%
%TO.N,+3V3*%
G36*
X165759191Y-56683907D02*
G01*
X165795155Y-56733407D01*
X165800000Y-56764000D01*
X165800000Y-93916000D01*
X165781093Y-93974191D01*
X165731593Y-94010155D01*
X165701000Y-94015000D01*
X110799000Y-94015000D01*
X110740809Y-93996093D01*
X110704845Y-93946593D01*
X110700000Y-93916000D01*
X110700000Y-90398748D01*
X160674500Y-90398748D01*
X160674500Y-91683258D01*
X160689636Y-91783935D01*
X160692839Y-91790606D01*
X160692840Y-91790608D01*
X160708915Y-91824083D01*
X160748265Y-91906029D01*
X160840202Y-92005486D01*
X160890300Y-92034585D01*
X160950917Y-92069795D01*
X160950920Y-92069796D01*
X160957319Y-92073513D01*
X160994624Y-92082160D01*
X161068246Y-92099225D01*
X161068249Y-92099225D01*
X161073748Y-92100500D01*
X162658258Y-92100500D01*
X162694697Y-92095022D01*
X162751614Y-92086465D01*
X162751616Y-92086464D01*
X162758935Y-92085364D01*
X162765606Y-92082161D01*
X162765608Y-92082160D01*
X162874361Y-92029937D01*
X162881029Y-92026735D01*
X162980486Y-91934798D01*
X163009585Y-91884700D01*
X163044795Y-91824083D01*
X163044796Y-91824080D01*
X163048513Y-91817681D01*
X163075500Y-91701252D01*
X163075500Y-90416742D01*
X163060364Y-90316065D01*
X163047624Y-90289533D01*
X163004937Y-90200639D01*
X163001735Y-90193971D01*
X162909798Y-90094514D01*
X162859700Y-90065415D01*
X162799083Y-90030205D01*
X162799080Y-90030204D01*
X162792681Y-90026487D01*
X162736803Y-90013535D01*
X162681754Y-90000775D01*
X162681751Y-90000775D01*
X162676252Y-89999500D01*
X161091742Y-89999500D01*
X161055303Y-90004978D01*
X160998386Y-90013535D01*
X160998384Y-90013536D01*
X160991065Y-90014636D01*
X160984394Y-90017839D01*
X160984392Y-90017840D01*
X160875639Y-90070063D01*
X160868971Y-90073265D01*
X160769514Y-90165202D01*
X160765797Y-90171602D01*
X160705205Y-90275917D01*
X160705204Y-90275920D01*
X160701487Y-90282319D01*
X160674500Y-90398748D01*
X110700000Y-90398748D01*
X110700000Y-88158824D01*
X131794538Y-88158824D01*
X131813121Y-88300939D01*
X131815962Y-88307395D01*
X131815962Y-88307396D01*
X131833641Y-88347573D01*
X131870845Y-88432126D01*
X131963068Y-88541838D01*
X131968939Y-88545746D01*
X131968940Y-88545747D01*
X131979156Y-88552547D01*
X132082377Y-88621257D01*
X132089104Y-88623359D01*
X132089107Y-88623360D01*
X132212448Y-88661894D01*
X132212449Y-88661894D01*
X132219180Y-88663997D01*
X132290831Y-88665311D01*
X132355427Y-88666495D01*
X132355429Y-88666495D01*
X132362481Y-88666624D01*
X132369284Y-88664769D01*
X132369286Y-88664769D01*
X132416065Y-88652015D01*
X132500758Y-88628925D01*
X132622897Y-88553931D01*
X132633125Y-88542631D01*
X160669526Y-88542631D01*
X160688196Y-88747781D01*
X160746357Y-88945397D01*
X160767274Y-88985407D01*
X160839548Y-89123656D01*
X160839551Y-89123660D01*
X160841795Y-89127953D01*
X160970874Y-89288495D01*
X161057597Y-89361264D01*
X161124971Y-89417798D01*
X161124975Y-89417801D01*
X161128677Y-89420907D01*
X161309194Y-89520147D01*
X161313808Y-89521611D01*
X161313811Y-89521612D01*
X161490305Y-89577599D01*
X161505549Y-89582435D01*
X161510361Y-89582975D01*
X161510362Y-89582975D01*
X161663849Y-89600191D01*
X161663851Y-89600191D01*
X161666605Y-89600500D01*
X162075993Y-89600500D01*
X162078387Y-89600265D01*
X162078392Y-89600265D01*
X162225204Y-89585870D01*
X162225208Y-89585869D01*
X162230014Y-89585398D01*
X162234639Y-89584002D01*
X162234642Y-89584001D01*
X162302894Y-89563394D01*
X162427220Y-89525858D01*
X162609105Y-89429148D01*
X162768741Y-89298952D01*
X162777392Y-89288495D01*
X162896966Y-89143955D01*
X162896967Y-89143953D01*
X162900049Y-89140228D01*
X162998027Y-88959023D01*
X163058942Y-88762238D01*
X163059974Y-88752427D01*
X163079968Y-88562185D01*
X163079968Y-88562183D01*
X163080474Y-88557369D01*
X163070491Y-88447672D01*
X163062243Y-88357039D01*
X163062242Y-88357036D01*
X163061804Y-88352219D01*
X163053805Y-88325038D01*
X163005011Y-88159250D01*
X163005010Y-88159247D01*
X163003643Y-88154603D01*
X162938558Y-88030106D01*
X162910452Y-87976344D01*
X162910449Y-87976340D01*
X162908205Y-87972047D01*
X162845336Y-87893853D01*
X162782158Y-87815276D01*
X162779126Y-87811505D01*
X162692403Y-87738736D01*
X162625029Y-87682202D01*
X162625025Y-87682199D01*
X162621323Y-87679093D01*
X162440806Y-87579853D01*
X162436192Y-87578389D01*
X162436189Y-87578388D01*
X162249066Y-87519029D01*
X162244451Y-87517565D01*
X162239639Y-87517025D01*
X162239638Y-87517025D01*
X162086151Y-87499809D01*
X162086149Y-87499809D01*
X162083395Y-87499500D01*
X161674007Y-87499500D01*
X161671613Y-87499735D01*
X161671608Y-87499735D01*
X161524796Y-87514130D01*
X161524792Y-87514131D01*
X161519986Y-87514602D01*
X161515361Y-87515998D01*
X161515358Y-87515999D01*
X161447106Y-87536606D01*
X161322780Y-87574142D01*
X161140895Y-87670852D01*
X160981259Y-87801048D01*
X160978175Y-87804776D01*
X160978174Y-87804777D01*
X160969489Y-87815276D01*
X160849951Y-87959772D01*
X160751973Y-88140977D01*
X160740714Y-88177350D01*
X160694997Y-88325038D01*
X160691058Y-88337762D01*
X160690553Y-88342569D01*
X160690552Y-88342573D01*
X160681140Y-88432126D01*
X160669526Y-88542631D01*
X132633125Y-88542631D01*
X132633843Y-88541838D01*
X132714346Y-88452900D01*
X132714346Y-88452899D01*
X132719078Y-88447672D01*
X132781570Y-88318689D01*
X132784557Y-88300939D01*
X132804715Y-88181120D01*
X132804715Y-88181117D01*
X132805349Y-88177350D01*
X132805500Y-88165000D01*
X132801451Y-88136723D01*
X132786182Y-88030106D01*
X132785182Y-88023123D01*
X132761960Y-87972047D01*
X132728781Y-87899075D01*
X132728780Y-87899074D01*
X132725860Y-87892651D01*
X132674501Y-87833046D01*
X132650840Y-87776621D01*
X132650500Y-87768423D01*
X132650500Y-81551190D01*
X132669407Y-81492999D01*
X132679496Y-81481186D01*
X133711934Y-80448748D01*
X160799500Y-80448748D01*
X160799500Y-81733258D01*
X160814636Y-81833935D01*
X160817839Y-81840606D01*
X160817840Y-81840608D01*
X160833915Y-81874083D01*
X160873265Y-81956029D01*
X160965202Y-82055486D01*
X161015300Y-82084585D01*
X161075917Y-82119795D01*
X161075920Y-82119796D01*
X161082319Y-82123513D01*
X161119624Y-82132160D01*
X161193246Y-82149225D01*
X161193249Y-82149225D01*
X161198748Y-82150500D01*
X162733258Y-82150500D01*
X162769697Y-82145022D01*
X162826614Y-82136465D01*
X162826616Y-82136464D01*
X162833935Y-82135364D01*
X162840606Y-82132161D01*
X162840608Y-82132160D01*
X162949361Y-82079937D01*
X162956029Y-82076735D01*
X163055486Y-81984798D01*
X163084585Y-81934700D01*
X163119795Y-81874083D01*
X163119796Y-81874080D01*
X163123513Y-81867681D01*
X163150500Y-81751252D01*
X163150500Y-80466742D01*
X163135364Y-80366065D01*
X163122624Y-80339533D01*
X163079937Y-80250639D01*
X163076735Y-80243971D01*
X162984798Y-80144514D01*
X162934700Y-80115415D01*
X162874083Y-80080205D01*
X162874080Y-80080204D01*
X162867681Y-80076487D01*
X162811803Y-80063535D01*
X162756754Y-80050775D01*
X162756751Y-80050775D01*
X162751252Y-80049500D01*
X161216742Y-80049500D01*
X161180303Y-80054978D01*
X161123386Y-80063535D01*
X161123384Y-80063536D01*
X161116065Y-80064636D01*
X161109394Y-80067839D01*
X161109392Y-80067840D01*
X161000639Y-80120063D01*
X160993971Y-80123265D01*
X160894514Y-80215202D01*
X160890797Y-80221602D01*
X160830205Y-80325917D01*
X160830204Y-80325920D01*
X160826487Y-80332319D01*
X160799500Y-80448748D01*
X133711934Y-80448748D01*
X135568051Y-78592631D01*
X160794526Y-78592631D01*
X160813196Y-78797781D01*
X160871357Y-78995397D01*
X160892274Y-79035407D01*
X160964548Y-79173656D01*
X160964551Y-79173660D01*
X160966795Y-79177953D01*
X161095874Y-79338495D01*
X161182597Y-79411264D01*
X161249971Y-79467798D01*
X161249975Y-79467801D01*
X161253677Y-79470907D01*
X161434194Y-79570147D01*
X161438808Y-79571611D01*
X161438811Y-79571612D01*
X161615305Y-79627599D01*
X161630549Y-79632435D01*
X161635361Y-79632975D01*
X161635362Y-79632975D01*
X161788849Y-79650191D01*
X161788851Y-79650191D01*
X161791605Y-79650500D01*
X162150993Y-79650500D01*
X162153387Y-79650265D01*
X162153392Y-79650265D01*
X162300204Y-79635870D01*
X162300208Y-79635869D01*
X162305014Y-79635398D01*
X162309639Y-79634002D01*
X162309642Y-79634001D01*
X162377894Y-79613394D01*
X162502220Y-79575858D01*
X162684105Y-79479148D01*
X162843741Y-79348952D01*
X162852392Y-79338495D01*
X162971966Y-79193955D01*
X162971967Y-79193953D01*
X162975049Y-79190228D01*
X163073027Y-79009023D01*
X163133942Y-78812238D01*
X163134974Y-78802427D01*
X163154968Y-78612185D01*
X163154968Y-78612183D01*
X163155474Y-78607369D01*
X163136804Y-78402219D01*
X163078643Y-78204603D01*
X163057726Y-78164593D01*
X162985452Y-78026344D01*
X162985449Y-78026340D01*
X162983205Y-78022047D01*
X162854126Y-77861505D01*
X162714680Y-77744496D01*
X162700029Y-77732202D01*
X162700025Y-77732199D01*
X162696323Y-77729093D01*
X162515806Y-77629853D01*
X162511192Y-77628389D01*
X162511189Y-77628388D01*
X162324066Y-77569029D01*
X162319451Y-77567565D01*
X162314639Y-77567025D01*
X162314638Y-77567025D01*
X162161151Y-77549809D01*
X162161149Y-77549809D01*
X162158395Y-77549500D01*
X161799007Y-77549500D01*
X161796613Y-77549735D01*
X161796608Y-77549735D01*
X161649796Y-77564130D01*
X161649792Y-77564131D01*
X161644986Y-77564602D01*
X161640361Y-77565998D01*
X161640358Y-77565999D01*
X161572106Y-77586606D01*
X161447780Y-77624142D01*
X161265895Y-77720852D01*
X161106259Y-77851048D01*
X161103175Y-77854776D01*
X161103174Y-77854777D01*
X161094489Y-77865276D01*
X160974951Y-78009772D01*
X160876973Y-78190977D01*
X160816058Y-78387762D01*
X160815553Y-78392569D01*
X160815552Y-78392573D01*
X160814032Y-78407039D01*
X160794526Y-78592631D01*
X135568051Y-78592631D01*
X136416186Y-77744496D01*
X136470703Y-77716719D01*
X136486190Y-77715500D01*
X139597306Y-77715500D01*
X139655497Y-77734407D01*
X139659614Y-77737729D01*
X139663068Y-77741838D01*
X139668939Y-77745746D01*
X139668940Y-77745747D01*
X139681235Y-77753931D01*
X139782377Y-77821257D01*
X139789104Y-77823359D01*
X139789107Y-77823360D01*
X139912448Y-77861894D01*
X139912449Y-77861894D01*
X139919180Y-77863997D01*
X139988949Y-77865276D01*
X140055427Y-77866495D01*
X140055429Y-77866495D01*
X140062481Y-77866624D01*
X140069284Y-77864769D01*
X140069286Y-77864769D01*
X140116065Y-77852015D01*
X140200758Y-77828925D01*
X140322897Y-77753931D01*
X140419078Y-77647672D01*
X140481570Y-77518689D01*
X140505349Y-77377350D01*
X140505500Y-77365000D01*
X140485182Y-77223123D01*
X140452163Y-77150500D01*
X140428780Y-77099073D01*
X140428780Y-77099072D01*
X140425860Y-77092651D01*
X140332303Y-76984074D01*
X140212033Y-76906118D01*
X140205275Y-76904097D01*
X140205273Y-76904096D01*
X140081479Y-76867074D01*
X140074718Y-76865052D01*
X139988694Y-76864527D01*
X139938448Y-76864220D01*
X139931396Y-76864177D01*
X139924620Y-76866114D01*
X139924617Y-76866114D01*
X139800369Y-76901624D01*
X139800367Y-76901625D01*
X139793589Y-76903562D01*
X139672375Y-76980042D01*
X139667706Y-76985329D01*
X139662336Y-76989899D01*
X139660377Y-76987598D01*
X139618813Y-77012133D01*
X139597295Y-77014500D01*
X136348676Y-77014500D01*
X136327840Y-77012282D01*
X136326167Y-77011922D01*
X136316747Y-77009894D01*
X136283630Y-77013814D01*
X136278111Y-77014139D01*
X136278113Y-77014164D01*
X136274047Y-77014500D01*
X136269961Y-77014500D01*
X136265933Y-77015170D01*
X136265926Y-77015171D01*
X136252874Y-77017343D01*
X136248261Y-77018000D01*
X136231437Y-77019992D01*
X136200819Y-77023616D01*
X136193838Y-77026968D01*
X136192487Y-77027396D01*
X136184847Y-77028667D01*
X136177648Y-77032551D01*
X136177643Y-77032553D01*
X136142798Y-77051354D01*
X136138645Y-77053470D01*
X136101204Y-77071450D01*
X136095586Y-77074148D01*
X136092978Y-77076340D01*
X136091467Y-77077851D01*
X136089880Y-77079306D01*
X136089773Y-77079189D01*
X136087501Y-77081192D01*
X136082112Y-77084100D01*
X136076556Y-77090111D01*
X136076554Y-77090112D01*
X136045463Y-77123746D01*
X136042770Y-77126548D01*
X135830918Y-77338400D01*
X135830916Y-77338403D01*
X132086572Y-81082746D01*
X132070271Y-81095909D01*
X132060744Y-81102061D01*
X132055678Y-81108487D01*
X132055676Y-81108489D01*
X132040102Y-81128244D01*
X132036430Y-81132377D01*
X132036448Y-81132392D01*
X132033797Y-81135521D01*
X132030918Y-81138400D01*
X132028549Y-81141716D01*
X132028545Y-81141720D01*
X132020841Y-81152501D01*
X132018057Y-81156210D01*
X131988473Y-81193737D01*
X131985905Y-81201048D01*
X131985257Y-81202296D01*
X131980751Y-81208602D01*
X131978408Y-81216438D01*
X131967065Y-81254368D01*
X131965622Y-81258808D01*
X131949794Y-81303879D01*
X131949500Y-81307273D01*
X131949500Y-81309412D01*
X131949408Y-81311545D01*
X131949249Y-81311538D01*
X131949058Y-81314580D01*
X131947304Y-81320444D01*
X131947625Y-81328618D01*
X131947625Y-81328619D01*
X131949424Y-81374414D01*
X131949500Y-81378300D01*
X131949500Y-87768485D01*
X131930593Y-87826676D01*
X131924704Y-87834019D01*
X131877499Y-87887469D01*
X131816588Y-88017206D01*
X131794538Y-88158824D01*
X110700000Y-88158824D01*
X110700000Y-73829262D01*
X118645904Y-73829262D01*
X118648691Y-73868619D01*
X118649174Y-73875441D01*
X118649416Y-73883469D01*
X118648880Y-73934623D01*
X118650627Y-73941142D01*
X118650627Y-73941143D01*
X118654794Y-73956693D01*
X118654981Y-73957455D01*
X118655470Y-73964364D01*
X118658139Y-73971263D01*
X118658174Y-73971419D01*
X118661333Y-73981096D01*
X118687905Y-74080265D01*
X118691338Y-74086071D01*
X118691339Y-74086072D01*
X118699607Y-74100052D01*
X118764658Y-74210048D01*
X118873485Y-74314409D01*
X118879438Y-74317601D01*
X118967317Y-74364721D01*
X119006368Y-74385660D01*
X119012948Y-74387131D01*
X119012951Y-74387132D01*
X119146931Y-74417080D01*
X119146932Y-74417080D01*
X119153517Y-74418552D01*
X119160256Y-74418199D01*
X119160258Y-74418199D01*
X119209738Y-74415606D01*
X119304090Y-74410661D01*
X119446995Y-74362568D01*
X119491064Y-74332619D01*
X119546710Y-74315500D01*
X121850654Y-74315500D01*
X121897434Y-74327250D01*
X122006368Y-74385660D01*
X122012948Y-74387131D01*
X122012951Y-74387132D01*
X122146931Y-74417080D01*
X122146932Y-74417080D01*
X122153517Y-74418552D01*
X122160256Y-74418199D01*
X122160258Y-74418199D01*
X122209738Y-74415606D01*
X122304090Y-74410661D01*
X122446995Y-74362568D01*
X122571702Y-74277817D01*
X122576056Y-74272665D01*
X122576058Y-74272663D01*
X122628971Y-74210048D01*
X122669024Y-74162652D01*
X122731791Y-74025557D01*
X122746194Y-73934623D01*
X122754811Y-73880214D01*
X122755378Y-73876634D01*
X122755500Y-73865000D01*
X122735037Y-73715615D01*
X122732360Y-73709429D01*
X122732359Y-73709425D01*
X122677836Y-73583430D01*
X122677834Y-73583426D01*
X122675155Y-73577236D01*
X122580266Y-73460058D01*
X122508212Y-73408852D01*
X122462859Y-73376621D01*
X122462858Y-73376620D01*
X122457361Y-73372714D01*
X122451017Y-73370430D01*
X122451013Y-73370428D01*
X122321843Y-73323924D01*
X122321840Y-73323923D01*
X122315495Y-73321639D01*
X122290504Y-73319804D01*
X122171854Y-73311090D01*
X122171850Y-73311090D01*
X122165120Y-73310596D01*
X122158505Y-73311930D01*
X122158503Y-73311930D01*
X122112803Y-73321145D01*
X122017315Y-73340399D01*
X122011309Y-73343459D01*
X122011307Y-73343460D01*
X121893061Y-73403710D01*
X121848116Y-73414500D01*
X119547755Y-73414500D01*
X119490406Y-73396197D01*
X119462864Y-73376624D01*
X119462860Y-73376622D01*
X119457361Y-73372714D01*
X119451017Y-73370430D01*
X119451013Y-73370428D01*
X119321843Y-73323924D01*
X119321840Y-73323923D01*
X119315495Y-73321639D01*
X119290504Y-73319804D01*
X119171854Y-73311090D01*
X119171850Y-73311090D01*
X119165120Y-73310596D01*
X119158505Y-73311930D01*
X119158503Y-73311930D01*
X119112803Y-73321145D01*
X119017315Y-73340399D01*
X119011309Y-73343459D01*
X119011307Y-73343460D01*
X119008687Y-73344795D01*
X118882969Y-73408852D01*
X118878006Y-73413415D01*
X118878004Y-73413417D01*
X118827089Y-73460236D01*
X118771980Y-73510911D01*
X118692525Y-73639058D01*
X118650459Y-73783851D01*
X118650388Y-73790600D01*
X118650388Y-73790601D01*
X118650289Y-73800036D01*
X118647738Y-73821346D01*
X118647575Y-73822050D01*
X118645904Y-73829262D01*
X110700000Y-73829262D01*
X110700000Y-62092631D01*
X113419526Y-62092631D01*
X113422535Y-62125697D01*
X113434524Y-62257427D01*
X113438196Y-62297781D01*
X113439562Y-62302423D01*
X113439563Y-62302427D01*
X113494989Y-62490750D01*
X113496357Y-62495397D01*
X113517274Y-62535407D01*
X113589548Y-62673656D01*
X113589551Y-62673660D01*
X113591795Y-62677953D01*
X113594831Y-62681729D01*
X113594833Y-62681732D01*
X113663914Y-62767651D01*
X113720874Y-62838495D01*
X113791936Y-62898123D01*
X113874971Y-62967798D01*
X113874975Y-62967801D01*
X113878677Y-62970907D01*
X114059194Y-63070147D01*
X114063808Y-63071611D01*
X114063811Y-63071612D01*
X114240305Y-63127599D01*
X114255549Y-63132435D01*
X114260361Y-63132975D01*
X114260362Y-63132975D01*
X114413849Y-63150191D01*
X114413851Y-63150191D01*
X114416605Y-63150500D01*
X114825993Y-63150500D01*
X114828387Y-63150265D01*
X114828392Y-63150265D01*
X114975204Y-63135870D01*
X114975208Y-63135869D01*
X114980014Y-63135398D01*
X114984639Y-63134002D01*
X114984642Y-63134001D01*
X115052894Y-63113394D01*
X115177220Y-63075858D01*
X115256274Y-63033824D01*
X149119538Y-63033824D01*
X149120453Y-63040822D01*
X149132882Y-63135870D01*
X149138121Y-63175939D01*
X149140962Y-63182395D01*
X149140962Y-63182396D01*
X149142870Y-63186731D01*
X149195845Y-63307126D01*
X149226284Y-63343337D01*
X149249253Y-63400045D01*
X149249500Y-63407038D01*
X149249500Y-69051326D01*
X149247282Y-69072162D01*
X149246617Y-69075252D01*
X149246617Y-69075256D01*
X149244895Y-69083254D01*
X149245856Y-69091374D01*
X149245856Y-69091377D01*
X149248814Y-69116365D01*
X149249140Y-69121889D01*
X149249164Y-69121887D01*
X149249500Y-69125954D01*
X149249500Y-69130039D01*
X149250170Y-69134065D01*
X149250171Y-69134076D01*
X149252344Y-69147130D01*
X149253001Y-69151742D01*
X149258616Y-69199182D01*
X149261969Y-69206164D01*
X149262395Y-69207513D01*
X149263667Y-69215153D01*
X149267552Y-69222353D01*
X149286352Y-69257197D01*
X149288468Y-69261351D01*
X149306450Y-69298796D01*
X149309148Y-69304414D01*
X149311340Y-69307022D01*
X149312851Y-69308533D01*
X149314306Y-69310120D01*
X149314189Y-69310227D01*
X149316192Y-69312499D01*
X149319100Y-69317888D01*
X149325111Y-69323444D01*
X149325112Y-69323446D01*
X149358746Y-69354537D01*
X149361548Y-69357230D01*
X154570200Y-74565882D01*
X154598359Y-74623049D01*
X154613121Y-74735939D01*
X154615962Y-74742395D01*
X154615962Y-74742396D01*
X154638085Y-74792673D01*
X154670845Y-74867126D01*
X154763068Y-74976838D01*
X154768939Y-74980746D01*
X154768940Y-74980747D01*
X154781235Y-74988931D01*
X154882377Y-75056257D01*
X154889104Y-75058359D01*
X154889107Y-75058360D01*
X155012448Y-75096894D01*
X155012449Y-75096894D01*
X155019180Y-75098997D01*
X155090830Y-75100310D01*
X155155427Y-75101495D01*
X155155429Y-75101495D01*
X155162481Y-75101624D01*
X155169284Y-75099769D01*
X155169286Y-75099769D01*
X155216065Y-75087015D01*
X155300758Y-75063925D01*
X155422897Y-74988931D01*
X155488576Y-74916370D01*
X155514346Y-74887900D01*
X155514346Y-74887899D01*
X155519078Y-74882672D01*
X155581570Y-74753689D01*
X155584557Y-74735939D01*
X155604715Y-74616120D01*
X155604715Y-74616117D01*
X155605349Y-74612350D01*
X155605500Y-74600000D01*
X155585182Y-74458123D01*
X155567191Y-74418552D01*
X155528780Y-74334073D01*
X155528780Y-74334072D01*
X155525860Y-74327651D01*
X155432303Y-74219074D01*
X155312033Y-74141118D01*
X155305275Y-74139097D01*
X155305273Y-74139096D01*
X155181479Y-74102074D01*
X155174718Y-74100052D01*
X155155389Y-74099934D01*
X155135902Y-74099815D01*
X155077827Y-74080553D01*
X155066502Y-74070821D01*
X154862374Y-73866693D01*
X160518265Y-73866693D01*
X160543626Y-73987562D01*
X160546029Y-73995575D01*
X160627608Y-74202145D01*
X160631317Y-74209618D01*
X160746536Y-74399492D01*
X160751456Y-74406239D01*
X160897015Y-74573981D01*
X160903009Y-74579810D01*
X161074739Y-74720620D01*
X161081641Y-74725363D01*
X161274640Y-74835225D01*
X161282230Y-74838732D01*
X161490991Y-74914508D01*
X161500396Y-74917046D01*
X161551652Y-74950459D01*
X161573480Y-75007618D01*
X161557542Y-75066691D01*
X161509925Y-75105114D01*
X161503222Y-75107402D01*
X161452419Y-75122741D01*
X161452415Y-75122743D01*
X161447780Y-75124142D01*
X161265895Y-75220852D01*
X161106259Y-75351048D01*
X161103175Y-75354776D01*
X161103174Y-75354777D01*
X161094489Y-75365276D01*
X160974951Y-75509772D01*
X160876973Y-75690977D01*
X160816058Y-75887762D01*
X160815553Y-75892569D01*
X160815552Y-75892573D01*
X160814032Y-75907039D01*
X160794526Y-76092631D01*
X160813196Y-76297781D01*
X160871357Y-76495397D01*
X160892274Y-76535407D01*
X160964548Y-76673656D01*
X160964551Y-76673660D01*
X160966795Y-76677953D01*
X161095874Y-76838495D01*
X161176464Y-76906118D01*
X161249971Y-76967798D01*
X161249975Y-76967801D01*
X161253677Y-76970907D01*
X161434194Y-77070147D01*
X161438808Y-77071611D01*
X161438811Y-77071612D01*
X161603158Y-77123746D01*
X161630549Y-77132435D01*
X161635361Y-77132975D01*
X161635362Y-77132975D01*
X161788849Y-77150191D01*
X161788851Y-77150191D01*
X161791605Y-77150500D01*
X162150993Y-77150500D01*
X162153387Y-77150265D01*
X162153392Y-77150265D01*
X162300204Y-77135870D01*
X162300208Y-77135869D01*
X162305014Y-77135398D01*
X162309639Y-77134002D01*
X162309642Y-77134001D01*
X162425328Y-77099073D01*
X162502220Y-77075858D01*
X162684105Y-76979148D01*
X162843741Y-76848952D01*
X162852392Y-76838495D01*
X162971966Y-76693955D01*
X162971967Y-76693953D01*
X162975049Y-76690228D01*
X163073027Y-76509023D01*
X163133942Y-76312238D01*
X163134974Y-76302427D01*
X163154968Y-76112185D01*
X163154968Y-76112183D01*
X163155474Y-76107369D01*
X163136804Y-75902219D01*
X163078643Y-75704603D01*
X163057726Y-75664593D01*
X162985452Y-75526344D01*
X162985449Y-75526340D01*
X162983205Y-75522047D01*
X162854126Y-75361505D01*
X162767403Y-75288736D01*
X162700029Y-75232202D01*
X162700025Y-75232199D01*
X162696323Y-75229093D01*
X162515806Y-75129853D01*
X162511192Y-75128389D01*
X162511189Y-75128388D01*
X162437819Y-75105114D01*
X162436435Y-75104675D01*
X162386685Y-75069057D01*
X162367372Y-75011000D01*
X162385873Y-74952679D01*
X162435121Y-74916370D01*
X162441498Y-74914484D01*
X162548682Y-74886664D01*
X162556554Y-74883892D01*
X162759054Y-74792673D01*
X162766354Y-74788610D01*
X162950575Y-74664585D01*
X162957102Y-74659337D01*
X163117793Y-74506046D01*
X163123330Y-74499787D01*
X163255898Y-74321609D01*
X163260306Y-74314500D01*
X163360960Y-74116529D01*
X163364102Y-74108791D01*
X163429961Y-73896686D01*
X163431754Y-73888532D01*
X163434271Y-73869544D01*
X163431851Y-73856427D01*
X163430567Y-73855205D01*
X163425250Y-73854000D01*
X160531282Y-73854000D01*
X160518728Y-73858079D01*
X160518265Y-73866693D01*
X154862374Y-73866693D01*
X149979496Y-68983814D01*
X149951719Y-68929297D01*
X149950500Y-68913810D01*
X149950500Y-63464206D01*
X149969407Y-63406015D01*
X149976103Y-63397769D01*
X150039346Y-63327900D01*
X150039346Y-63327899D01*
X150044078Y-63322672D01*
X150106570Y-63193689D01*
X150109557Y-63175939D01*
X150129715Y-63056120D01*
X150129715Y-63056117D01*
X150130349Y-63052350D01*
X150130500Y-63040000D01*
X150127323Y-63017812D01*
X150111182Y-62905106D01*
X150110182Y-62898123D01*
X150087826Y-62848952D01*
X150053780Y-62774073D01*
X150053780Y-62774072D01*
X150050860Y-62767651D01*
X149957303Y-62659074D01*
X149837033Y-62581118D01*
X149830275Y-62579097D01*
X149830273Y-62579096D01*
X149706479Y-62542074D01*
X149699718Y-62540052D01*
X149613694Y-62539527D01*
X149563448Y-62539220D01*
X149556396Y-62539177D01*
X149549620Y-62541114D01*
X149549617Y-62541114D01*
X149425369Y-62576624D01*
X149425367Y-62576625D01*
X149418589Y-62578562D01*
X149297375Y-62655042D01*
X149202499Y-62762469D01*
X149141588Y-62892206D01*
X149119538Y-63033824D01*
X115256274Y-63033824D01*
X115359105Y-62979148D01*
X115518741Y-62848952D01*
X115527392Y-62838495D01*
X115646966Y-62693955D01*
X115646967Y-62693953D01*
X115650049Y-62690228D01*
X115748027Y-62509023D01*
X115808942Y-62312238D01*
X115809974Y-62302427D01*
X115829968Y-62112185D01*
X115829968Y-62112183D01*
X115830474Y-62107369D01*
X115811804Y-61902219D01*
X115797089Y-61852219D01*
X115769601Y-61758824D01*
X150294538Y-61758824D01*
X150313121Y-61900939D01*
X150315962Y-61907395D01*
X150315962Y-61907396D01*
X150317870Y-61911731D01*
X150370845Y-62032126D01*
X150375382Y-62037523D01*
X150375383Y-62037525D01*
X150426283Y-62098077D01*
X150449253Y-62154787D01*
X150449500Y-62161779D01*
X150449500Y-68751326D01*
X150447282Y-68772162D01*
X150446617Y-68775252D01*
X150446617Y-68775256D01*
X150444895Y-68783254D01*
X150445856Y-68791374D01*
X150445856Y-68791377D01*
X150448814Y-68816365D01*
X150449140Y-68821889D01*
X150449164Y-68821887D01*
X150449500Y-68825954D01*
X150449500Y-68830039D01*
X150450170Y-68834065D01*
X150450171Y-68834076D01*
X150452344Y-68847130D01*
X150453001Y-68851742D01*
X150458616Y-68899182D01*
X150461969Y-68906164D01*
X150462395Y-68907513D01*
X150463667Y-68915153D01*
X150467552Y-68922353D01*
X150486352Y-68957197D01*
X150488468Y-68961351D01*
X150506450Y-68998796D01*
X150509148Y-69004414D01*
X150511340Y-69007022D01*
X150512851Y-69008533D01*
X150514306Y-69010120D01*
X150514189Y-69010227D01*
X150516192Y-69012499D01*
X150519100Y-69017888D01*
X150525111Y-69023444D01*
X150525112Y-69023446D01*
X150558746Y-69054537D01*
X150561548Y-69057230D01*
X154470200Y-72965882D01*
X154498359Y-73023049D01*
X154513121Y-73135939D01*
X154515962Y-73142395D01*
X154515962Y-73142396D01*
X154546782Y-73212438D01*
X154570845Y-73267126D01*
X154575382Y-73272523D01*
X154575383Y-73272525D01*
X154608507Y-73311930D01*
X154663068Y-73376838D01*
X154668939Y-73380746D01*
X154668940Y-73380747D01*
X154681235Y-73388931D01*
X154782377Y-73456257D01*
X154789104Y-73458359D01*
X154789107Y-73458360D01*
X154912448Y-73496894D01*
X154912449Y-73496894D01*
X154919180Y-73498997D01*
X154990830Y-73500310D01*
X155055427Y-73501495D01*
X155055429Y-73501495D01*
X155062481Y-73501624D01*
X155069284Y-73499769D01*
X155069286Y-73499769D01*
X155116065Y-73487015D01*
X155200758Y-73463925D01*
X155322897Y-73388931D01*
X155334037Y-73376624D01*
X155375826Y-73330456D01*
X160515729Y-73330456D01*
X160518149Y-73343573D01*
X160519433Y-73344795D01*
X160524750Y-73346000D01*
X161705320Y-73346000D01*
X161718005Y-73341878D01*
X161721000Y-73337757D01*
X161721000Y-72263626D01*
X161718342Y-72255447D01*
X162229000Y-72255447D01*
X162229000Y-73330320D01*
X162233122Y-73343005D01*
X162237243Y-73346000D01*
X163418718Y-73346000D01*
X163431272Y-73341921D01*
X163431735Y-73333307D01*
X163406374Y-73212438D01*
X163403971Y-73204425D01*
X163322392Y-72997855D01*
X163318683Y-72990382D01*
X163203464Y-72800508D01*
X163198544Y-72793761D01*
X163052985Y-72626019D01*
X163046991Y-72620190D01*
X162875261Y-72479380D01*
X162868359Y-72474637D01*
X162675360Y-72364775D01*
X162667770Y-72361268D01*
X162459014Y-72285493D01*
X162450938Y-72283314D01*
X162244431Y-72245971D01*
X162231212Y-72247770D01*
X162230843Y-72248124D01*
X162229000Y-72255447D01*
X161718342Y-72255447D01*
X161716878Y-72250941D01*
X161714432Y-72249163D01*
X161711134Y-72248783D01*
X161624520Y-72256132D01*
X161616295Y-72257538D01*
X161401320Y-72313335D01*
X161393446Y-72316108D01*
X161190946Y-72407327D01*
X161183646Y-72411390D01*
X160999425Y-72535415D01*
X160992898Y-72540663D01*
X160832207Y-72693954D01*
X160826670Y-72700213D01*
X160694102Y-72878391D01*
X160689694Y-72885500D01*
X160589040Y-73083471D01*
X160585898Y-73091209D01*
X160520039Y-73303314D01*
X160518246Y-73311468D01*
X160515729Y-73330456D01*
X155375826Y-73330456D01*
X155414346Y-73287900D01*
X155414346Y-73287899D01*
X155419078Y-73282672D01*
X155481570Y-73153689D01*
X155484557Y-73135939D01*
X155504715Y-73016120D01*
X155504715Y-73016117D01*
X155505349Y-73012350D01*
X155505500Y-73000000D01*
X155485182Y-72858123D01*
X155455919Y-72793761D01*
X155428780Y-72734073D01*
X155428780Y-72734072D01*
X155425860Y-72727651D01*
X155332303Y-72619074D01*
X155212033Y-72541118D01*
X155205275Y-72539097D01*
X155205273Y-72539096D01*
X155081479Y-72502074D01*
X155074718Y-72500052D01*
X155055543Y-72499935D01*
X155035903Y-72499815D01*
X154977828Y-72480553D01*
X154966503Y-72470821D01*
X151179496Y-68683814D01*
X151151719Y-68629297D01*
X151150500Y-68613810D01*
X151150500Y-66398748D01*
X160799500Y-66398748D01*
X160799500Y-67683258D01*
X160814636Y-67783935D01*
X160817839Y-67790606D01*
X160817840Y-67790608D01*
X160833915Y-67824083D01*
X160873265Y-67906029D01*
X160965202Y-68005486D01*
X161015300Y-68034585D01*
X161075917Y-68069795D01*
X161075920Y-68069796D01*
X161082319Y-68073513D01*
X161119624Y-68082160D01*
X161193246Y-68099225D01*
X161193249Y-68099225D01*
X161198748Y-68100500D01*
X162733258Y-68100500D01*
X162769697Y-68095022D01*
X162826614Y-68086465D01*
X162826616Y-68086464D01*
X162833935Y-68085364D01*
X162840606Y-68082161D01*
X162840608Y-68082160D01*
X162949361Y-68029937D01*
X162956029Y-68026735D01*
X163055486Y-67934798D01*
X163084585Y-67884700D01*
X163119795Y-67824083D01*
X163119796Y-67824080D01*
X163123513Y-67817681D01*
X163150500Y-67701252D01*
X163150500Y-66416742D01*
X163135364Y-66316065D01*
X163122624Y-66289533D01*
X163079937Y-66200639D01*
X163076735Y-66193971D01*
X162984798Y-66094514D01*
X162934700Y-66065415D01*
X162874083Y-66030205D01*
X162874080Y-66030204D01*
X162867681Y-66026487D01*
X162811803Y-66013535D01*
X162756754Y-66000775D01*
X162756751Y-66000775D01*
X162751252Y-65999500D01*
X161216742Y-65999500D01*
X161180303Y-66004978D01*
X161123386Y-66013535D01*
X161123384Y-66013536D01*
X161116065Y-66014636D01*
X161109394Y-66017839D01*
X161109392Y-66017840D01*
X161000639Y-66070063D01*
X160993971Y-66073265D01*
X160894514Y-66165202D01*
X160890797Y-66171602D01*
X160830205Y-66275917D01*
X160830204Y-66275920D01*
X160826487Y-66282319D01*
X160799500Y-66398748D01*
X151150500Y-66398748D01*
X151150500Y-64542631D01*
X160794526Y-64542631D01*
X160813196Y-64747781D01*
X160871357Y-64945397D01*
X160892274Y-64985407D01*
X160964548Y-65123656D01*
X160964551Y-65123660D01*
X160966795Y-65127953D01*
X161095874Y-65288495D01*
X161182597Y-65361264D01*
X161249971Y-65417798D01*
X161249975Y-65417801D01*
X161253677Y-65420907D01*
X161434194Y-65520147D01*
X161438808Y-65521611D01*
X161438811Y-65521612D01*
X161615305Y-65577599D01*
X161630549Y-65582435D01*
X161635361Y-65582975D01*
X161635362Y-65582975D01*
X161788849Y-65600191D01*
X161788851Y-65600191D01*
X161791605Y-65600500D01*
X162150993Y-65600500D01*
X162153387Y-65600265D01*
X162153392Y-65600265D01*
X162300204Y-65585870D01*
X162300208Y-65585869D01*
X162305014Y-65585398D01*
X162309639Y-65584002D01*
X162309642Y-65584001D01*
X162377894Y-65563394D01*
X162502220Y-65525858D01*
X162684105Y-65429148D01*
X162843741Y-65298952D01*
X162852392Y-65288495D01*
X162971966Y-65143955D01*
X162971967Y-65143953D01*
X162975049Y-65140228D01*
X163073027Y-64959023D01*
X163133942Y-64762238D01*
X163134974Y-64752427D01*
X163154968Y-64562185D01*
X163154968Y-64562183D01*
X163155474Y-64557369D01*
X163136804Y-64352219D01*
X163078643Y-64154603D01*
X163057726Y-64114593D01*
X162985452Y-63976344D01*
X162985449Y-63976340D01*
X162983205Y-63972047D01*
X162854126Y-63811505D01*
X162767403Y-63738736D01*
X162700029Y-63682202D01*
X162700025Y-63682199D01*
X162696323Y-63679093D01*
X162515806Y-63579853D01*
X162511192Y-63578389D01*
X162511189Y-63578388D01*
X162324066Y-63519029D01*
X162319451Y-63517565D01*
X162314639Y-63517025D01*
X162314638Y-63517025D01*
X162161151Y-63499809D01*
X162161149Y-63499809D01*
X162158395Y-63499500D01*
X161799007Y-63499500D01*
X161796613Y-63499735D01*
X161796608Y-63499735D01*
X161649796Y-63514130D01*
X161649792Y-63514131D01*
X161644986Y-63514602D01*
X161640361Y-63515998D01*
X161640358Y-63515999D01*
X161572106Y-63536606D01*
X161447780Y-63574142D01*
X161265895Y-63670852D01*
X161106259Y-63801048D01*
X161103175Y-63804776D01*
X161103174Y-63804777D01*
X161094489Y-63815276D01*
X160974951Y-63959772D01*
X160876973Y-64140977D01*
X160816058Y-64337762D01*
X160815553Y-64342569D01*
X160815552Y-64342573D01*
X160814032Y-64357039D01*
X160794526Y-64542631D01*
X151150500Y-64542631D01*
X151150500Y-62161587D01*
X151169407Y-62103396D01*
X151176102Y-62095151D01*
X151214346Y-62052900D01*
X151214346Y-62052899D01*
X151219078Y-62047672D01*
X151281570Y-61918689D01*
X151284557Y-61900939D01*
X151304715Y-61781120D01*
X151304715Y-61781117D01*
X151305349Y-61777350D01*
X151305500Y-61765000D01*
X151285182Y-61623123D01*
X151233645Y-61509772D01*
X151228780Y-61499073D01*
X151228780Y-61499072D01*
X151225860Y-61492651D01*
X151132303Y-61384074D01*
X151012033Y-61306118D01*
X151005275Y-61304097D01*
X151005273Y-61304096D01*
X150881479Y-61267074D01*
X150874718Y-61265052D01*
X150788694Y-61264527D01*
X150738448Y-61264220D01*
X150731396Y-61264177D01*
X150724620Y-61266114D01*
X150724617Y-61266114D01*
X150600369Y-61301624D01*
X150600367Y-61301625D01*
X150593589Y-61303562D01*
X150472375Y-61380042D01*
X150377499Y-61487469D01*
X150316588Y-61617206D01*
X150294538Y-61758824D01*
X115769601Y-61758824D01*
X115755011Y-61709250D01*
X115755010Y-61709247D01*
X115753643Y-61704603D01*
X115707953Y-61617206D01*
X115660452Y-61526344D01*
X115660449Y-61526340D01*
X115658205Y-61522047D01*
X115639734Y-61499073D01*
X115532158Y-61365276D01*
X115529126Y-61361505D01*
X115415443Y-61266114D01*
X115375029Y-61232202D01*
X115375025Y-61232199D01*
X115371323Y-61229093D01*
X115190806Y-61129853D01*
X115186192Y-61128389D01*
X115186189Y-61128388D01*
X114999066Y-61069029D01*
X114994451Y-61067565D01*
X114989639Y-61067025D01*
X114989638Y-61067025D01*
X114836151Y-61049809D01*
X114836149Y-61049809D01*
X114833395Y-61049500D01*
X114424007Y-61049500D01*
X114421613Y-61049735D01*
X114421608Y-61049735D01*
X114274796Y-61064130D01*
X114274792Y-61064131D01*
X114269986Y-61064602D01*
X114265361Y-61065998D01*
X114265358Y-61065999D01*
X114219472Y-61079853D01*
X114072780Y-61124142D01*
X113890895Y-61220852D01*
X113731259Y-61351048D01*
X113728175Y-61354776D01*
X113728174Y-61354777D01*
X113618402Y-61487469D01*
X113599951Y-61509772D01*
X113545312Y-61610823D01*
X113521641Y-61654603D01*
X113501973Y-61690977D01*
X113500544Y-61695594D01*
X113453499Y-61847573D01*
X113441058Y-61887762D01*
X113440553Y-61892569D01*
X113440552Y-61892573D01*
X113425287Y-62037815D01*
X113419526Y-62092631D01*
X110700000Y-62092631D01*
X110700000Y-58948748D01*
X113424500Y-58948748D01*
X113424500Y-60233258D01*
X113439636Y-60333935D01*
X113442839Y-60340606D01*
X113442840Y-60340608D01*
X113458915Y-60374083D01*
X113498265Y-60456029D01*
X113590202Y-60555486D01*
X113640300Y-60584585D01*
X113700917Y-60619795D01*
X113700920Y-60619796D01*
X113707319Y-60623513D01*
X113744624Y-60632160D01*
X113818246Y-60649225D01*
X113818249Y-60649225D01*
X113823748Y-60650500D01*
X115408258Y-60650500D01*
X115444697Y-60645022D01*
X115501614Y-60636465D01*
X115501616Y-60636464D01*
X115508935Y-60635364D01*
X115515606Y-60632161D01*
X115515608Y-60632160D01*
X115624361Y-60579937D01*
X115631029Y-60576735D01*
X115730486Y-60484798D01*
X115759585Y-60434700D01*
X115794795Y-60374083D01*
X115794796Y-60374080D01*
X115798513Y-60367681D01*
X115808032Y-60326614D01*
X115824225Y-60256754D01*
X115824225Y-60256751D01*
X115825500Y-60251252D01*
X115825500Y-59816693D01*
X160518265Y-59816693D01*
X160543626Y-59937562D01*
X160546029Y-59945575D01*
X160627608Y-60152145D01*
X160631317Y-60159618D01*
X160746536Y-60349492D01*
X160751456Y-60356239D01*
X160897015Y-60523981D01*
X160903009Y-60529810D01*
X161074739Y-60670620D01*
X161081641Y-60675363D01*
X161274640Y-60785225D01*
X161282230Y-60788732D01*
X161490991Y-60864508D01*
X161500396Y-60867046D01*
X161551652Y-60900459D01*
X161573480Y-60957618D01*
X161557542Y-61016691D01*
X161509925Y-61055114D01*
X161503222Y-61057402D01*
X161452419Y-61072741D01*
X161452415Y-61072743D01*
X161447780Y-61074142D01*
X161265895Y-61170852D01*
X161106259Y-61301048D01*
X161103175Y-61304776D01*
X161103174Y-61304777D01*
X161033155Y-61389416D01*
X160974951Y-61459772D01*
X160953701Y-61499073D01*
X160890099Y-61616702D01*
X160876973Y-61640977D01*
X160875544Y-61645594D01*
X160833592Y-61781120D01*
X160816058Y-61837762D01*
X160815553Y-61842569D01*
X160815552Y-61842573D01*
X160795032Y-62037815D01*
X160794526Y-62042631D01*
X160813196Y-62247781D01*
X160814562Y-62252423D01*
X160814563Y-62252427D01*
X160869989Y-62440750D01*
X160871357Y-62445397D01*
X160892274Y-62485407D01*
X160964548Y-62623656D01*
X160964551Y-62623660D01*
X160966795Y-62627953D01*
X160969831Y-62631729D01*
X160969833Y-62631732D01*
X161079115Y-62767651D01*
X161095874Y-62788495D01*
X161150968Y-62834724D01*
X161249971Y-62917798D01*
X161249975Y-62917801D01*
X161253677Y-62920907D01*
X161434194Y-63020147D01*
X161438808Y-63021611D01*
X161438811Y-63021612D01*
X161596431Y-63071612D01*
X161630549Y-63082435D01*
X161635361Y-63082975D01*
X161635362Y-63082975D01*
X161788849Y-63100191D01*
X161788851Y-63100191D01*
X161791605Y-63100500D01*
X162150993Y-63100500D01*
X162153387Y-63100265D01*
X162153392Y-63100265D01*
X162300204Y-63085870D01*
X162300208Y-63085869D01*
X162305014Y-63085398D01*
X162309639Y-63084002D01*
X162309642Y-63084001D01*
X162414474Y-63052350D01*
X162502220Y-63025858D01*
X162684105Y-62929148D01*
X162843741Y-62798952D01*
X162852392Y-62788495D01*
X162971966Y-62643955D01*
X162971967Y-62643953D01*
X162975049Y-62640228D01*
X163051038Y-62499691D01*
X163070727Y-62463277D01*
X163070728Y-62463276D01*
X163073027Y-62459023D01*
X163117034Y-62316859D01*
X163132512Y-62266859D01*
X163132513Y-62266855D01*
X163133942Y-62262238D01*
X163134974Y-62252427D01*
X163154968Y-62062185D01*
X163154968Y-62062183D01*
X163155474Y-62057369D01*
X163142220Y-61911731D01*
X163137243Y-61857039D01*
X163137242Y-61857036D01*
X163136804Y-61852219D01*
X163113645Y-61773529D01*
X163080011Y-61659250D01*
X163080010Y-61659247D01*
X163078643Y-61654603D01*
X163011591Y-61526344D01*
X162985452Y-61476344D01*
X162985449Y-61476340D01*
X162983205Y-61472047D01*
X162913481Y-61385327D01*
X162857158Y-61315276D01*
X162854126Y-61311505D01*
X162743382Y-61218580D01*
X162700029Y-61182202D01*
X162700025Y-61182199D01*
X162696323Y-61179093D01*
X162515806Y-61079853D01*
X162511192Y-61078389D01*
X162511189Y-61078388D01*
X162437819Y-61055114D01*
X162436435Y-61054675D01*
X162386685Y-61019057D01*
X162367372Y-60961000D01*
X162385873Y-60902679D01*
X162435121Y-60866370D01*
X162441498Y-60864484D01*
X162548682Y-60836664D01*
X162556554Y-60833892D01*
X162759054Y-60742673D01*
X162766354Y-60738610D01*
X162950575Y-60614585D01*
X162957102Y-60609337D01*
X163117793Y-60456046D01*
X163123330Y-60449787D01*
X163255898Y-60271609D01*
X163260306Y-60264500D01*
X163360960Y-60066529D01*
X163364102Y-60058791D01*
X163429961Y-59846686D01*
X163431754Y-59838532D01*
X163434271Y-59819544D01*
X163431851Y-59806427D01*
X163430567Y-59805205D01*
X163425250Y-59804000D01*
X160531282Y-59804000D01*
X160518728Y-59808079D01*
X160518265Y-59816693D01*
X115825500Y-59816693D01*
X115825500Y-59280456D01*
X160515729Y-59280456D01*
X160518149Y-59293573D01*
X160519433Y-59294795D01*
X160524750Y-59296000D01*
X161705320Y-59296000D01*
X161718005Y-59291878D01*
X161721000Y-59287757D01*
X161721000Y-58213626D01*
X161718342Y-58205447D01*
X162229000Y-58205447D01*
X162229000Y-59280320D01*
X162233122Y-59293005D01*
X162237243Y-59296000D01*
X163418718Y-59296000D01*
X163431272Y-59291921D01*
X163431735Y-59283307D01*
X163406374Y-59162438D01*
X163403971Y-59154425D01*
X163322392Y-58947855D01*
X163318683Y-58940382D01*
X163203464Y-58750508D01*
X163198544Y-58743761D01*
X163052985Y-58576019D01*
X163046991Y-58570190D01*
X162875261Y-58429380D01*
X162868359Y-58424637D01*
X162675360Y-58314775D01*
X162667770Y-58311268D01*
X162459014Y-58235493D01*
X162450938Y-58233314D01*
X162244431Y-58195971D01*
X162231212Y-58197770D01*
X162230843Y-58198124D01*
X162229000Y-58205447D01*
X161718342Y-58205447D01*
X161716878Y-58200941D01*
X161714432Y-58199163D01*
X161711134Y-58198783D01*
X161624520Y-58206132D01*
X161616295Y-58207538D01*
X161401320Y-58263335D01*
X161393446Y-58266108D01*
X161190946Y-58357327D01*
X161183646Y-58361390D01*
X160999425Y-58485415D01*
X160992898Y-58490663D01*
X160832207Y-58643954D01*
X160826670Y-58650213D01*
X160694102Y-58828391D01*
X160689694Y-58835500D01*
X160589040Y-59033471D01*
X160585898Y-59041209D01*
X160520039Y-59253314D01*
X160518246Y-59261468D01*
X160515729Y-59280456D01*
X115825500Y-59280456D01*
X115825500Y-58966742D01*
X115810364Y-58866065D01*
X115797624Y-58839533D01*
X115754937Y-58750639D01*
X115751735Y-58743971D01*
X115659798Y-58644514D01*
X115609700Y-58615415D01*
X115549083Y-58580205D01*
X115549080Y-58580204D01*
X115542681Y-58576487D01*
X115486803Y-58563535D01*
X115431754Y-58550775D01*
X115431751Y-58550775D01*
X115426252Y-58549500D01*
X113841742Y-58549500D01*
X113805303Y-58554978D01*
X113748386Y-58563535D01*
X113748384Y-58563536D01*
X113741065Y-58564636D01*
X113734394Y-58567839D01*
X113734392Y-58567840D01*
X113625639Y-58620063D01*
X113618971Y-58623265D01*
X113519514Y-58715202D01*
X113515797Y-58721602D01*
X113455205Y-58825917D01*
X113455204Y-58825920D01*
X113451487Y-58832319D01*
X113424500Y-58948748D01*
X110700000Y-58948748D01*
X110700000Y-56764000D01*
X110718907Y-56705809D01*
X110768407Y-56669845D01*
X110799000Y-56665000D01*
X165701000Y-56665000D01*
X165759191Y-56683907D01*
G37*
%TD.AperFunction*%
%TD*%
M02*
