M48
; DRILL file {KiCad 5.99.0-unknown-5a832fc337~130~ubuntu20.04.1} date Sun Jun 20 17:00:04 2021
; FORMAT={-:-/ absolute / inch / decimal}
; #@! TF.CreationDate,2021-06-20T17:00:04+02:00
; #@! TF.GenerationSoftware,Kicad,Pcbnew,5.99.0-unknown-5a832fc337~130~ubuntu20.04.1
; #@! TF.FileFunction,Plated,1,2,PTH
FMAT,2
INCH
; #@! TA.AperFunction,Plated,PTH,ViaDrill
T1C0.0118
; #@! TA.AperFunction,Plated,PTH,ViaDrill
T2C0.0157
; #@! TA.AperFunction,Plated,PTH,ComponentDrill
T3C0.0374
; #@! TA.AperFunction,Plated,PTH,ComponentDrill
T4C0.0394
%
G90
G05
T1
X4.9228Y-2.6575
X4.9649Y-2.2757
X5.2087Y-3.4711
X5.2249Y-2.3457
X5.4337Y-2.3319
X5.5118Y-3.0459
X5.8907Y-2.4819
X5.937Y-2.4317
X5.946Y-2.3319
X6.1024Y-2.874
X6.1063Y-2.937
X6.1772Y-2.3136
X6.1772Y-2.4567
T2
X4.5Y-3.475
X4.6929Y-2.9081
X4.7913Y-3.3031
X4.811Y-2.9081
T3
X6.377Y-2.3445
X6.377Y-2.4429
X6.377Y-2.5413
X6.377Y-2.6398
X6.377Y-2.8976
X6.377Y-2.9961
X6.377Y-3.0945
X6.377Y-3.1929
T4
X4.5128Y-2.3465
X4.5128Y-2.4449
X6.373Y-3.4862
X6.373Y-3.5846
T0
M30
