%TF.GenerationSoftware,KiCad,Pcbnew,5.99.0-unknown-1f4a56005e~130~ubuntu20.04.1*%
%TF.CreationDate,2021-06-26T22:45:04+02:00*%
%TF.ProjectId,LED-Modul,4c45442d-4d6f-4647-956c-2e6b69636164,rev?*%
%TF.SameCoordinates,Original*%
%TF.FileFunction,Copper,L2,Bot*%
%TF.FilePolarity,Positive*%
%FSLAX46Y46*%
G04 Gerber Fmt 4.6, Leading zero omitted, Abs format (unit mm)*
G04 Created by KiCad (PCBNEW 5.99.0-unknown-1f4a56005e~130~ubuntu20.04.1) date 2021-06-26 22:45:04*
%MOMM*%
%LPD*%
G01*
G04 APERTURE LIST*
G04 Aperture macros list*
%AMRoundRect*
0 Rectangle with rounded corners*
0 $1 Rounding radius*
0 $2 $3 $4 $5 $6 $7 $8 $9 X,Y pos of 4 corners*
0 Add a 4 corners polygon primitive as box body*
4,1,4,$2,$3,$4,$5,$6,$7,$8,$9,$2,$3,0*
0 Add four circle primitives for the rounded corners*
1,1,$1+$1,$2,$3*
1,1,$1+$1,$4,$5*
1,1,$1+$1,$6,$7*
1,1,$1+$1,$8,$9*
0 Add four rect primitives between the rounded corners*
20,1,$1+$1,$2,$3,$4,$5,0*
20,1,$1+$1,$4,$5,$6,$7,0*
20,1,$1+$1,$6,$7,$8,$9,0*
20,1,$1+$1,$8,$9,$2,$3,0*%
G04 Aperture macros list end*
%TA.AperFunction,ComponentPad*%
%ADD10RoundRect,0.250000X-0.725000X0.600000X-0.725000X-0.600000X0.725000X-0.600000X0.725000X0.600000X0*%
%TD*%
%TA.AperFunction,ComponentPad*%
%ADD11O,1.950000X1.700000*%
%TD*%
%TA.AperFunction,ComponentPad*%
%ADD12RoundRect,0.250000X-0.750000X0.600000X-0.750000X-0.600000X0.750000X-0.600000X0.750000X0.600000X0*%
%TD*%
%TA.AperFunction,ComponentPad*%
%ADD13O,2.000000X1.700000*%
%TD*%
%TA.AperFunction,ComponentPad*%
%ADD14R,1.800000X1.275000*%
%TD*%
%TA.AperFunction,ComponentPad*%
%ADD15O,1.800000X1.275000*%
%TD*%
%TA.AperFunction,ViaPad*%
%ADD16C,0.700000*%
%TD*%
G04 APERTURE END LIST*
D10*
%TO.P,J2,1,Pin_1*%
%TO.N,GND*%
X172975000Y-105470000D03*
D11*
%TO.P,J2,2,Pin_2*%
%TO.N,Net-(J2-Pad2)*%
X172975000Y-107970000D03*
%TO.P,J2,3,Pin_3*%
%TO.N,Net-(J2-Pad3)*%
X172975000Y-110470000D03*
%TO.P,J2,4,Pin_4*%
%TO.N,3V3_MOD*%
X172975000Y-112970000D03*
%TD*%
D12*
%TO.P,J1,1,Pin_1*%
%TO.N,Net-(D1-Pad2)*%
X173000000Y-82000000D03*
D13*
%TO.P,J1,2,Pin_2*%
%TO.N,Net-(D1-Pad1)*%
X173000000Y-84500000D03*
%TD*%
D14*
%TO.P,U1,1*%
%TO.N,N/C*%
X168300000Y-90580000D03*
D15*
%TO.P,U1,2,SDA*%
%TO.N,Net-(J2-Pad2)*%
X168300000Y-92280000D03*
%TO.P,U1,3,GND*%
%TO.N,GND*%
X168300000Y-93980000D03*
%TO.P,U1,4,SCLK*%
%TO.N,Net-(J2-Pad3)*%
X168300000Y-95680000D03*
%TO.P,U1,5,VDD*%
%TO.N,3V3_MOD*%
X168300000Y-97380000D03*
%TD*%
D16*
%TO.N,GND*%
X146000000Y-97000000D03*
X146000000Y-95000000D03*
X144000000Y-95000000D03*
X144000000Y-97000000D03*
X146000000Y-99000000D03*
X144000000Y-99000000D03*
X144000000Y-93000000D03*
X146000000Y-93000000D03*
X148000000Y-97000000D03*
X148000000Y-95000000D03*
X142000000Y-95000000D03*
X142000000Y-97000000D03*
X142000000Y-99000000D03*
X148000000Y-99000000D03*
X148000000Y-93000000D03*
X142000000Y-93000000D03*
X147000000Y-94000000D03*
X147000000Y-96000000D03*
X147000000Y-98000000D03*
X143000000Y-98000000D03*
X143000000Y-96000000D03*
X143000000Y-94000000D03*
X140000000Y-98500000D03*
X145000000Y-98000000D03*
X150000000Y-98500000D03*
X150000000Y-93500000D03*
X145000000Y-94000000D03*
X140000000Y-93500000D03*
X150000000Y-91000000D03*
X145000000Y-90500000D03*
X145000000Y-96000000D03*
X145000000Y-101500000D03*
X150000000Y-101000000D03*
X140000000Y-101000000D03*
X140000000Y-91000000D03*
%TD*%
%TA.AperFunction,Conductor*%
%TO.N,GND*%
G36*
X176659191Y-75718907D02*
G01*
X176695155Y-75768407D01*
X176700000Y-75799000D01*
X176700000Y-116201000D01*
X176681093Y-116259191D01*
X176631593Y-116295155D01*
X176601000Y-116300000D01*
X124399000Y-116300000D01*
X124340809Y-116281093D01*
X124304845Y-116231593D01*
X124300000Y-116201000D01*
X124300000Y-112915801D01*
X171741825Y-112915801D01*
X171751569Y-113126330D01*
X171800947Y-113331218D01*
X171888178Y-113523072D01*
X172010114Y-113694970D01*
X172088390Y-113769903D01*
X172158951Y-113837451D01*
X172158955Y-113837454D01*
X172162355Y-113840709D01*
X172339408Y-113955031D01*
X172343769Y-113956789D01*
X172343770Y-113956789D01*
X172530522Y-114032052D01*
X172530525Y-114032053D01*
X172534885Y-114033810D01*
X172539499Y-114034711D01*
X172539502Y-114034712D01*
X172738237Y-114073523D01*
X172738244Y-114073524D01*
X172741732Y-114074205D01*
X172747764Y-114074500D01*
X173152406Y-114074500D01*
X173288099Y-114061554D01*
X173305106Y-114059931D01*
X173305107Y-114059931D01*
X173309801Y-114059483D01*
X173512033Y-114000155D01*
X173699397Y-113903656D01*
X173783680Y-113837451D01*
X173861420Y-113776386D01*
X173861422Y-113776384D01*
X173865133Y-113773469D01*
X174003261Y-113614290D01*
X174108797Y-113431864D01*
X174142258Y-113335507D01*
X174176391Y-113237217D01*
X174176392Y-113237211D01*
X174177934Y-113232772D01*
X174208175Y-113024199D01*
X174198431Y-112813670D01*
X174149053Y-112608782D01*
X174061822Y-112416928D01*
X173939886Y-112245030D01*
X173854838Y-112163614D01*
X173791049Y-112102549D01*
X173791045Y-112102546D01*
X173787645Y-112099291D01*
X173610592Y-111984969D01*
X173503977Y-111942002D01*
X173419478Y-111907948D01*
X173419475Y-111907947D01*
X173415115Y-111906190D01*
X173410501Y-111905289D01*
X173410498Y-111905288D01*
X173211763Y-111866477D01*
X173211756Y-111866476D01*
X173208268Y-111865795D01*
X173202236Y-111865500D01*
X172797594Y-111865500D01*
X172661901Y-111878446D01*
X172644894Y-111880069D01*
X172644893Y-111880069D01*
X172640199Y-111880517D01*
X172437967Y-111939845D01*
X172250603Y-112036344D01*
X172246895Y-112039257D01*
X172088580Y-112163614D01*
X172088578Y-112163616D01*
X172084867Y-112166531D01*
X171946739Y-112325710D01*
X171841203Y-112508136D01*
X171839659Y-112512583D01*
X171773609Y-112702783D01*
X171773608Y-112702789D01*
X171772066Y-112707228D01*
X171741825Y-112915801D01*
X124300000Y-112915801D01*
X124300000Y-110415801D01*
X171741825Y-110415801D01*
X171751569Y-110626330D01*
X171800947Y-110831218D01*
X171888178Y-111023072D01*
X172010114Y-111194970D01*
X172088390Y-111269903D01*
X172158951Y-111337451D01*
X172158955Y-111337454D01*
X172162355Y-111340709D01*
X172339408Y-111455031D01*
X172343769Y-111456789D01*
X172343770Y-111456789D01*
X172530522Y-111532052D01*
X172530525Y-111532053D01*
X172534885Y-111533810D01*
X172539499Y-111534711D01*
X172539502Y-111534712D01*
X172738237Y-111573523D01*
X172738244Y-111573524D01*
X172741732Y-111574205D01*
X172747764Y-111574500D01*
X173152406Y-111574500D01*
X173288099Y-111561554D01*
X173305106Y-111559931D01*
X173305107Y-111559931D01*
X173309801Y-111559483D01*
X173512033Y-111500155D01*
X173699397Y-111403656D01*
X173783680Y-111337451D01*
X173861420Y-111276386D01*
X173861422Y-111276384D01*
X173865133Y-111273469D01*
X174003261Y-111114290D01*
X174108797Y-110931864D01*
X174142258Y-110835507D01*
X174176391Y-110737217D01*
X174176392Y-110737211D01*
X174177934Y-110732772D01*
X174208175Y-110524199D01*
X174198431Y-110313670D01*
X174149053Y-110108782D01*
X174061822Y-109916928D01*
X173939886Y-109745030D01*
X173854838Y-109663614D01*
X173791049Y-109602549D01*
X173791045Y-109602546D01*
X173787645Y-109599291D01*
X173610592Y-109484969D01*
X173503977Y-109442002D01*
X173419478Y-109407948D01*
X173419475Y-109407947D01*
X173415115Y-109406190D01*
X173410501Y-109405289D01*
X173410498Y-109405288D01*
X173211763Y-109366477D01*
X173211756Y-109366476D01*
X173208268Y-109365795D01*
X173202236Y-109365500D01*
X172797594Y-109365500D01*
X172661901Y-109378446D01*
X172644894Y-109380069D01*
X172644893Y-109380069D01*
X172640199Y-109380517D01*
X172437967Y-109439845D01*
X172250603Y-109536344D01*
X172246895Y-109539257D01*
X172088580Y-109663614D01*
X172088578Y-109663616D01*
X172084867Y-109666531D01*
X171946739Y-109825710D01*
X171841203Y-110008136D01*
X171839659Y-110012583D01*
X171773609Y-110202783D01*
X171773608Y-110202789D01*
X171772066Y-110207228D01*
X171741825Y-110415801D01*
X124300000Y-110415801D01*
X124300000Y-105732243D01*
X171492000Y-105732243D01*
X171492000Y-106110019D01*
X171492332Y-106115731D01*
X171506799Y-106239817D01*
X171509427Y-106250934D01*
X171565795Y-106406226D01*
X171570918Y-106416457D01*
X171661498Y-106554614D01*
X171668831Y-106563384D01*
X171788769Y-106677002D01*
X171797917Y-106683846D01*
X171940780Y-106766828D01*
X171951259Y-106771384D01*
X172110022Y-106819468D01*
X172119946Y-106821393D01*
X172191781Y-106827804D01*
X172196182Y-106828000D01*
X172246690Y-106828000D01*
X172304881Y-106846907D01*
X172340845Y-106896407D01*
X172340845Y-106957593D01*
X172304881Y-107007093D01*
X172292019Y-107015013D01*
X172257671Y-107032704D01*
X172250603Y-107036344D01*
X172246895Y-107039257D01*
X172088580Y-107163614D01*
X172088578Y-107163616D01*
X172084867Y-107166531D01*
X171946739Y-107325710D01*
X171841203Y-107508136D01*
X171839659Y-107512583D01*
X171773609Y-107702783D01*
X171773608Y-107702789D01*
X171772066Y-107707228D01*
X171741825Y-107915801D01*
X171751569Y-108126330D01*
X171800947Y-108331218D01*
X171888178Y-108523072D01*
X172010114Y-108694970D01*
X172088390Y-108769903D01*
X172158951Y-108837451D01*
X172158955Y-108837454D01*
X172162355Y-108840709D01*
X172339408Y-108955031D01*
X172343769Y-108956789D01*
X172343770Y-108956789D01*
X172530522Y-109032052D01*
X172530525Y-109032053D01*
X172534885Y-109033810D01*
X172539499Y-109034711D01*
X172539502Y-109034712D01*
X172738237Y-109073523D01*
X172738244Y-109073524D01*
X172741732Y-109074205D01*
X172747764Y-109074500D01*
X173152406Y-109074500D01*
X173288099Y-109061554D01*
X173305106Y-109059931D01*
X173305107Y-109059931D01*
X173309801Y-109059483D01*
X173512033Y-109000155D01*
X173699397Y-108903656D01*
X173783680Y-108837451D01*
X173861420Y-108776386D01*
X173861422Y-108776384D01*
X173865133Y-108773469D01*
X174003261Y-108614290D01*
X174108797Y-108431864D01*
X174142258Y-108335507D01*
X174176391Y-108237217D01*
X174176392Y-108237211D01*
X174177934Y-108232772D01*
X174208175Y-108024199D01*
X174198431Y-107813670D01*
X174149053Y-107608782D01*
X174061822Y-107416928D01*
X173939886Y-107245030D01*
X173854838Y-107163614D01*
X173791049Y-107102549D01*
X173791045Y-107102546D01*
X173787645Y-107099291D01*
X173649620Y-107010169D01*
X173610991Y-106962720D01*
X173607629Y-106901627D01*
X173640818Y-106850226D01*
X173703322Y-106828000D01*
X173740019Y-106828000D01*
X173745731Y-106827668D01*
X173869817Y-106813201D01*
X173880934Y-106810573D01*
X174036226Y-106754205D01*
X174046457Y-106749082D01*
X174184614Y-106658502D01*
X174193384Y-106651169D01*
X174307002Y-106531231D01*
X174313846Y-106522083D01*
X174396828Y-106379220D01*
X174401384Y-106368741D01*
X174449468Y-106209978D01*
X174451393Y-106200054D01*
X174457804Y-106128219D01*
X174458000Y-106123818D01*
X174458000Y-105739680D01*
X174453878Y-105726995D01*
X174449757Y-105724000D01*
X171507680Y-105724000D01*
X171494995Y-105728122D01*
X171492000Y-105732243D01*
X124300000Y-105732243D01*
X124300000Y-104816182D01*
X171492000Y-104816182D01*
X171492000Y-105200320D01*
X171496122Y-105213005D01*
X171500243Y-105216000D01*
X172705320Y-105216000D01*
X172718005Y-105211878D01*
X172721000Y-105207757D01*
X172721000Y-104127680D01*
X172718583Y-104120243D01*
X173229000Y-104120243D01*
X173229000Y-105200320D01*
X173233122Y-105213005D01*
X173237243Y-105216000D01*
X174442320Y-105216000D01*
X174455005Y-105211878D01*
X174458000Y-105207757D01*
X174458000Y-104829981D01*
X174457668Y-104824269D01*
X174443201Y-104700183D01*
X174440573Y-104689066D01*
X174384205Y-104533774D01*
X174379082Y-104523543D01*
X174288502Y-104385386D01*
X174281169Y-104376616D01*
X174161231Y-104262998D01*
X174152083Y-104256154D01*
X174009220Y-104173172D01*
X173998741Y-104168616D01*
X173839978Y-104120532D01*
X173830054Y-104118607D01*
X173758219Y-104112196D01*
X173753818Y-104112000D01*
X173244680Y-104112000D01*
X173231995Y-104116122D01*
X173229000Y-104120243D01*
X172718583Y-104120243D01*
X172716878Y-104114995D01*
X172712757Y-104112000D01*
X172209981Y-104112000D01*
X172204269Y-104112332D01*
X172080183Y-104126799D01*
X172069066Y-104129427D01*
X171913774Y-104185795D01*
X171903543Y-104190918D01*
X171765386Y-104281498D01*
X171756616Y-104288831D01*
X171642998Y-104408769D01*
X171636154Y-104417917D01*
X171553172Y-104560780D01*
X171548616Y-104571259D01*
X171500532Y-104730022D01*
X171498607Y-104739946D01*
X171492196Y-104811781D01*
X171492000Y-104816182D01*
X124300000Y-104816182D01*
X124300000Y-94245873D01*
X166920721Y-94245873D01*
X166925434Y-94273299D01*
X166927772Y-94282026D01*
X166997505Y-94471044D01*
X167001398Y-94479206D01*
X167104402Y-94652340D01*
X167109723Y-94659665D01*
X167242554Y-94811129D01*
X167249109Y-94817349D01*
X167377206Y-94918332D01*
X167411199Y-94969206D01*
X167408797Y-95030344D01*
X167382158Y-95069652D01*
X167374758Y-95076314D01*
X167374752Y-95076321D01*
X167370899Y-95079790D01*
X167260675Y-95231500D01*
X167184402Y-95402812D01*
X167145414Y-95586238D01*
X167145414Y-95773762D01*
X167184402Y-95957188D01*
X167260675Y-96128500D01*
X167370899Y-96280210D01*
X167374748Y-96283676D01*
X167374752Y-96283680D01*
X167506400Y-96402216D01*
X167506405Y-96402220D01*
X167510257Y-96405688D01*
X167514752Y-96408283D01*
X167577072Y-96444264D01*
X167618013Y-96489733D01*
X167624409Y-96550584D01*
X167593816Y-96603572D01*
X167577072Y-96615736D01*
X167510257Y-96654312D01*
X167506405Y-96657780D01*
X167506400Y-96657784D01*
X167374752Y-96776320D01*
X167374748Y-96776324D01*
X167370899Y-96779790D01*
X167260675Y-96931500D01*
X167184402Y-97102812D01*
X167145414Y-97286238D01*
X167145414Y-97473762D01*
X167184402Y-97657188D01*
X167260675Y-97828500D01*
X167370899Y-97980210D01*
X167374748Y-97983676D01*
X167374752Y-97983680D01*
X167506400Y-98102216D01*
X167506405Y-98102220D01*
X167510257Y-98105688D01*
X167514752Y-98108283D01*
X167668163Y-98196856D01*
X167668168Y-98196858D01*
X167672657Y-98199450D01*
X167851003Y-98257398D01*
X167907025Y-98263286D01*
X167987347Y-98271729D01*
X167987354Y-98271729D01*
X167989929Y-98272000D01*
X168610071Y-98272000D01*
X168612646Y-98271729D01*
X168612653Y-98271729D01*
X168692975Y-98263286D01*
X168748997Y-98257398D01*
X168927343Y-98199450D01*
X168931832Y-98196858D01*
X168931837Y-98196856D01*
X169085248Y-98108283D01*
X169089743Y-98105688D01*
X169093595Y-98102220D01*
X169093600Y-98102216D01*
X169225248Y-97983680D01*
X169225252Y-97983676D01*
X169229101Y-97980210D01*
X169339325Y-97828500D01*
X169415598Y-97657188D01*
X169454586Y-97473762D01*
X169454586Y-97286238D01*
X169415598Y-97102812D01*
X169339325Y-96931500D01*
X169229101Y-96779790D01*
X169225252Y-96776324D01*
X169225248Y-96776320D01*
X169093600Y-96657784D01*
X169093595Y-96657780D01*
X169089743Y-96654312D01*
X169022928Y-96615736D01*
X168981987Y-96570267D01*
X168975591Y-96509416D01*
X169006184Y-96456428D01*
X169022928Y-96444264D01*
X169085248Y-96408283D01*
X169089743Y-96405688D01*
X169093595Y-96402220D01*
X169093600Y-96402216D01*
X169225248Y-96283680D01*
X169225252Y-96283676D01*
X169229101Y-96280210D01*
X169339325Y-96128500D01*
X169415598Y-95957188D01*
X169454586Y-95773762D01*
X169454586Y-95586238D01*
X169415598Y-95402812D01*
X169339325Y-95231500D01*
X169229101Y-95079790D01*
X169225241Y-95076314D01*
X169216929Y-95068830D01*
X169186335Y-95015843D01*
X169192729Y-94954992D01*
X169223937Y-94915933D01*
X169328698Y-94837704D01*
X169335416Y-94831655D01*
X169472174Y-94683710D01*
X169477673Y-94676545D01*
X169585182Y-94506153D01*
X169589285Y-94498100D01*
X169663941Y-94310972D01*
X169666506Y-94302314D01*
X169677036Y-94249379D01*
X169675468Y-94236134D01*
X169675436Y-94236099D01*
X169667392Y-94234000D01*
X166934361Y-94234000D01*
X166921676Y-94238122D01*
X166921237Y-94238726D01*
X166920721Y-94245873D01*
X124300000Y-94245873D01*
X124300000Y-93710621D01*
X166922964Y-93710621D01*
X166924532Y-93723866D01*
X166924564Y-93723901D01*
X166932608Y-93726000D01*
X169665639Y-93726000D01*
X169678324Y-93721878D01*
X169678763Y-93721274D01*
X169679279Y-93714127D01*
X169674566Y-93686701D01*
X169672228Y-93677974D01*
X169602495Y-93488956D01*
X169598602Y-93480794D01*
X169495598Y-93307660D01*
X169490277Y-93300335D01*
X169357446Y-93148871D01*
X169350891Y-93142651D01*
X169222794Y-93041668D01*
X169188801Y-92990794D01*
X169191203Y-92929656D01*
X169217842Y-92890348D01*
X169225242Y-92883686D01*
X169225248Y-92883679D01*
X169229101Y-92880210D01*
X169339325Y-92728500D01*
X169415598Y-92557188D01*
X169454586Y-92373762D01*
X169454586Y-92186238D01*
X169415598Y-92002812D01*
X169339325Y-91831500D01*
X169229101Y-91679790D01*
X169186125Y-91641094D01*
X169155532Y-91588106D01*
X169161928Y-91527256D01*
X169202869Y-91481786D01*
X169233055Y-91470425D01*
X169289741Y-91459150D01*
X169289743Y-91459149D01*
X169299306Y-91457247D01*
X169383494Y-91400994D01*
X169439747Y-91316806D01*
X169459500Y-91217500D01*
X169459500Y-89942500D01*
X169439747Y-89843194D01*
X169383494Y-89759006D01*
X169299306Y-89702753D01*
X169289743Y-89700851D01*
X169289741Y-89700850D01*
X169245632Y-89692077D01*
X169200000Y-89683000D01*
X167400000Y-89683000D01*
X167354368Y-89692077D01*
X167310259Y-89700850D01*
X167310257Y-89700851D01*
X167300694Y-89702753D01*
X167216506Y-89759006D01*
X167160253Y-89843194D01*
X167140500Y-89942500D01*
X167140500Y-91217500D01*
X167160253Y-91316806D01*
X167216506Y-91400994D01*
X167300694Y-91457247D01*
X167310257Y-91459149D01*
X167310259Y-91459150D01*
X167366945Y-91470425D01*
X167420329Y-91500322D01*
X167445945Y-91555887D01*
X167434008Y-91615896D01*
X167413875Y-91641094D01*
X167370899Y-91679790D01*
X167260675Y-91831500D01*
X167184402Y-92002812D01*
X167145414Y-92186238D01*
X167145414Y-92373762D01*
X167184402Y-92557188D01*
X167260675Y-92728500D01*
X167370899Y-92880210D01*
X167374756Y-92883683D01*
X167374758Y-92883685D01*
X167383071Y-92891170D01*
X167413665Y-92944157D01*
X167407271Y-93005008D01*
X167376063Y-93044067D01*
X167271302Y-93122296D01*
X167264584Y-93128345D01*
X167127826Y-93276290D01*
X167122327Y-93283455D01*
X167014818Y-93453847D01*
X167010715Y-93461900D01*
X166936059Y-93649028D01*
X166933494Y-93657686D01*
X166922964Y-93710621D01*
X124300000Y-93710621D01*
X124300000Y-84445801D01*
X171741825Y-84445801D01*
X171751569Y-84656330D01*
X171800947Y-84861218D01*
X171888178Y-85053072D01*
X172010114Y-85224970D01*
X172088390Y-85299903D01*
X172158951Y-85367451D01*
X172158955Y-85367454D01*
X172162355Y-85370709D01*
X172339408Y-85485031D01*
X172343769Y-85486789D01*
X172343770Y-85486789D01*
X172530522Y-85562052D01*
X172530525Y-85562053D01*
X172534885Y-85563810D01*
X172539499Y-85564711D01*
X172539502Y-85564712D01*
X172738237Y-85603523D01*
X172738244Y-85603524D01*
X172741732Y-85604205D01*
X172747764Y-85604500D01*
X173202406Y-85604500D01*
X173338099Y-85591554D01*
X173355106Y-85589931D01*
X173355107Y-85589931D01*
X173359801Y-85589483D01*
X173562033Y-85530155D01*
X173749397Y-85433656D01*
X173833680Y-85367451D01*
X173911420Y-85306386D01*
X173911422Y-85306384D01*
X173915133Y-85303469D01*
X174053261Y-85144290D01*
X174158797Y-84961864D01*
X174192258Y-84865507D01*
X174226391Y-84767217D01*
X174226392Y-84767211D01*
X174227934Y-84762772D01*
X174258175Y-84554199D01*
X174248431Y-84343670D01*
X174199053Y-84138782D01*
X174111822Y-83946928D01*
X173989886Y-83775030D01*
X173904838Y-83693614D01*
X173841049Y-83632549D01*
X173841045Y-83632546D01*
X173837645Y-83629291D01*
X173660592Y-83514969D01*
X173553977Y-83472002D01*
X173469478Y-83437948D01*
X173469475Y-83437947D01*
X173465115Y-83436190D01*
X173460501Y-83435289D01*
X173460498Y-83435288D01*
X173261763Y-83396477D01*
X173261756Y-83396476D01*
X173258268Y-83395795D01*
X173252236Y-83395500D01*
X172797594Y-83395500D01*
X172661901Y-83408446D01*
X172644894Y-83410069D01*
X172644893Y-83410069D01*
X172640199Y-83410517D01*
X172437967Y-83469845D01*
X172250603Y-83566344D01*
X172246895Y-83569257D01*
X172088580Y-83693614D01*
X172088578Y-83693616D01*
X172084867Y-83696531D01*
X171946739Y-83855710D01*
X171841203Y-84038136D01*
X171839659Y-84042583D01*
X171773609Y-84232783D01*
X171773608Y-84232789D01*
X171772066Y-84237228D01*
X171741825Y-84445801D01*
X124300000Y-84445801D01*
X124300000Y-81332712D01*
X171745500Y-81332712D01*
X171745500Y-82634914D01*
X171760979Y-82743000D01*
X171820771Y-82874504D01*
X171915067Y-82983941D01*
X172036289Y-83062513D01*
X172043044Y-83064533D01*
X172043048Y-83064535D01*
X172112667Y-83085355D01*
X172174691Y-83103904D01*
X172180037Y-83104301D01*
X172180041Y-83104302D01*
X172180595Y-83104343D01*
X172182712Y-83104500D01*
X173784914Y-83104500D01*
X173788405Y-83104000D01*
X173788406Y-83104000D01*
X173820943Y-83099340D01*
X173893000Y-83089021D01*
X173932394Y-83071109D01*
X174018080Y-83032150D01*
X174018081Y-83032149D01*
X174024504Y-83029229D01*
X174133941Y-82934933D01*
X174212513Y-82813711D01*
X174214533Y-82806956D01*
X174214535Y-82806952D01*
X174235749Y-82736016D01*
X174253904Y-82675309D01*
X174254500Y-82667288D01*
X174254500Y-81365086D01*
X174239021Y-81257000D01*
X174179229Y-81125496D01*
X174084933Y-81016059D01*
X173963711Y-80937487D01*
X173956956Y-80935467D01*
X173956952Y-80935465D01*
X173875074Y-80910979D01*
X173825309Y-80896096D01*
X173819963Y-80895699D01*
X173819959Y-80895698D01*
X173819405Y-80895657D01*
X173817288Y-80895500D01*
X172215086Y-80895500D01*
X172211595Y-80896000D01*
X172211594Y-80896000D01*
X172179057Y-80900660D01*
X172107000Y-80910979D01*
X172100578Y-80913899D01*
X172053147Y-80935465D01*
X171975496Y-80970771D01*
X171866059Y-81065067D01*
X171787487Y-81186289D01*
X171785467Y-81193044D01*
X171785465Y-81193048D01*
X171766340Y-81257000D01*
X171746096Y-81324691D01*
X171745500Y-81332712D01*
X124300000Y-81332712D01*
X124300000Y-75799000D01*
X124318907Y-75740809D01*
X124368407Y-75704845D01*
X124399000Y-75700000D01*
X176601000Y-75700000D01*
X176659191Y-75718907D01*
G37*
%TD.AperFunction*%
%TD*%
M02*
