%TF.GenerationSoftware,KiCad,Pcbnew,5.99.0-unknown-1f4a56005e~130~ubuntu20.04.1*%
%TF.CreationDate,2021-06-26T22:45:04+02:00*%
%TF.ProjectId,LED-Modul,4c45442d-4d6f-4647-956c-2e6b69636164,rev?*%
%TF.SameCoordinates,Original*%
%TF.FileFunction,Copper,L1,Top*%
%TF.FilePolarity,Positive*%
%FSLAX46Y46*%
G04 Gerber Fmt 4.6, Leading zero omitted, Abs format (unit mm)*
G04 Created by KiCad (PCBNEW 5.99.0-unknown-1f4a56005e~130~ubuntu20.04.1) date 2021-06-26 22:45:04*
%MOMM*%
%LPD*%
G01*
G04 APERTURE LIST*
G04 Aperture macros list*
%AMRoundRect*
0 Rectangle with rounded corners*
0 $1 Rounding radius*
0 $2 $3 $4 $5 $6 $7 $8 $9 X,Y pos of 4 corners*
0 Add a 4 corners polygon primitive as box body*
4,1,4,$2,$3,$4,$5,$6,$7,$8,$9,$2,$3,0*
0 Add four circle primitives for the rounded corners*
1,1,$1+$1,$2,$3*
1,1,$1+$1,$4,$5*
1,1,$1+$1,$6,$7*
1,1,$1+$1,$8,$9*
0 Add four rect primitives between the rounded corners*
20,1,$1+$1,$2,$3,$4,$5,0*
20,1,$1+$1,$4,$5,$6,$7,0*
20,1,$1+$1,$6,$7,$8,$9,0*
20,1,$1+$1,$8,$9,$2,$3,0*%
G04 Aperture macros list end*
%TA.AperFunction,SMDPad,CuDef*%
%ADD10RoundRect,0.237500X0.237500X-0.300000X0.237500X0.300000X-0.237500X0.300000X-0.237500X-0.300000X0*%
%TD*%
%TA.AperFunction,SMDPad,CuDef*%
%ADD11RoundRect,0.250000X-0.250000X-0.750000X0.250000X-0.750000X0.250000X0.750000X-0.250000X0.750000X0*%
%TD*%
%TA.AperFunction,ComponentPad*%
%ADD12RoundRect,0.250000X-0.725000X0.600000X-0.725000X-0.600000X0.725000X-0.600000X0.725000X0.600000X0*%
%TD*%
%TA.AperFunction,ComponentPad*%
%ADD13O,1.950000X1.700000*%
%TD*%
%TA.AperFunction,ComponentPad*%
%ADD14RoundRect,0.250000X-0.750000X0.600000X-0.750000X-0.600000X0.750000X-0.600000X0.750000X0.600000X0*%
%TD*%
%TA.AperFunction,ComponentPad*%
%ADD15O,2.000000X1.700000*%
%TD*%
%TA.AperFunction,ComponentPad*%
%ADD16R,1.800000X1.275000*%
%TD*%
%TA.AperFunction,ComponentPad*%
%ADD17O,1.800000X1.275000*%
%TD*%
%TA.AperFunction,ViaPad*%
%ADD18C,0.700000*%
%TD*%
%TA.AperFunction,Conductor*%
%ADD19C,0.500000*%
%TD*%
%TA.AperFunction,Conductor*%
%ADD20C,0.300000*%
%TD*%
G04 APERTURE END LIST*
D10*
%TO.P,REF\u002A\u002A,1*%
%TO.N,Net-(D1-Pad1)*%
X166300000Y-84112500D03*
%TO.P,REF\u002A\u002A,2*%
%TO.N,Net-(D1-Pad2)*%
X166300000Y-82387500D03*
%TD*%
D11*
%TO.P,REF\u002A\u002A,1*%
%TO.N,Net-(D1-Pad1)*%
X154000000Y-105000000D03*
%TD*%
%TO.P,REF\u002A\u002A,1*%
%TO.N,Net-(D1-Pad2)*%
X136000000Y-87000000D03*
%TD*%
D12*
%TO.P,J2,1,Pin_1*%
%TO.N,GND*%
X172975000Y-105470000D03*
D13*
%TO.P,J2,2,Pin_2*%
%TO.N,Net-(J2-Pad2)*%
X172975000Y-107970000D03*
%TO.P,J2,3,Pin_3*%
%TO.N,Net-(J2-Pad3)*%
X172975000Y-110470000D03*
%TO.P,J2,4,Pin_4*%
%TO.N,3V3_MOD*%
X172975000Y-112970000D03*
%TD*%
D14*
%TO.P,J1,1,Pin_1*%
%TO.N,Net-(D1-Pad2)*%
X173000000Y-82000000D03*
D15*
%TO.P,J1,2,Pin_2*%
%TO.N,Net-(D1-Pad1)*%
X173000000Y-84500000D03*
%TD*%
D16*
%TO.P,U1,1*%
%TO.N,N/C*%
X168300000Y-90580000D03*
D17*
%TO.P,U1,2,SDA*%
%TO.N,Net-(J2-Pad2)*%
X168300000Y-92280000D03*
%TO.P,U1,3,GND*%
%TO.N,GND*%
X168300000Y-93980000D03*
%TO.P,U1,4,SCLK*%
%TO.N,Net-(J2-Pad3)*%
X168300000Y-95680000D03*
%TO.P,U1,5,VDD*%
%TO.N,3V3_MOD*%
X168300000Y-97380000D03*
%TD*%
D18*
%TO.N,GND*%
X146000000Y-97000000D03*
X146000000Y-95000000D03*
X144000000Y-95000000D03*
X144000000Y-97000000D03*
X146000000Y-99000000D03*
X144000000Y-99000000D03*
X144000000Y-93000000D03*
X146000000Y-93000000D03*
X148000000Y-97000000D03*
X148000000Y-95000000D03*
X142000000Y-95000000D03*
X142000000Y-97000000D03*
X142000000Y-99000000D03*
X148000000Y-99000000D03*
X148000000Y-93000000D03*
X142000000Y-93000000D03*
X147000000Y-94000000D03*
X147000000Y-96000000D03*
X147000000Y-98000000D03*
X143000000Y-98000000D03*
X143000000Y-96000000D03*
X143000000Y-94000000D03*
X140000000Y-98500000D03*
X145000000Y-98000000D03*
X150000000Y-98500000D03*
X150000000Y-93500000D03*
X145000000Y-94000000D03*
X140000000Y-93500000D03*
X150000000Y-91000000D03*
X145000000Y-90500000D03*
X145000000Y-96000000D03*
X145000000Y-101500000D03*
X150000000Y-101000000D03*
X140000000Y-101000000D03*
X140000000Y-91000000D03*
%TD*%
D19*
%TO.N,Net-(D1-Pad2)*%
X141000000Y-82000000D02*
X173000000Y-82000000D01*
X141000000Y-82000000D02*
X136000000Y-87000000D01*
%TO.N,Net-(D1-Pad1)*%
X173000000Y-84500000D02*
X159500000Y-84500000D01*
X157000000Y-102000000D02*
X154000000Y-105000000D01*
X159500000Y-84500000D02*
X157000000Y-87000000D01*
X157000000Y-87000000D02*
X157000000Y-102000000D01*
D20*
%TO.N,Net-(J2-Pad2)*%
X170180000Y-106680000D02*
X170180000Y-104140000D01*
X172975000Y-107970000D02*
X171470000Y-107970000D01*
X175260000Y-93980000D02*
X173560000Y-92280000D01*
X171470000Y-107970000D02*
X170180000Y-106680000D01*
X170180000Y-104140000D02*
X175260000Y-99060000D01*
X175260000Y-99060000D02*
X175260000Y-93980000D01*
X173560000Y-92280000D02*
X168300000Y-92280000D01*
%TO.N,Net-(J2-Pad3)*%
X173990000Y-97790000D02*
X173990000Y-96520000D01*
X170180000Y-110490000D02*
X168910000Y-109220000D01*
X173990000Y-96520000D02*
X173150000Y-95680000D01*
X170200000Y-110470000D02*
X170180000Y-110490000D01*
X173150000Y-95680000D02*
X168300000Y-95680000D01*
X172975000Y-110470000D02*
X170200000Y-110470000D01*
X168910000Y-109220000D02*
X168910000Y-102870000D01*
X168910000Y-102870000D02*
X173990000Y-97790000D01*
%TO.N,3V3_MOD*%
X172975000Y-113350000D02*
X172350000Y-113350000D01*
X167640000Y-101600000D02*
X171450000Y-97790000D01*
X172975000Y-112970000D02*
X168850000Y-112970000D01*
X167640000Y-111760000D02*
X167640000Y-101600000D01*
X168850000Y-112970000D02*
X167640000Y-111760000D01*
X171450000Y-97790000D02*
X171040000Y-97380000D01*
X171040000Y-97380000D02*
X168300000Y-97380000D01*
%TD*%
%TA.AperFunction,Conductor*%
%TO.N,GND*%
G36*
X176659191Y-75718907D02*
G01*
X176695155Y-75768407D01*
X176700000Y-75799000D01*
X176700000Y-116201000D01*
X176681093Y-116259191D01*
X176631593Y-116295155D01*
X176601000Y-116300000D01*
X124399000Y-116300000D01*
X124340809Y-116281093D01*
X124304845Y-116231593D01*
X124300000Y-116201000D01*
X124300000Y-86182712D01*
X135245500Y-86182712D01*
X135245500Y-87784914D01*
X135260979Y-87893000D01*
X135320771Y-88024504D01*
X135415067Y-88133941D01*
X135536289Y-88212513D01*
X135543044Y-88214533D01*
X135543048Y-88214535D01*
X135612667Y-88235355D01*
X135674691Y-88253904D01*
X135680037Y-88254301D01*
X135680041Y-88254302D01*
X135680595Y-88254343D01*
X135682712Y-88254500D01*
X136284914Y-88254500D01*
X136288405Y-88254000D01*
X136288406Y-88254000D01*
X136320943Y-88249340D01*
X136393000Y-88239021D01*
X136432394Y-88221109D01*
X136518080Y-88182150D01*
X136518081Y-88182149D01*
X136524504Y-88179229D01*
X136633941Y-88084933D01*
X136712513Y-87963711D01*
X136714533Y-87956956D01*
X136714535Y-87956952D01*
X136735749Y-87886016D01*
X136753904Y-87825309D01*
X136754500Y-87817288D01*
X136754500Y-86999979D01*
X136773407Y-86941788D01*
X136783496Y-86929975D01*
X141179974Y-82533496D01*
X141234491Y-82505719D01*
X141249978Y-82504500D01*
X165471500Y-82504500D01*
X165529691Y-82523407D01*
X165565655Y-82572907D01*
X165570500Y-82603500D01*
X165570500Y-82722413D01*
X165585477Y-82826991D01*
X165588397Y-82833413D01*
X165636649Y-82939538D01*
X165643801Y-82955269D01*
X165735785Y-83062021D01*
X165854032Y-83138665D01*
X165903744Y-83153532D01*
X165954077Y-83188319D01*
X165974351Y-83246049D01*
X165956819Y-83304669D01*
X165916354Y-83338503D01*
X165870582Y-83359314D01*
X165857696Y-83365173D01*
X165794731Y-83393801D01*
X165687979Y-83485785D01*
X165611335Y-83604032D01*
X165609314Y-83610790D01*
X165609313Y-83610792D01*
X165583672Y-83696531D01*
X165570959Y-83739039D01*
X165570500Y-83745216D01*
X165570500Y-83896500D01*
X165551593Y-83954691D01*
X165502093Y-83990655D01*
X165471500Y-83995500D01*
X159566769Y-83995500D01*
X159554781Y-83994161D01*
X159554773Y-83994263D01*
X159547739Y-83993697D01*
X159540862Y-83992141D01*
X159489782Y-83995310D01*
X159483652Y-83995500D01*
X159465086Y-83995500D01*
X159461600Y-83995999D01*
X159461589Y-83996000D01*
X159452486Y-83997304D01*
X159444583Y-83998114D01*
X159403723Y-84000649D01*
X159396680Y-84001086D01*
X159386885Y-84004622D01*
X159367307Y-84009503D01*
X159357000Y-84010979D01*
X159313291Y-84030852D01*
X159305946Y-84033842D01*
X159260804Y-84050139D01*
X159252398Y-84056281D01*
X159234976Y-84066461D01*
X159225496Y-84070771D01*
X159189127Y-84102108D01*
X159182917Y-84107039D01*
X159178801Y-84110046D01*
X159173287Y-84114074D01*
X159173283Y-84114077D01*
X159170201Y-84116329D01*
X159157709Y-84128821D01*
X159152328Y-84133816D01*
X159116059Y-84165067D01*
X159112224Y-84170984D01*
X159112222Y-84170986D01*
X159111787Y-84171658D01*
X159098717Y-84187813D01*
X156690476Y-86596054D01*
X156681052Y-86603584D01*
X156681118Y-86603662D01*
X156675748Y-86608232D01*
X156669783Y-86611996D01*
X156638660Y-86647236D01*
X156635901Y-86650360D01*
X156631701Y-86654829D01*
X156618577Y-86667953D01*
X156610935Y-86678149D01*
X156605934Y-86684291D01*
X156574156Y-86720273D01*
X156571159Y-86726656D01*
X156571158Y-86726658D01*
X156569731Y-86729697D01*
X156559335Y-86746998D01*
X156557326Y-86749678D01*
X156557323Y-86749684D01*
X156553094Y-86755326D01*
X156550619Y-86761928D01*
X156550618Y-86761930D01*
X156536246Y-86800271D01*
X156533160Y-86807594D01*
X156512763Y-86851037D01*
X156511678Y-86858007D01*
X156511677Y-86858010D01*
X156511162Y-86861319D01*
X156506039Y-86880849D01*
X156502386Y-86890593D01*
X156501864Y-86897622D01*
X156498828Y-86938464D01*
X156497921Y-86946357D01*
X156496089Y-86958120D01*
X156496088Y-86958129D01*
X156495500Y-86961907D01*
X156495500Y-86979565D01*
X156495228Y-86986902D01*
X156491679Y-87034654D01*
X156493151Y-87041549D01*
X156493151Y-87041552D01*
X156493319Y-87042337D01*
X156495500Y-87063004D01*
X156495500Y-101750022D01*
X156476593Y-101808213D01*
X156466504Y-101820026D01*
X154532681Y-103753849D01*
X154478164Y-103781626D01*
X154434311Y-103778694D01*
X154375074Y-103760979D01*
X154325309Y-103746096D01*
X154319963Y-103745699D01*
X154319959Y-103745698D01*
X154319405Y-103745657D01*
X154317288Y-103745500D01*
X153715086Y-103745500D01*
X153711595Y-103746000D01*
X153711594Y-103746000D01*
X153679057Y-103750660D01*
X153607000Y-103760979D01*
X153475496Y-103820771D01*
X153366059Y-103915067D01*
X153287487Y-104036289D01*
X153285467Y-104043044D01*
X153285465Y-104043048D01*
X153273299Y-104083729D01*
X153246096Y-104174691D01*
X153245500Y-104182712D01*
X153245500Y-105784914D01*
X153260979Y-105893000D01*
X153320771Y-106024504D01*
X153376807Y-106089538D01*
X153410137Y-106128219D01*
X153415067Y-106133941D01*
X153536289Y-106212513D01*
X153543044Y-106214533D01*
X153543048Y-106214535D01*
X153612667Y-106235355D01*
X153674691Y-106253904D01*
X153680037Y-106254301D01*
X153680041Y-106254302D01*
X153680595Y-106254343D01*
X153682712Y-106254500D01*
X154284914Y-106254500D01*
X154288405Y-106254000D01*
X154288406Y-106254000D01*
X154320943Y-106249340D01*
X154393000Y-106239021D01*
X154432394Y-106221109D01*
X154518080Y-106182150D01*
X154518081Y-106182149D01*
X154524504Y-106179229D01*
X154633941Y-106084933D01*
X154712513Y-105963711D01*
X154714533Y-105956956D01*
X154714535Y-105956952D01*
X154735749Y-105886016D01*
X154753904Y-105825309D01*
X154754500Y-105817288D01*
X154754500Y-104999979D01*
X154773407Y-104941788D01*
X154783496Y-104929975D01*
X157309527Y-102403944D01*
X157318949Y-102396417D01*
X157318882Y-102396338D01*
X157324252Y-102391767D01*
X157330217Y-102388004D01*
X157364091Y-102349649D01*
X157368291Y-102345180D01*
X157381424Y-102332047D01*
X157383540Y-102329224D01*
X157389062Y-102321856D01*
X157394081Y-102315691D01*
X157421173Y-102285016D01*
X157421174Y-102285015D01*
X157425844Y-102279727D01*
X157430269Y-102270303D01*
X157440654Y-102253017D01*
X157446907Y-102244674D01*
X157463759Y-102199719D01*
X157466844Y-102192399D01*
X157484239Y-102155350D01*
X157484240Y-102155346D01*
X157487237Y-102148963D01*
X157488838Y-102138682D01*
X157493959Y-102119160D01*
X157495139Y-102116012D01*
X157497615Y-102109407D01*
X157501173Y-102061523D01*
X157502076Y-102053657D01*
X157504500Y-102038093D01*
X157504500Y-102020439D01*
X157504772Y-102013102D01*
X157507798Y-101972379D01*
X157508321Y-101965346D01*
X157506681Y-101957663D01*
X157504500Y-101936996D01*
X157504500Y-94245873D01*
X166920721Y-94245873D01*
X166925434Y-94273299D01*
X166927772Y-94282026D01*
X166997505Y-94471044D01*
X167001398Y-94479206D01*
X167104402Y-94652340D01*
X167109723Y-94659665D01*
X167242554Y-94811129D01*
X167249109Y-94817349D01*
X167377206Y-94918332D01*
X167411199Y-94969206D01*
X167408797Y-95030344D01*
X167382158Y-95069652D01*
X167374758Y-95076314D01*
X167374752Y-95076321D01*
X167370899Y-95079790D01*
X167260675Y-95231500D01*
X167258568Y-95236232D01*
X167258567Y-95236234D01*
X167198108Y-95372028D01*
X167184402Y-95402812D01*
X167145414Y-95586238D01*
X167145414Y-95773762D01*
X167184402Y-95957188D01*
X167186510Y-95961922D01*
X167186511Y-95961926D01*
X167258567Y-96123766D01*
X167260675Y-96128500D01*
X167370899Y-96280210D01*
X167374748Y-96283676D01*
X167374752Y-96283680D01*
X167506400Y-96402216D01*
X167506405Y-96402220D01*
X167510257Y-96405688D01*
X167544212Y-96425292D01*
X167577072Y-96444264D01*
X167618013Y-96489733D01*
X167624409Y-96550584D01*
X167593816Y-96603572D01*
X167577072Y-96615736D01*
X167510257Y-96654312D01*
X167506405Y-96657780D01*
X167506400Y-96657784D01*
X167374752Y-96776320D01*
X167374748Y-96776324D01*
X167370899Y-96779790D01*
X167260675Y-96931500D01*
X167258568Y-96936232D01*
X167258567Y-96936234D01*
X167198275Y-97071653D01*
X167184402Y-97102812D01*
X167145414Y-97286238D01*
X167145414Y-97473762D01*
X167184402Y-97657188D01*
X167186510Y-97661922D01*
X167186511Y-97661926D01*
X167244897Y-97793062D01*
X167260675Y-97828500D01*
X167370899Y-97980210D01*
X167374748Y-97983676D01*
X167374752Y-97983680D01*
X167506400Y-98102216D01*
X167506405Y-98102220D01*
X167510257Y-98105688D01*
X167514752Y-98108283D01*
X167668163Y-98196856D01*
X167668168Y-98196858D01*
X167672657Y-98199450D01*
X167851003Y-98257398D01*
X167907025Y-98263286D01*
X167987347Y-98271729D01*
X167987354Y-98271729D01*
X167989929Y-98272000D01*
X168610071Y-98272000D01*
X168612646Y-98271729D01*
X168612653Y-98271729D01*
X168692975Y-98263286D01*
X168748997Y-98257398D01*
X168927343Y-98199450D01*
X168931832Y-98196858D01*
X168931837Y-98196856D01*
X169085248Y-98108283D01*
X169089743Y-98105688D01*
X169093595Y-98102220D01*
X169093600Y-98102216D01*
X169225248Y-97983680D01*
X169225252Y-97983676D01*
X169229101Y-97980210D01*
X169339325Y-97828500D01*
X169340604Y-97829429D01*
X169380986Y-97793062D01*
X169421260Y-97784500D01*
X170644442Y-97784500D01*
X170702633Y-97803407D01*
X170738597Y-97852907D01*
X170738597Y-97914093D01*
X170714446Y-97953504D01*
X167331653Y-101336298D01*
X167331549Y-101336442D01*
X167331307Y-101336703D01*
X167308708Y-101359302D01*
X167305172Y-101366242D01*
X167305169Y-101366246D01*
X167297614Y-101381073D01*
X167289497Y-101394319D01*
X167279714Y-101407784D01*
X167279712Y-101407787D01*
X167275133Y-101414090D01*
X167272726Y-101421499D01*
X167267582Y-101437331D01*
X167261636Y-101451684D01*
X167254080Y-101466514D01*
X167250542Y-101473458D01*
X167249324Y-101481150D01*
X167249323Y-101481152D01*
X167246719Y-101497595D01*
X167243093Y-101512700D01*
X167235542Y-101535940D01*
X167235542Y-101567897D01*
X167235528Y-101568255D01*
X167235500Y-101568431D01*
X167235500Y-111791569D01*
X167235528Y-111791745D01*
X167235542Y-111792103D01*
X167235542Y-111824060D01*
X167237949Y-111831467D01*
X167243093Y-111847300D01*
X167246719Y-111862405D01*
X167250542Y-111886542D01*
X167254080Y-111893485D01*
X167254080Y-111893486D01*
X167261636Y-111908316D01*
X167267581Y-111922668D01*
X167275133Y-111945910D01*
X167279712Y-111952213D01*
X167279714Y-111952216D01*
X167289497Y-111965681D01*
X167297614Y-111978927D01*
X167305169Y-111993754D01*
X167305172Y-111993758D01*
X167308708Y-112000698D01*
X167331307Y-112023297D01*
X167331549Y-112023558D01*
X167331653Y-112023702D01*
X168586298Y-113278347D01*
X168586442Y-113278451D01*
X168586703Y-113278693D01*
X168609302Y-113301292D01*
X168616242Y-113304828D01*
X168616246Y-113304831D01*
X168631073Y-113312386D01*
X168644319Y-113320503D01*
X168657784Y-113330286D01*
X168657787Y-113330288D01*
X168664090Y-113334867D01*
X168687331Y-113342418D01*
X168701684Y-113348364D01*
X168716514Y-113355920D01*
X168716515Y-113355920D01*
X168723458Y-113359458D01*
X168731150Y-113360676D01*
X168731152Y-113360677D01*
X168747595Y-113363281D01*
X168762700Y-113366907D01*
X168785940Y-113374458D01*
X168817897Y-113374458D01*
X168818255Y-113374472D01*
X168818431Y-113374500D01*
X171756886Y-113374500D01*
X171815077Y-113393407D01*
X171847008Y-113432524D01*
X171888178Y-113523072D01*
X172010114Y-113694970D01*
X172088390Y-113769903D01*
X172158951Y-113837451D01*
X172158955Y-113837454D01*
X172162355Y-113840709D01*
X172339408Y-113955031D01*
X172343769Y-113956789D01*
X172343770Y-113956789D01*
X172530522Y-114032052D01*
X172530525Y-114032053D01*
X172534885Y-114033810D01*
X172539499Y-114034711D01*
X172539502Y-114034712D01*
X172738237Y-114073523D01*
X172738244Y-114073524D01*
X172741732Y-114074205D01*
X172747764Y-114074500D01*
X173152406Y-114074500D01*
X173288099Y-114061554D01*
X173305106Y-114059931D01*
X173305107Y-114059931D01*
X173309801Y-114059483D01*
X173512033Y-114000155D01*
X173699397Y-113903656D01*
X173783680Y-113837451D01*
X173861420Y-113776386D01*
X173861422Y-113776384D01*
X173865133Y-113773469D01*
X174003261Y-113614290D01*
X174108797Y-113431864D01*
X174139858Y-113342418D01*
X174176391Y-113237217D01*
X174176392Y-113237211D01*
X174177934Y-113232772D01*
X174208175Y-113024199D01*
X174198431Y-112813670D01*
X174149053Y-112608782D01*
X174061822Y-112416928D01*
X173939886Y-112245030D01*
X173854838Y-112163614D01*
X173791049Y-112102549D01*
X173791045Y-112102546D01*
X173787645Y-112099291D01*
X173610592Y-111984969D01*
X173595600Y-111978927D01*
X173419478Y-111907948D01*
X173419475Y-111907947D01*
X173415115Y-111906190D01*
X173410501Y-111905289D01*
X173410498Y-111905288D01*
X173211763Y-111866477D01*
X173211756Y-111866476D01*
X173208268Y-111865795D01*
X173202236Y-111865500D01*
X172797594Y-111865500D01*
X172661901Y-111878446D01*
X172644894Y-111880069D01*
X172644893Y-111880069D01*
X172640199Y-111880517D01*
X172437967Y-111939845D01*
X172250603Y-112036344D01*
X172246895Y-112039257D01*
X172088580Y-112163614D01*
X172088578Y-112163616D01*
X172084867Y-112166531D01*
X171946739Y-112325710D01*
X171841203Y-112508136D01*
X171841023Y-112508655D01*
X171800472Y-112552751D01*
X171751875Y-112565500D01*
X169058557Y-112565500D01*
X169000366Y-112546593D01*
X168988553Y-112536504D01*
X168073496Y-111621447D01*
X168045719Y-111566930D01*
X168044500Y-111551443D01*
X168044500Y-101808557D01*
X168063407Y-101750366D01*
X168073496Y-101738553D01*
X171708191Y-98103859D01*
X171720004Y-98093770D01*
X171721723Y-98092521D01*
X171739561Y-98079561D01*
X171744139Y-98073260D01*
X171744141Y-98073258D01*
X171810289Y-97982211D01*
X171814867Y-97975910D01*
X171854458Y-97854060D01*
X171854458Y-97725940D01*
X171814867Y-97604090D01*
X171787127Y-97565910D01*
X171758348Y-97526298D01*
X171758345Y-97526295D01*
X171739560Y-97500440D01*
X171720001Y-97486230D01*
X171708198Y-97476148D01*
X171304083Y-97072034D01*
X171303702Y-97071653D01*
X171303556Y-97071547D01*
X171303303Y-97071313D01*
X171280698Y-97048708D01*
X171273758Y-97045172D01*
X171273754Y-97045169D01*
X171258927Y-97037614D01*
X171245681Y-97029497D01*
X171232216Y-97019714D01*
X171232213Y-97019712D01*
X171225910Y-97015133D01*
X171202668Y-97007581D01*
X171188316Y-97001636D01*
X171173486Y-96994080D01*
X171173485Y-96994080D01*
X171166542Y-96990542D01*
X171158850Y-96989324D01*
X171158848Y-96989323D01*
X171142405Y-96986719D01*
X171127300Y-96983093D01*
X171126120Y-96982710D01*
X171104060Y-96975542D01*
X171072103Y-96975542D01*
X171071745Y-96975528D01*
X171071569Y-96975500D01*
X169421260Y-96975500D01*
X169363069Y-96956593D01*
X169340022Y-96930994D01*
X169339325Y-96931500D01*
X169232147Y-96783983D01*
X169229101Y-96779790D01*
X169225252Y-96776324D01*
X169225248Y-96776320D01*
X169093600Y-96657784D01*
X169093595Y-96657780D01*
X169089743Y-96654312D01*
X169022928Y-96615736D01*
X168981987Y-96570267D01*
X168975591Y-96509416D01*
X169006184Y-96456428D01*
X169022928Y-96444264D01*
X169055788Y-96425292D01*
X169089743Y-96405688D01*
X169093595Y-96402220D01*
X169093600Y-96402216D01*
X169225248Y-96283680D01*
X169225252Y-96283676D01*
X169229101Y-96280210D01*
X169339325Y-96128500D01*
X169340604Y-96129429D01*
X169380986Y-96093062D01*
X169421260Y-96084500D01*
X172941443Y-96084500D01*
X172999634Y-96103407D01*
X173011447Y-96113496D01*
X173556504Y-96658553D01*
X173584281Y-96713070D01*
X173585500Y-96728557D01*
X173585500Y-97581443D01*
X173566593Y-97639634D01*
X173556504Y-97651447D01*
X168601653Y-102606298D01*
X168601549Y-102606442D01*
X168601307Y-102606703D01*
X168578708Y-102629302D01*
X168575172Y-102636242D01*
X168575169Y-102636246D01*
X168567614Y-102651073D01*
X168559497Y-102664319D01*
X168549714Y-102677784D01*
X168549712Y-102677787D01*
X168545133Y-102684090D01*
X168542726Y-102691499D01*
X168537582Y-102707331D01*
X168531636Y-102721684D01*
X168524080Y-102736514D01*
X168520542Y-102743458D01*
X168519324Y-102751150D01*
X168519323Y-102751152D01*
X168516719Y-102767595D01*
X168513093Y-102782700D01*
X168505542Y-102805940D01*
X168505542Y-102837897D01*
X168505528Y-102838255D01*
X168505500Y-102838431D01*
X168505500Y-109251569D01*
X168505528Y-109251745D01*
X168505542Y-109252103D01*
X168505542Y-109284060D01*
X168507949Y-109291467D01*
X168513093Y-109307300D01*
X168516719Y-109322405D01*
X168520542Y-109346542D01*
X168524080Y-109353485D01*
X168524080Y-109353486D01*
X168531636Y-109368316D01*
X168537581Y-109382668D01*
X168545133Y-109405910D01*
X168549712Y-109412213D01*
X168549714Y-109412216D01*
X168559497Y-109425681D01*
X168567614Y-109438927D01*
X168575169Y-109453754D01*
X168575172Y-109453758D01*
X168578708Y-109460698D01*
X168601307Y-109483297D01*
X168601549Y-109483558D01*
X168601653Y-109483702D01*
X169866147Y-110748196D01*
X169876231Y-110760003D01*
X169890440Y-110779560D01*
X169994090Y-110854867D01*
X170115940Y-110894458D01*
X170244060Y-110894458D01*
X170290575Y-110879345D01*
X170321165Y-110874500D01*
X171756886Y-110874500D01*
X171815077Y-110893407D01*
X171847008Y-110932524D01*
X171888178Y-111023072D01*
X172010114Y-111194970D01*
X172088390Y-111269903D01*
X172158951Y-111337451D01*
X172158955Y-111337454D01*
X172162355Y-111340709D01*
X172339408Y-111455031D01*
X172343769Y-111456789D01*
X172343770Y-111456789D01*
X172530522Y-111532052D01*
X172530525Y-111532053D01*
X172534885Y-111533810D01*
X172539499Y-111534711D01*
X172539502Y-111534712D01*
X172738237Y-111573523D01*
X172738244Y-111573524D01*
X172741732Y-111574205D01*
X172747764Y-111574500D01*
X173152406Y-111574500D01*
X173288099Y-111561554D01*
X173305106Y-111559931D01*
X173305107Y-111559931D01*
X173309801Y-111559483D01*
X173512033Y-111500155D01*
X173699397Y-111403656D01*
X173783680Y-111337451D01*
X173861420Y-111276386D01*
X173861422Y-111276384D01*
X173865133Y-111273469D01*
X174003261Y-111114290D01*
X174108797Y-110931864D01*
X174160095Y-110784143D01*
X174176391Y-110737217D01*
X174176392Y-110737211D01*
X174177934Y-110732772D01*
X174208175Y-110524199D01*
X174198431Y-110313670D01*
X174149053Y-110108782D01*
X174061822Y-109916928D01*
X173939886Y-109745030D01*
X173854838Y-109663614D01*
X173791049Y-109602549D01*
X173791045Y-109602546D01*
X173787645Y-109599291D01*
X173610592Y-109484969D01*
X173550368Y-109460698D01*
X173419478Y-109407948D01*
X173419475Y-109407947D01*
X173415115Y-109406190D01*
X173410501Y-109405289D01*
X173410498Y-109405288D01*
X173211763Y-109366477D01*
X173211756Y-109366476D01*
X173208268Y-109365795D01*
X173202236Y-109365500D01*
X172797594Y-109365500D01*
X172661901Y-109378446D01*
X172644894Y-109380069D01*
X172644893Y-109380069D01*
X172640199Y-109380517D01*
X172437967Y-109439845D01*
X172250603Y-109536344D01*
X172246895Y-109539257D01*
X172088580Y-109663614D01*
X172088578Y-109663616D01*
X172084867Y-109666531D01*
X171946739Y-109825710D01*
X171841203Y-110008136D01*
X171841023Y-110008655D01*
X171800472Y-110052751D01*
X171751875Y-110065500D01*
X170368557Y-110065500D01*
X170310366Y-110046593D01*
X170298553Y-110036504D01*
X169343496Y-109081447D01*
X169315719Y-109026930D01*
X169314500Y-109011443D01*
X169314500Y-103078557D01*
X169333407Y-103020366D01*
X169343496Y-103008553D01*
X174298347Y-98053702D01*
X174298451Y-98053558D01*
X174298693Y-98053297D01*
X174321292Y-98030698D01*
X174324828Y-98023758D01*
X174324831Y-98023754D01*
X174332386Y-98008927D01*
X174340503Y-97995681D01*
X174350286Y-97982216D01*
X174350289Y-97982211D01*
X174354867Y-97975910D01*
X174362419Y-97952668D01*
X174368364Y-97938316D01*
X174375920Y-97923486D01*
X174375920Y-97923485D01*
X174379458Y-97916542D01*
X174383281Y-97892405D01*
X174386907Y-97877300D01*
X174392051Y-97861467D01*
X174394458Y-97854060D01*
X174394458Y-97822103D01*
X174394472Y-97821745D01*
X174394500Y-97821569D01*
X174394500Y-96488431D01*
X174394472Y-96488255D01*
X174394458Y-96487897D01*
X174394458Y-96455940D01*
X174386907Y-96432700D01*
X174383281Y-96417595D01*
X174380677Y-96401152D01*
X174380676Y-96401150D01*
X174379458Y-96393458D01*
X174375920Y-96386514D01*
X174368364Y-96371684D01*
X174362418Y-96357331D01*
X174357274Y-96341499D01*
X174354867Y-96334090D01*
X174350288Y-96327787D01*
X174350286Y-96327784D01*
X174340503Y-96314319D01*
X174332386Y-96301073D01*
X174324831Y-96286246D01*
X174324828Y-96286242D01*
X174321292Y-96279302D01*
X174298693Y-96256703D01*
X174298451Y-96256442D01*
X174298347Y-96256298D01*
X173413702Y-95371653D01*
X173413558Y-95371549D01*
X173413297Y-95371307D01*
X173390698Y-95348708D01*
X173383758Y-95345172D01*
X173383754Y-95345169D01*
X173368927Y-95337614D01*
X173355681Y-95329497D01*
X173342216Y-95319714D01*
X173342213Y-95319712D01*
X173335910Y-95315133D01*
X173312668Y-95307581D01*
X173298316Y-95301636D01*
X173283486Y-95294080D01*
X173283485Y-95294080D01*
X173276542Y-95290542D01*
X173268850Y-95289324D01*
X173268848Y-95289323D01*
X173252405Y-95286719D01*
X173237300Y-95283093D01*
X173236120Y-95282710D01*
X173214060Y-95275542D01*
X173182103Y-95275542D01*
X173181745Y-95275528D01*
X173181569Y-95275500D01*
X169421260Y-95275500D01*
X169363069Y-95256593D01*
X169340022Y-95230994D01*
X169339325Y-95231500D01*
X169232151Y-95083988D01*
X169229101Y-95079790D01*
X169225241Y-95076314D01*
X169216929Y-95068830D01*
X169186335Y-95015843D01*
X169192729Y-94954992D01*
X169223937Y-94915933D01*
X169328698Y-94837704D01*
X169335416Y-94831655D01*
X169472174Y-94683710D01*
X169477673Y-94676545D01*
X169585182Y-94506153D01*
X169589285Y-94498100D01*
X169663941Y-94310972D01*
X169666506Y-94302314D01*
X169677036Y-94249379D01*
X169675468Y-94236134D01*
X169675436Y-94236099D01*
X169667392Y-94234000D01*
X166934361Y-94234000D01*
X166921676Y-94238122D01*
X166921237Y-94238726D01*
X166920721Y-94245873D01*
X157504500Y-94245873D01*
X157504500Y-93710621D01*
X166922964Y-93710621D01*
X166924532Y-93723866D01*
X166924564Y-93723901D01*
X166932608Y-93726000D01*
X169665639Y-93726000D01*
X169678324Y-93721878D01*
X169678763Y-93721274D01*
X169679279Y-93714127D01*
X169674566Y-93686701D01*
X169672228Y-93677974D01*
X169602495Y-93488956D01*
X169598602Y-93480794D01*
X169495598Y-93307660D01*
X169490277Y-93300335D01*
X169357446Y-93148871D01*
X169350891Y-93142651D01*
X169222794Y-93041668D01*
X169188801Y-92990794D01*
X169191203Y-92929656D01*
X169217842Y-92890348D01*
X169225242Y-92883686D01*
X169225248Y-92883679D01*
X169229101Y-92880210D01*
X169339325Y-92728500D01*
X169340604Y-92729429D01*
X169380986Y-92693062D01*
X169421260Y-92684500D01*
X173351443Y-92684500D01*
X173409634Y-92703407D01*
X173421447Y-92713496D01*
X174826504Y-94118553D01*
X174854281Y-94173070D01*
X174855500Y-94188557D01*
X174855500Y-98851443D01*
X174836593Y-98909634D01*
X174826504Y-98921447D01*
X169871653Y-103876298D01*
X169871549Y-103876442D01*
X169871307Y-103876703D01*
X169848708Y-103899302D01*
X169845172Y-103906242D01*
X169845169Y-103906246D01*
X169837614Y-103921073D01*
X169829497Y-103934319D01*
X169819714Y-103947784D01*
X169819712Y-103947787D01*
X169815133Y-103954090D01*
X169812726Y-103961499D01*
X169807582Y-103977331D01*
X169801636Y-103991684D01*
X169794080Y-104006514D01*
X169790542Y-104013458D01*
X169789324Y-104021150D01*
X169789323Y-104021152D01*
X169786719Y-104037595D01*
X169783093Y-104052700D01*
X169775542Y-104075940D01*
X169775542Y-104107897D01*
X169775528Y-104108255D01*
X169775500Y-104108431D01*
X169775500Y-106711569D01*
X169775528Y-106711745D01*
X169775542Y-106712103D01*
X169775542Y-106744060D01*
X169782710Y-106766120D01*
X169783093Y-106767300D01*
X169786719Y-106782405D01*
X169790542Y-106806542D01*
X169794080Y-106813485D01*
X169794080Y-106813486D01*
X169801636Y-106828316D01*
X169807581Y-106842668D01*
X169815133Y-106865910D01*
X169819712Y-106872213D01*
X169819714Y-106872216D01*
X169829497Y-106885681D01*
X169837614Y-106898927D01*
X169845169Y-106913754D01*
X169845172Y-106913758D01*
X169848708Y-106920698D01*
X169871307Y-106943297D01*
X169871549Y-106943558D01*
X169871653Y-106943702D01*
X171206298Y-108278347D01*
X171206442Y-108278451D01*
X171206703Y-108278693D01*
X171229302Y-108301292D01*
X171236242Y-108304828D01*
X171236246Y-108304831D01*
X171251073Y-108312386D01*
X171264319Y-108320503D01*
X171277784Y-108330286D01*
X171277787Y-108330288D01*
X171284090Y-108334867D01*
X171307331Y-108342418D01*
X171321684Y-108348364D01*
X171336514Y-108355920D01*
X171336515Y-108355920D01*
X171343458Y-108359458D01*
X171351150Y-108360676D01*
X171351152Y-108360677D01*
X171367595Y-108363281D01*
X171382700Y-108366907D01*
X171405940Y-108374458D01*
X171437897Y-108374458D01*
X171438255Y-108374472D01*
X171438431Y-108374500D01*
X171756886Y-108374500D01*
X171815077Y-108393407D01*
X171847008Y-108432524D01*
X171888178Y-108523072D01*
X172010114Y-108694970D01*
X172088390Y-108769903D01*
X172158951Y-108837451D01*
X172158955Y-108837454D01*
X172162355Y-108840709D01*
X172339408Y-108955031D01*
X172343769Y-108956789D01*
X172343770Y-108956789D01*
X172530522Y-109032052D01*
X172530525Y-109032053D01*
X172534885Y-109033810D01*
X172539499Y-109034711D01*
X172539502Y-109034712D01*
X172738237Y-109073523D01*
X172738244Y-109073524D01*
X172741732Y-109074205D01*
X172747764Y-109074500D01*
X173152406Y-109074500D01*
X173288099Y-109061554D01*
X173305106Y-109059931D01*
X173305107Y-109059931D01*
X173309801Y-109059483D01*
X173512033Y-109000155D01*
X173699397Y-108903656D01*
X173783680Y-108837451D01*
X173861420Y-108776386D01*
X173861422Y-108776384D01*
X173865133Y-108773469D01*
X174003261Y-108614290D01*
X174108797Y-108431864D01*
X174139858Y-108342418D01*
X174176391Y-108237217D01*
X174176392Y-108237211D01*
X174177934Y-108232772D01*
X174208175Y-108024199D01*
X174198431Y-107813670D01*
X174149053Y-107608782D01*
X174061822Y-107416928D01*
X173939886Y-107245030D01*
X173854838Y-107163614D01*
X173791049Y-107102549D01*
X173791045Y-107102546D01*
X173787645Y-107099291D01*
X173649620Y-107010169D01*
X173610991Y-106962720D01*
X173607629Y-106901627D01*
X173640818Y-106850226D01*
X173703322Y-106828000D01*
X173740019Y-106828000D01*
X173745731Y-106827668D01*
X173869817Y-106813201D01*
X173880934Y-106810573D01*
X174036226Y-106754205D01*
X174046457Y-106749082D01*
X174184614Y-106658502D01*
X174193384Y-106651169D01*
X174307002Y-106531231D01*
X174313846Y-106522083D01*
X174396828Y-106379220D01*
X174401384Y-106368741D01*
X174449468Y-106209978D01*
X174451393Y-106200054D01*
X174457804Y-106128219D01*
X174458000Y-106123818D01*
X174458000Y-105739680D01*
X174453878Y-105726995D01*
X174449757Y-105724000D01*
X171507680Y-105724000D01*
X171494995Y-105728122D01*
X171492000Y-105732243D01*
X171492000Y-106110019D01*
X171492332Y-106115731D01*
X171506799Y-106239817D01*
X171509427Y-106250934D01*
X171565795Y-106406226D01*
X171570918Y-106416457D01*
X171661498Y-106554614D01*
X171668831Y-106563384D01*
X171788769Y-106677002D01*
X171797917Y-106683846D01*
X171940780Y-106766828D01*
X171951259Y-106771384D01*
X172110022Y-106819468D01*
X172119946Y-106821393D01*
X172191781Y-106827804D01*
X172196182Y-106828000D01*
X172246690Y-106828000D01*
X172304881Y-106846907D01*
X172340845Y-106896407D01*
X172340845Y-106957593D01*
X172304881Y-107007093D01*
X172292019Y-107015013D01*
X172257671Y-107032704D01*
X172250603Y-107036344D01*
X172246895Y-107039257D01*
X172088580Y-107163614D01*
X172088578Y-107163616D01*
X172084867Y-107166531D01*
X171946739Y-107325710D01*
X171841203Y-107508136D01*
X171841023Y-107508655D01*
X171800472Y-107552751D01*
X171751875Y-107565500D01*
X171678557Y-107565500D01*
X171620366Y-107546593D01*
X171608553Y-107536504D01*
X170613496Y-106541447D01*
X170585719Y-106486930D01*
X170584500Y-106471443D01*
X170584500Y-104816182D01*
X171492000Y-104816182D01*
X171492000Y-105200320D01*
X171496122Y-105213005D01*
X171500243Y-105216000D01*
X172705320Y-105216000D01*
X172718005Y-105211878D01*
X172721000Y-105207757D01*
X172721000Y-104127680D01*
X172718583Y-104120243D01*
X173229000Y-104120243D01*
X173229000Y-105200320D01*
X173233122Y-105213005D01*
X173237243Y-105216000D01*
X174442320Y-105216000D01*
X174455005Y-105211878D01*
X174458000Y-105207757D01*
X174458000Y-104829981D01*
X174457668Y-104824269D01*
X174443201Y-104700183D01*
X174440573Y-104689066D01*
X174384205Y-104533774D01*
X174379082Y-104523543D01*
X174288502Y-104385386D01*
X174281169Y-104376616D01*
X174161231Y-104262998D01*
X174152083Y-104256154D01*
X174009220Y-104173172D01*
X173998741Y-104168616D01*
X173839978Y-104120532D01*
X173830054Y-104118607D01*
X173758219Y-104112196D01*
X173753818Y-104112000D01*
X173244680Y-104112000D01*
X173231995Y-104116122D01*
X173229000Y-104120243D01*
X172718583Y-104120243D01*
X172716878Y-104114995D01*
X172712757Y-104112000D01*
X172209981Y-104112000D01*
X172204269Y-104112332D01*
X172080183Y-104126799D01*
X172069066Y-104129427D01*
X171913774Y-104185795D01*
X171903543Y-104190918D01*
X171765386Y-104281498D01*
X171756616Y-104288831D01*
X171642998Y-104408769D01*
X171636154Y-104417917D01*
X171553172Y-104560780D01*
X171548616Y-104571259D01*
X171500532Y-104730022D01*
X171498607Y-104739946D01*
X171492196Y-104811781D01*
X171492000Y-104816182D01*
X170584500Y-104816182D01*
X170584500Y-104348557D01*
X170603407Y-104290366D01*
X170613496Y-104278553D01*
X175568347Y-99323702D01*
X175568451Y-99323558D01*
X175568693Y-99323297D01*
X175591292Y-99300698D01*
X175594828Y-99293758D01*
X175594831Y-99293754D01*
X175602386Y-99278927D01*
X175610503Y-99265681D01*
X175620286Y-99252216D01*
X175620288Y-99252213D01*
X175624867Y-99245910D01*
X175632419Y-99222668D01*
X175638364Y-99208316D01*
X175645920Y-99193486D01*
X175645920Y-99193485D01*
X175649458Y-99186542D01*
X175653281Y-99162405D01*
X175656907Y-99147300D01*
X175662051Y-99131467D01*
X175664458Y-99124060D01*
X175664458Y-99092103D01*
X175664472Y-99091745D01*
X175664500Y-99091569D01*
X175664500Y-93948431D01*
X175664472Y-93948255D01*
X175664458Y-93947897D01*
X175664458Y-93915940D01*
X175656907Y-93892700D01*
X175653281Y-93877595D01*
X175650677Y-93861152D01*
X175650676Y-93861150D01*
X175649458Y-93853458D01*
X175645920Y-93846514D01*
X175638364Y-93831684D01*
X175632418Y-93817331D01*
X175627274Y-93801499D01*
X175624867Y-93794090D01*
X175620288Y-93787787D01*
X175620286Y-93787784D01*
X175610503Y-93774319D01*
X175602386Y-93761073D01*
X175594831Y-93746246D01*
X175594828Y-93746242D01*
X175591292Y-93739302D01*
X175568693Y-93716703D01*
X175568451Y-93716442D01*
X175568347Y-93716298D01*
X173823702Y-91971653D01*
X173823558Y-91971549D01*
X173823297Y-91971307D01*
X173800698Y-91948708D01*
X173793758Y-91945172D01*
X173793754Y-91945169D01*
X173778927Y-91937614D01*
X173765681Y-91929497D01*
X173752216Y-91919714D01*
X173752213Y-91919712D01*
X173745910Y-91915133D01*
X173722668Y-91907581D01*
X173708316Y-91901636D01*
X173693486Y-91894080D01*
X173693485Y-91894080D01*
X173686542Y-91890542D01*
X173678850Y-91889324D01*
X173678848Y-91889323D01*
X173662405Y-91886719D01*
X173647300Y-91883093D01*
X173646120Y-91882710D01*
X173624060Y-91875542D01*
X173592103Y-91875542D01*
X173591745Y-91875528D01*
X173591569Y-91875500D01*
X169421260Y-91875500D01*
X169363069Y-91856593D01*
X169340022Y-91830994D01*
X169339325Y-91831500D01*
X169232147Y-91683983D01*
X169229101Y-91679790D01*
X169186125Y-91641094D01*
X169155532Y-91588106D01*
X169161928Y-91527256D01*
X169202869Y-91481786D01*
X169233055Y-91470425D01*
X169289741Y-91459150D01*
X169289743Y-91459149D01*
X169299306Y-91457247D01*
X169383494Y-91400994D01*
X169439747Y-91316806D01*
X169459500Y-91217500D01*
X169459500Y-89942500D01*
X169439747Y-89843194D01*
X169383494Y-89759006D01*
X169299306Y-89702753D01*
X169289743Y-89700851D01*
X169289741Y-89700850D01*
X169245632Y-89692077D01*
X169200000Y-89683000D01*
X167400000Y-89683000D01*
X167354368Y-89692077D01*
X167310259Y-89700850D01*
X167310257Y-89700851D01*
X167300694Y-89702753D01*
X167216506Y-89759006D01*
X167160253Y-89843194D01*
X167140500Y-89942500D01*
X167140500Y-91217500D01*
X167160253Y-91316806D01*
X167216506Y-91400994D01*
X167300694Y-91457247D01*
X167310257Y-91459149D01*
X167310259Y-91459150D01*
X167366945Y-91470425D01*
X167420329Y-91500322D01*
X167445945Y-91555887D01*
X167434008Y-91615896D01*
X167413875Y-91641094D01*
X167370899Y-91679790D01*
X167260675Y-91831500D01*
X167258568Y-91836232D01*
X167258567Y-91836234D01*
X167198108Y-91972028D01*
X167184402Y-92002812D01*
X167145414Y-92186238D01*
X167145414Y-92373762D01*
X167184402Y-92557188D01*
X167186510Y-92561922D01*
X167186511Y-92561926D01*
X167258567Y-92723766D01*
X167260675Y-92728500D01*
X167370899Y-92880210D01*
X167374756Y-92883683D01*
X167374758Y-92883685D01*
X167383071Y-92891170D01*
X167413665Y-92944157D01*
X167407271Y-93005008D01*
X167376063Y-93044067D01*
X167271302Y-93122296D01*
X167264584Y-93128345D01*
X167127826Y-93276290D01*
X167122327Y-93283455D01*
X167014818Y-93453847D01*
X167010715Y-93461900D01*
X166936059Y-93649028D01*
X166933494Y-93657686D01*
X166922964Y-93710621D01*
X157504500Y-93710621D01*
X157504500Y-87249979D01*
X157523407Y-87191788D01*
X157533496Y-87179975D01*
X159679974Y-85033496D01*
X159734491Y-85005719D01*
X159749978Y-85004500D01*
X171803491Y-85004500D01*
X171861682Y-85023407D01*
X171888007Y-85052696D01*
X171888178Y-85053072D01*
X171890900Y-85056910D01*
X171890901Y-85056911D01*
X171955409Y-85147850D01*
X172010114Y-85224970D01*
X172088390Y-85299903D01*
X172158951Y-85367451D01*
X172158955Y-85367454D01*
X172162355Y-85370709D01*
X172339408Y-85485031D01*
X172343769Y-85486789D01*
X172343770Y-85486789D01*
X172530522Y-85562052D01*
X172530525Y-85562053D01*
X172534885Y-85563810D01*
X172539499Y-85564711D01*
X172539502Y-85564712D01*
X172738237Y-85603523D01*
X172738244Y-85603524D01*
X172741732Y-85604205D01*
X172747764Y-85604500D01*
X173202406Y-85604500D01*
X173338099Y-85591554D01*
X173355106Y-85589931D01*
X173355107Y-85589931D01*
X173359801Y-85589483D01*
X173562033Y-85530155D01*
X173749397Y-85433656D01*
X173833680Y-85367451D01*
X173911420Y-85306386D01*
X173911422Y-85306384D01*
X173915133Y-85303469D01*
X174053261Y-85144290D01*
X174134132Y-85004500D01*
X174156439Y-84965940D01*
X174158797Y-84961864D01*
X174181495Y-84896500D01*
X174226391Y-84767217D01*
X174226392Y-84767211D01*
X174227934Y-84762772D01*
X174258175Y-84554199D01*
X174248431Y-84343670D01*
X174199053Y-84138782D01*
X174111822Y-83946928D01*
X173989886Y-83775030D01*
X173890609Y-83679993D01*
X173841049Y-83632549D01*
X173841045Y-83632546D01*
X173837645Y-83629291D01*
X173660592Y-83514969D01*
X173656230Y-83513211D01*
X173469478Y-83437948D01*
X173469475Y-83437947D01*
X173465115Y-83436190D01*
X173460501Y-83435289D01*
X173460498Y-83435288D01*
X173261763Y-83396477D01*
X173261756Y-83396476D01*
X173258268Y-83395795D01*
X173252236Y-83395500D01*
X172797594Y-83395500D01*
X172661901Y-83408446D01*
X172644894Y-83410069D01*
X172644893Y-83410069D01*
X172640199Y-83410517D01*
X172437967Y-83469845D01*
X172250603Y-83566344D01*
X172246895Y-83569257D01*
X172088580Y-83693614D01*
X172088578Y-83693616D01*
X172084867Y-83696531D01*
X171946739Y-83855710D01*
X171944381Y-83859786D01*
X171944376Y-83859793D01*
X171894462Y-83946074D01*
X171848957Y-83986976D01*
X171808769Y-83995500D01*
X167128500Y-83995500D01*
X167070309Y-83976593D01*
X167034345Y-83927093D01*
X167029500Y-83896500D01*
X167029500Y-83777587D01*
X167014523Y-83673009D01*
X166956199Y-83544731D01*
X166864215Y-83437979D01*
X166745968Y-83361335D01*
X166696256Y-83346468D01*
X166645923Y-83311681D01*
X166625649Y-83253951D01*
X166643181Y-83195331D01*
X166683646Y-83161497D01*
X166701165Y-83153532D01*
X166737008Y-83137235D01*
X166798845Y-83109120D01*
X166798846Y-83109119D01*
X166805269Y-83106199D01*
X166912021Y-83014215D01*
X166988665Y-82895968D01*
X166990687Y-82889208D01*
X167027504Y-82766102D01*
X167027505Y-82766098D01*
X167029041Y-82760961D01*
X167029500Y-82754784D01*
X167029500Y-82603500D01*
X167048407Y-82545309D01*
X167097907Y-82509345D01*
X167128500Y-82504500D01*
X171646500Y-82504500D01*
X171704691Y-82523407D01*
X171740655Y-82572907D01*
X171745500Y-82603500D01*
X171745500Y-82634914D01*
X171760979Y-82743000D01*
X171820771Y-82874504D01*
X171915067Y-82983941D01*
X172036289Y-83062513D01*
X172043044Y-83064533D01*
X172043048Y-83064535D01*
X172112667Y-83085355D01*
X172174691Y-83103904D01*
X172180037Y-83104301D01*
X172180041Y-83104302D01*
X172180595Y-83104343D01*
X172182712Y-83104500D01*
X173784914Y-83104500D01*
X173788405Y-83104000D01*
X173788406Y-83104000D01*
X173820943Y-83099340D01*
X173893000Y-83089021D01*
X173943944Y-83065858D01*
X174018080Y-83032150D01*
X174018081Y-83032149D01*
X174024504Y-83029229D01*
X174133941Y-82934933D01*
X174212513Y-82813711D01*
X174214533Y-82806956D01*
X174214535Y-82806952D01*
X174235749Y-82736016D01*
X174253904Y-82675309D01*
X174254500Y-82667288D01*
X174254500Y-81365086D01*
X174239021Y-81257000D01*
X174179229Y-81125496D01*
X174084933Y-81016059D01*
X173963711Y-80937487D01*
X173956956Y-80935467D01*
X173956952Y-80935465D01*
X173875074Y-80910979D01*
X173825309Y-80896096D01*
X173819963Y-80895699D01*
X173819959Y-80895698D01*
X173819405Y-80895657D01*
X173817288Y-80895500D01*
X172215086Y-80895500D01*
X172211595Y-80896000D01*
X172211594Y-80896000D01*
X172179057Y-80900660D01*
X172107000Y-80910979D01*
X172100578Y-80913899D01*
X172053147Y-80935465D01*
X171975496Y-80970771D01*
X171866059Y-81065067D01*
X171787487Y-81186289D01*
X171785467Y-81193044D01*
X171785465Y-81193048D01*
X171766340Y-81257000D01*
X171746096Y-81324691D01*
X171745500Y-81332712D01*
X171745500Y-81396500D01*
X171726593Y-81454691D01*
X171677093Y-81490655D01*
X171646500Y-81495500D01*
X141066769Y-81495500D01*
X141054781Y-81494161D01*
X141054773Y-81494263D01*
X141047739Y-81493697D01*
X141040862Y-81492141D01*
X140989782Y-81495310D01*
X140983652Y-81495500D01*
X140965086Y-81495500D01*
X140961600Y-81495999D01*
X140961589Y-81496000D01*
X140952486Y-81497304D01*
X140944583Y-81498114D01*
X140903723Y-81500649D01*
X140896680Y-81501086D01*
X140886885Y-81504622D01*
X140867307Y-81509503D01*
X140857000Y-81510979D01*
X140813291Y-81530852D01*
X140805946Y-81533842D01*
X140760804Y-81550139D01*
X140752398Y-81556281D01*
X140734976Y-81566461D01*
X140725496Y-81570771D01*
X140689127Y-81602108D01*
X140682917Y-81607039D01*
X140678801Y-81610046D01*
X140673287Y-81614074D01*
X140673283Y-81614077D01*
X140670201Y-81616329D01*
X140657709Y-81628821D01*
X140652328Y-81633816D01*
X140616059Y-81665067D01*
X140612224Y-81670984D01*
X140612222Y-81670986D01*
X140611787Y-81671658D01*
X140598717Y-81687813D01*
X136532681Y-85753849D01*
X136478164Y-85781626D01*
X136434311Y-85778694D01*
X136375074Y-85760979D01*
X136325309Y-85746096D01*
X136319963Y-85745699D01*
X136319959Y-85745698D01*
X136319405Y-85745657D01*
X136317288Y-85745500D01*
X135715086Y-85745500D01*
X135711595Y-85746000D01*
X135711594Y-85746000D01*
X135679057Y-85750660D01*
X135607000Y-85760979D01*
X135475496Y-85820771D01*
X135366059Y-85915067D01*
X135287487Y-86036289D01*
X135285467Y-86043044D01*
X135285465Y-86043048D01*
X135264645Y-86112667D01*
X135246096Y-86174691D01*
X135245500Y-86182712D01*
X124300000Y-86182712D01*
X124300000Y-75799000D01*
X124318907Y-75740809D01*
X124368407Y-75704845D01*
X124399000Y-75700000D01*
X176601000Y-75700000D01*
X176659191Y-75718907D01*
G37*
%TD.AperFunction*%
%TD*%
M02*
