%TF.GenerationSoftware,KiCad,Pcbnew,5.99.0-unknown-1f4a56005e~130~ubuntu20.04.1*%
%TF.CreationDate,2021-06-26T22:45:04+02:00*%
%TF.ProjectId,LED-Modul,4c45442d-4d6f-4647-956c-2e6b69636164,rev?*%
%TF.SameCoordinates,Original*%
%TF.FileFunction,Legend,Bot*%
%TF.FilePolarity,Positive*%
%FSLAX46Y46*%
G04 Gerber Fmt 4.6, Leading zero omitted, Abs format (unit mm)*
G04 Created by KiCad (PCBNEW 5.99.0-unknown-1f4a56005e~130~ubuntu20.04.1) date 2021-06-26 22:45:04*
%MOMM*%
%LPD*%
G01*
G04 APERTURE LIST*
%ADD10C,0.250000*%
%ADD11C,0.200000*%
%ADD12C,0.150000*%
%ADD13C,0.300000*%
%ADD14C,0.120000*%
G04 APERTURE END LIST*
D10*
X126452380Y-78311952D02*
X127166666Y-78311952D01*
X127309523Y-78264333D01*
X127404761Y-78169095D01*
X127452380Y-78026238D01*
X127452380Y-77931000D01*
X127452380Y-79264333D02*
X127452380Y-78788142D01*
X126452380Y-78788142D01*
X127357142Y-80169095D02*
X127404761Y-80121476D01*
X127452380Y-79978619D01*
X127452380Y-79883380D01*
X127404761Y-79740523D01*
X127309523Y-79645285D01*
X127214285Y-79597666D01*
X127023809Y-79550047D01*
X126880952Y-79550047D01*
X126690476Y-79597666D01*
X126595238Y-79645285D01*
X126500000Y-79740523D01*
X126452380Y-79883380D01*
X126452380Y-79978619D01*
X126500000Y-80121476D01*
X126547619Y-80169095D01*
X126452380Y-80883380D02*
X127166666Y-80883380D01*
X127309523Y-80835761D01*
X127404761Y-80740523D01*
X127452380Y-80597666D01*
X127452380Y-80502428D01*
X127452380Y-81835761D02*
X127452380Y-81359571D01*
X126452380Y-81359571D01*
X127357142Y-82740523D02*
X127404761Y-82692904D01*
X127452380Y-82550047D01*
X127452380Y-82454809D01*
X127404761Y-82311952D01*
X127309523Y-82216714D01*
X127214285Y-82169095D01*
X127023809Y-82121476D01*
X126880952Y-82121476D01*
X126690476Y-82169095D01*
X126595238Y-82216714D01*
X126500000Y-82311952D01*
X126452380Y-82454809D01*
X126452380Y-82550047D01*
X126500000Y-82692904D01*
X126547619Y-82740523D01*
X126452380Y-83454809D02*
X127166666Y-83454809D01*
X127309523Y-83407190D01*
X127404761Y-83311952D01*
X127452380Y-83169095D01*
X127452380Y-83073857D01*
X127452380Y-84407190D02*
X127452380Y-83931000D01*
X126452380Y-83931000D01*
X127357142Y-85311952D02*
X127404761Y-85264333D01*
X127452380Y-85121476D01*
X127452380Y-85026238D01*
X127404761Y-84883380D01*
X127309523Y-84788142D01*
X127214285Y-84740523D01*
X127023809Y-84692904D01*
X126880952Y-84692904D01*
X126690476Y-84740523D01*
X126595238Y-84788142D01*
X126500000Y-84883380D01*
X126452380Y-85026238D01*
X126452380Y-85121476D01*
X126500000Y-85264333D01*
X126547619Y-85311952D01*
X126452380Y-86026238D02*
X127166666Y-86026238D01*
X127309523Y-85978619D01*
X127404761Y-85883380D01*
X127452380Y-85740523D01*
X127452380Y-85645285D01*
X127452380Y-86978619D02*
X127452380Y-86502428D01*
X126452380Y-86502428D01*
X127357142Y-87883380D02*
X127404761Y-87835761D01*
X127452380Y-87692904D01*
X127452380Y-87597666D01*
X127404761Y-87454809D01*
X127309523Y-87359571D01*
X127214285Y-87311952D01*
X127023809Y-87264333D01*
X126880952Y-87264333D01*
X126690476Y-87311952D01*
X126595238Y-87359571D01*
X126500000Y-87454809D01*
X126452380Y-87597666D01*
X126452380Y-87692904D01*
X126500000Y-87835761D01*
X126547619Y-87883380D01*
D11*
X164750000Y-76000000D02*
X124750000Y-76000000D01*
X124750000Y-76000000D02*
X124750000Y-116000000D01*
X124750000Y-116000000D02*
X164750000Y-116000000D01*
X164750000Y-116000000D02*
X164750000Y-76000000D01*
D12*
X169367952Y-115670000D02*
X169367952Y-102770000D01*
X169418000Y-87112000D02*
X169418000Y-79512000D01*
D11*
X169120380Y-82669142D02*
X169120380Y-82192952D01*
X168120380Y-82192952D01*
X168596571Y-83002476D02*
X168596571Y-83335809D01*
X169120380Y-83478666D02*
X169120380Y-83002476D01*
X168120380Y-83002476D01*
X168120380Y-83478666D01*
X169120380Y-83907238D02*
X168120380Y-83907238D01*
X168120380Y-84145333D01*
X168168000Y-84288190D01*
X168263238Y-84383428D01*
X168358476Y-84431047D01*
X168548952Y-84478666D01*
X168691809Y-84478666D01*
X168882285Y-84431047D01*
X168977523Y-84383428D01*
X169072761Y-84288190D01*
X169120380Y-84145333D01*
X169120380Y-83907238D01*
X168108380Y-108124761D02*
X168108380Y-108696190D01*
X169108380Y-108410476D02*
X168108380Y-108410476D01*
X168108380Y-108934285D02*
X169108380Y-109172380D01*
X168394095Y-109362857D01*
X169108380Y-109553333D01*
X168108380Y-109791428D01*
X169108380Y-110172380D02*
X168108380Y-110172380D01*
D13*
X163238571Y-77252428D02*
X161738571Y-77252428D01*
X163238571Y-78109571D02*
X162381428Y-77466714D01*
X161738571Y-78109571D02*
X162595714Y-77252428D01*
X162238571Y-79395285D02*
X163238571Y-79395285D01*
X162238571Y-78752428D02*
X163024285Y-78752428D01*
X163167142Y-78823857D01*
X163238571Y-78966714D01*
X163238571Y-79181000D01*
X163167142Y-79323857D01*
X163095714Y-79395285D01*
X161738571Y-78823857D02*
X161810000Y-78895285D01*
X161881428Y-78823857D01*
X161810000Y-78752428D01*
X161738571Y-78823857D01*
X161881428Y-78823857D01*
X161738571Y-79395285D02*
X161810000Y-79466714D01*
X161881428Y-79395285D01*
X161810000Y-79323857D01*
X161738571Y-79395285D01*
X161881428Y-79395285D01*
X163238571Y-80109571D02*
X161738571Y-80109571D01*
X163238571Y-80752428D02*
X162452857Y-80752428D01*
X162310000Y-80681000D01*
X162238571Y-80538142D01*
X162238571Y-80323857D01*
X162310000Y-80181000D01*
X162381428Y-80109571D01*
X163238571Y-81681000D02*
X163167142Y-81538142D01*
X163024285Y-81466714D01*
X161738571Y-81466714D01*
X163238571Y-82252428D02*
X161738571Y-82252428D01*
X162667142Y-82395285D02*
X163238571Y-82823857D01*
X162238571Y-82823857D02*
X162810000Y-82252428D01*
X163238571Y-83681000D02*
X163167142Y-83538142D01*
X163095714Y-83466714D01*
X162952857Y-83395285D01*
X162524285Y-83395285D01*
X162381428Y-83466714D01*
X162310000Y-83538142D01*
X162238571Y-83681000D01*
X162238571Y-83895285D01*
X162310000Y-84038142D01*
X162381428Y-84109571D01*
X162524285Y-84181000D01*
X162952857Y-84181000D01*
X163095714Y-84109571D01*
X163167142Y-84038142D01*
X163238571Y-83895285D01*
X163238571Y-83681000D01*
X161738571Y-83538142D02*
X161810000Y-83609571D01*
X161881428Y-83538142D01*
X161810000Y-83466714D01*
X161738571Y-83538142D01*
X161881428Y-83538142D01*
X161738571Y-84109571D02*
X161810000Y-84181000D01*
X161881428Y-84109571D01*
X161810000Y-84038142D01*
X161738571Y-84109571D01*
X161881428Y-84109571D01*
X163238571Y-84823857D02*
X162238571Y-84823857D01*
X162524285Y-84823857D02*
X162381428Y-84895285D01*
X162310000Y-84966714D01*
X162238571Y-85109571D01*
X162238571Y-85252428D01*
X162238571Y-85752428D02*
X163738571Y-85752428D01*
X162310000Y-85752428D02*
X162238571Y-85895285D01*
X162238571Y-86181000D01*
X162310000Y-86323857D01*
X162381428Y-86395285D01*
X162524285Y-86466714D01*
X162952857Y-86466714D01*
X163095714Y-86395285D01*
X163167142Y-86323857D01*
X163238571Y-86181000D01*
X163238571Y-85895285D01*
X163167142Y-85752428D01*
X163167142Y-87681000D02*
X163238571Y-87538142D01*
X163238571Y-87252428D01*
X163167142Y-87109571D01*
X163024285Y-87038142D01*
X162452857Y-87038142D01*
X162310000Y-87109571D01*
X162238571Y-87252428D01*
X162238571Y-87538142D01*
X162310000Y-87681000D01*
X162452857Y-87752428D01*
X162595714Y-87752428D01*
X162738571Y-87038142D01*
X163238571Y-88395285D02*
X162238571Y-88395285D01*
X162524285Y-88395285D02*
X162381428Y-88466714D01*
X162310000Y-88538142D01*
X162238571Y-88681000D01*
X162238571Y-88823857D01*
D14*
%TO.C,J2*%
X175725000Y-114770000D02*
X175725000Y-109220000D01*
X172775000Y-102920000D02*
X172775000Y-103670000D01*
X172775000Y-103670000D02*
X175725000Y-103670000D01*
X170515000Y-102910000D02*
X176485000Y-102910000D01*
X170515000Y-115530000D02*
X170515000Y-102910000D01*
X171275000Y-113720000D02*
X171275000Y-115520000D01*
X171275000Y-104720000D02*
X170525000Y-104720000D01*
X170225000Y-102620000D02*
X171475000Y-102620000D01*
X170525000Y-112220000D02*
X170525000Y-106220000D01*
X170525000Y-113720000D02*
X171275000Y-113720000D01*
X170525000Y-104720000D02*
X170525000Y-102920000D01*
X171275000Y-115520000D02*
X170525000Y-115520000D01*
X176485000Y-102910000D02*
X176485000Y-115530000D01*
X175725000Y-103670000D02*
X175725000Y-109220000D01*
X170225000Y-103870000D02*
X170225000Y-102620000D01*
X176485000Y-115530000D02*
X170515000Y-115530000D01*
X171275000Y-102920000D02*
X171275000Y-104720000D01*
X171275000Y-106220000D02*
X171275000Y-112220000D01*
X172775000Y-115520000D02*
X172775000Y-114770000D01*
X171275000Y-112220000D02*
X170525000Y-112220000D01*
X170525000Y-106220000D02*
X171275000Y-106220000D01*
X170525000Y-102920000D02*
X171275000Y-102920000D01*
X172775000Y-114770000D02*
X175725000Y-114770000D01*
X170525000Y-115520000D02*
X170525000Y-113720000D01*
%TO.C,J1*%
X172800000Y-80200000D02*
X175750000Y-80200000D01*
X170550000Y-81250000D02*
X170550000Y-79450000D01*
X175750000Y-80200000D02*
X175750000Y-83250000D01*
X170550000Y-85250000D02*
X171300000Y-85250000D01*
X175750000Y-86300000D02*
X175750000Y-83250000D01*
X172800000Y-87050000D02*
X172800000Y-86300000D01*
X171300000Y-87050000D02*
X170550000Y-87050000D01*
X176510000Y-87060000D02*
X170540000Y-87060000D01*
X170250000Y-79150000D02*
X171500000Y-79150000D01*
X171300000Y-81250000D02*
X170550000Y-81250000D01*
X170250000Y-80400000D02*
X170250000Y-79150000D01*
X171300000Y-82750000D02*
X171300000Y-83750000D01*
X170550000Y-83750000D02*
X170550000Y-82750000D01*
X170550000Y-87050000D02*
X170550000Y-85250000D01*
X171300000Y-85250000D02*
X171300000Y-87050000D01*
X171300000Y-83750000D02*
X170550000Y-83750000D01*
X172800000Y-79450000D02*
X172800000Y-80200000D01*
X170550000Y-82750000D02*
X171300000Y-82750000D01*
X171300000Y-79450000D02*
X171300000Y-81250000D01*
X170550000Y-79450000D02*
X171300000Y-79450000D01*
X170540000Y-79440000D02*
X176510000Y-79440000D01*
X170540000Y-87060000D02*
X170540000Y-79440000D01*
X176510000Y-79440000D02*
X176510000Y-87060000D01*
X172800000Y-86300000D02*
X175750000Y-86300000D01*
%TO.C,U1*%
X165030000Y-88859000D02*
X165030000Y-99100000D01*
X165030000Y-99100000D02*
X169671000Y-99100000D01*
X169671000Y-88859000D02*
X169671000Y-99100000D01*
X165030000Y-88859000D02*
X169671000Y-88859000D01*
X165030000Y-92130000D02*
X166540000Y-92130000D01*
X165030000Y-95830000D02*
X166540000Y-95830000D01*
X166540000Y-88859000D02*
X166540000Y-99100000D01*
%TD*%
M02*
