%TF.GenerationSoftware,KiCad,Pcbnew,5.99.0-unknown-1f4a56005e~130~ubuntu20.04.1*%
%TF.CreationDate,2021-06-26T22:45:04+02:00*%
%TF.ProjectId,LED-Modul,4c45442d-4d6f-4647-956c-2e6b69636164,rev?*%
%TF.SameCoordinates,Original*%
%TF.FileFunction,Legend,Top*%
%TF.FilePolarity,Positive*%
%FSLAX46Y46*%
G04 Gerber Fmt 4.6, Leading zero omitted, Abs format (unit mm)*
G04 Created by KiCad (PCBNEW 5.99.0-unknown-1f4a56005e~130~ubuntu20.04.1) date 2021-06-26 22:45:04*
%MOMM*%
%LPD*%
G01*
G04 APERTURE LIST*
%ADD10C,0.150000*%
%ADD11C,0.100000*%
%ADD12C,0.200000*%
%ADD13C,0.120000*%
%ADD14C,0.010000*%
G04 APERTURE END LIST*
D10*
X151504391Y-90399009D02*
G75*
G02*
X150500000Y-89350000I45609J1049009D01*
G01*
X138150000Y-89350000D02*
X150500000Y-89350000D01*
X139000000Y-91000000D02*
X139000000Y-90000000D01*
X139000000Y-90000000D02*
X140000000Y-90000000D01*
X140000000Y-90000000D02*
X139000000Y-91000000D01*
G36*
X139000000Y-91000000D02*
G01*
X139000000Y-90000000D01*
X140000000Y-90000000D01*
X139000000Y-91000000D01*
G37*
X139000000Y-91000000D02*
X139000000Y-90000000D01*
X140000000Y-90000000D01*
X139000000Y-91000000D01*
X168997952Y-85812000D02*
X168997952Y-80812000D01*
X139100000Y-102850000D02*
X151500000Y-102850000D01*
X125184190Y-108268000D02*
X143684190Y-108268000D01*
X151000000Y-102250000D02*
X150000000Y-102250000D01*
X150000000Y-102250000D02*
X151000000Y-101250000D01*
X151000000Y-101250000D02*
X151000000Y-102250000D01*
G36*
X151000000Y-102250000D02*
G01*
X150000000Y-102250000D01*
X151000000Y-101250000D01*
X151000000Y-102250000D01*
G37*
X151000000Y-102250000D02*
X150000000Y-102250000D01*
X151000000Y-101250000D01*
X151000000Y-102250000D01*
X168729952Y-114170000D02*
X168729952Y-104270000D01*
X150000000Y-96000000D02*
G75*
G03*
X150000000Y-96000000I-5000000J0D01*
G01*
X150400000Y-100457000D02*
X151000000Y-100457000D01*
X150700000Y-100207000D02*
X150700000Y-100707000D01*
X139050000Y-91567000D02*
X139550000Y-91567000D01*
X138150000Y-101799999D02*
G75*
G02*
X139100000Y-102850000I-105264J-1050001D01*
G01*
X138150000Y-101800000D02*
X138150000Y-89350000D01*
X151504391Y-90399009D02*
X151500000Y-102850000D01*
D11*
X169227619Y-110813809D02*
X169341904Y-110851904D01*
X169532380Y-110851904D01*
X169608571Y-110813809D01*
X169646666Y-110775714D01*
X169684761Y-110699523D01*
X169684761Y-110623333D01*
X169646666Y-110547142D01*
X169608571Y-110509047D01*
X169532380Y-110470952D01*
X169380000Y-110432857D01*
X169303809Y-110394761D01*
X169265714Y-110356666D01*
X169227619Y-110280476D01*
X169227619Y-110204285D01*
X169265714Y-110128095D01*
X169303809Y-110090000D01*
X169380000Y-110051904D01*
X169570476Y-110051904D01*
X169684761Y-110090000D01*
X170484761Y-110775714D02*
X170446666Y-110813809D01*
X170332380Y-110851904D01*
X170256190Y-110851904D01*
X170141904Y-110813809D01*
X170065714Y-110737619D01*
X170027619Y-110661428D01*
X169989523Y-110509047D01*
X169989523Y-110394761D01*
X170027619Y-110242380D01*
X170065714Y-110166190D01*
X170141904Y-110090000D01*
X170256190Y-110051904D01*
X170332380Y-110051904D01*
X170446666Y-110090000D01*
X170484761Y-110128095D01*
X171208571Y-110851904D02*
X170827619Y-110851904D01*
X170827619Y-110051904D01*
X169520428Y-105010000D02*
X169444237Y-104971904D01*
X169329952Y-104971904D01*
X169215666Y-105010000D01*
X169139475Y-105086190D01*
X169101380Y-105162380D01*
X169063285Y-105314761D01*
X169063285Y-105429047D01*
X169101380Y-105581428D01*
X169139475Y-105657619D01*
X169215666Y-105733809D01*
X169329952Y-105771904D01*
X169406142Y-105771904D01*
X169520428Y-105733809D01*
X169558523Y-105695714D01*
X169558523Y-105429047D01*
X169406142Y-105429047D01*
X169901380Y-105771904D02*
X169901380Y-104971904D01*
X170358523Y-105771904D01*
X170358523Y-104971904D01*
X170739475Y-105771904D02*
X170739475Y-104971904D01*
X170929952Y-104971904D01*
X171044237Y-105010000D01*
X171120428Y-105086190D01*
X171158523Y-105162380D01*
X171196618Y-105314761D01*
X171196618Y-105429047D01*
X171158523Y-105581428D01*
X171120428Y-105657619D01*
X171044237Y-105733809D01*
X170929952Y-105771904D01*
X170739475Y-105771904D01*
X169386285Y-84073904D02*
X169652952Y-84873904D01*
X169919618Y-84073904D01*
X170643428Y-84797714D02*
X170605332Y-84835809D01*
X170491047Y-84873904D01*
X170414856Y-84873904D01*
X170300571Y-84835809D01*
X170224380Y-84759619D01*
X170186285Y-84683428D01*
X170148190Y-84531047D01*
X170148190Y-84416761D01*
X170186285Y-84264380D01*
X170224380Y-84188190D01*
X170300571Y-84112000D01*
X170414856Y-84073904D01*
X170491047Y-84073904D01*
X170605332Y-84112000D01*
X170643428Y-84150095D01*
X171443428Y-84797714D02*
X171405332Y-84835809D01*
X171291047Y-84873904D01*
X171214856Y-84873904D01*
X171100571Y-84835809D01*
X171024380Y-84759619D01*
X170986285Y-84683428D01*
X170948190Y-84531047D01*
X170948190Y-84416761D01*
X170986285Y-84264380D01*
X171024380Y-84188190D01*
X171100571Y-84112000D01*
X171214856Y-84073904D01*
X171291047Y-84073904D01*
X171405332Y-84112000D01*
X171443428Y-84150095D01*
D12*
X126236000Y-105608380D02*
X125759809Y-105608380D01*
X125759809Y-104608380D01*
X126569333Y-105084571D02*
X126902666Y-105084571D01*
X127045523Y-105608380D02*
X126569333Y-105608380D01*
X126569333Y-104608380D01*
X127045523Y-104608380D01*
X127474095Y-105608380D02*
X127474095Y-104608380D01*
X127712190Y-104608380D01*
X127855047Y-104656000D01*
X127950285Y-104751238D01*
X127997904Y-104846476D01*
X128045523Y-105036952D01*
X128045523Y-105179809D01*
X127997904Y-105370285D01*
X127950285Y-105465523D01*
X127855047Y-105560761D01*
X127712190Y-105608380D01*
X127474095Y-105608380D01*
X129236000Y-105608380D02*
X129236000Y-104608380D01*
X129569333Y-105322666D01*
X129902666Y-104608380D01*
X129902666Y-105608380D01*
X130521714Y-105608380D02*
X130426476Y-105560761D01*
X130378857Y-105513142D01*
X130331238Y-105417904D01*
X130331238Y-105132190D01*
X130378857Y-105036952D01*
X130426476Y-104989333D01*
X130521714Y-104941714D01*
X130664571Y-104941714D01*
X130759809Y-104989333D01*
X130807428Y-105036952D01*
X130855047Y-105132190D01*
X130855047Y-105417904D01*
X130807428Y-105513142D01*
X130759809Y-105560761D01*
X130664571Y-105608380D01*
X130521714Y-105608380D01*
X131712190Y-105608380D02*
X131712190Y-104608380D01*
X131712190Y-105560761D02*
X131616952Y-105608380D01*
X131426476Y-105608380D01*
X131331238Y-105560761D01*
X131283619Y-105513142D01*
X131236000Y-105417904D01*
X131236000Y-105132190D01*
X131283619Y-105036952D01*
X131331238Y-104989333D01*
X131426476Y-104941714D01*
X131616952Y-104941714D01*
X131712190Y-104989333D01*
X132616952Y-104941714D02*
X132616952Y-105608380D01*
X132188380Y-104941714D02*
X132188380Y-105465523D01*
X132236000Y-105560761D01*
X132331238Y-105608380D01*
X132474095Y-105608380D01*
X132569333Y-105560761D01*
X132616952Y-105513142D01*
X133236000Y-105608380D02*
X133140761Y-105560761D01*
X133093142Y-105465523D01*
X133093142Y-104608380D01*
X133997904Y-105560761D02*
X133902666Y-105608380D01*
X133712190Y-105608380D01*
X133616952Y-105560761D01*
X133569333Y-105465523D01*
X133569333Y-105084571D01*
X133616952Y-104989333D01*
X133712190Y-104941714D01*
X133902666Y-104941714D01*
X133997904Y-104989333D01*
X134045523Y-105084571D01*
X134045523Y-105179809D01*
X133569333Y-105275047D01*
X167182332Y-110315238D02*
X167182332Y-109743809D01*
X168182332Y-110029523D02*
X167182332Y-110029523D01*
X167182332Y-109505714D02*
X168182332Y-109267619D01*
X167468047Y-109077142D01*
X168182332Y-108886666D01*
X167182332Y-108648571D01*
X168182332Y-108267619D02*
X167182332Y-108267619D01*
X126101809Y-107196571D02*
X125768475Y-107196571D01*
X125768475Y-107720380D02*
X125768475Y-106720380D01*
X126244666Y-106720380D01*
X126625618Y-107625142D02*
X126673237Y-107672761D01*
X126625618Y-107720380D01*
X126577999Y-107672761D01*
X126625618Y-107625142D01*
X126625618Y-107720380D01*
X128197047Y-107196571D02*
X128339904Y-107244190D01*
X128387523Y-107291809D01*
X128435142Y-107387047D01*
X128435142Y-107529904D01*
X128387523Y-107625142D01*
X128339904Y-107672761D01*
X128244666Y-107720380D01*
X127863713Y-107720380D01*
X127863713Y-106720380D01*
X128197047Y-106720380D01*
X128292285Y-106768000D01*
X128339904Y-106815619D01*
X128387523Y-106910857D01*
X128387523Y-107006095D01*
X128339904Y-107101333D01*
X128292285Y-107148952D01*
X128197047Y-107196571D01*
X127863713Y-107196571D01*
X129292285Y-107053714D02*
X129292285Y-107720380D01*
X128863713Y-107053714D02*
X128863713Y-107577523D01*
X128911332Y-107672761D01*
X129006570Y-107720380D01*
X129149428Y-107720380D01*
X129244666Y-107672761D01*
X129292285Y-107625142D01*
X129911332Y-107720380D02*
X129816094Y-107672761D01*
X129768475Y-107577523D01*
X129768475Y-106720380D01*
X130149428Y-107053714D02*
X130530380Y-107053714D01*
X130292285Y-106720380D02*
X130292285Y-107577523D01*
X130339904Y-107672761D01*
X130435142Y-107720380D01*
X130530380Y-107720380D01*
X130863713Y-107720380D02*
X130863713Y-107053714D01*
X130863713Y-107148952D02*
X130911332Y-107101333D01*
X131006570Y-107053714D01*
X131149428Y-107053714D01*
X131244666Y-107101333D01*
X131292285Y-107196571D01*
X131292285Y-107720380D01*
X131292285Y-107196571D02*
X131339904Y-107101333D01*
X131435142Y-107053714D01*
X131577999Y-107053714D01*
X131673237Y-107101333D01*
X131720856Y-107196571D01*
X131720856Y-107720380D01*
X132625618Y-107720380D02*
X132625618Y-107196571D01*
X132577999Y-107101333D01*
X132482761Y-107053714D01*
X132292285Y-107053714D01*
X132197047Y-107101333D01*
X132625618Y-107672761D02*
X132530380Y-107720380D01*
X132292285Y-107720380D01*
X132197047Y-107672761D01*
X132149428Y-107577523D01*
X132149428Y-107482285D01*
X132197047Y-107387047D01*
X132292285Y-107339428D01*
X132530380Y-107339428D01*
X132625618Y-107291809D01*
X133101809Y-107053714D02*
X133101809Y-107720380D01*
X133101809Y-107148952D02*
X133149428Y-107101333D01*
X133244666Y-107053714D01*
X133387523Y-107053714D01*
X133482761Y-107101333D01*
X133530380Y-107196571D01*
X133530380Y-107720380D01*
X134006570Y-107053714D02*
X134006570Y-107720380D01*
X134006570Y-107148952D02*
X134054190Y-107101333D01*
X134149428Y-107053714D01*
X134292285Y-107053714D01*
X134387523Y-107101333D01*
X134435142Y-107196571D01*
X134435142Y-107720380D01*
X135958951Y-106720380D02*
X135958951Y-107434666D01*
X135911332Y-107577523D01*
X135816094Y-107672761D01*
X135673237Y-107720380D01*
X135577999Y-107720380D01*
X136863713Y-107053714D02*
X136863713Y-107720380D01*
X136435142Y-107053714D02*
X136435142Y-107577523D01*
X136482761Y-107672761D01*
X136577999Y-107720380D01*
X136720856Y-107720380D01*
X136816094Y-107672761D01*
X136863713Y-107625142D01*
X137339904Y-107053714D02*
X137339904Y-107720380D01*
X137339904Y-107148952D02*
X137387523Y-107101333D01*
X137482761Y-107053714D01*
X137625618Y-107053714D01*
X137720856Y-107101333D01*
X137768475Y-107196571D01*
X137768475Y-107720380D01*
X138244666Y-107625142D02*
X138292285Y-107672761D01*
X138244666Y-107720380D01*
X138197047Y-107672761D01*
X138244666Y-107625142D01*
X138244666Y-107720380D01*
X139435142Y-106815619D02*
X139482761Y-106768000D01*
X139577999Y-106720380D01*
X139816094Y-106720380D01*
X139911332Y-106768000D01*
X139958951Y-106815619D01*
X140006570Y-106910857D01*
X140006570Y-107006095D01*
X139958951Y-107148952D01*
X139387523Y-107720380D01*
X140006570Y-107720380D01*
X140625618Y-106720380D02*
X140720856Y-106720380D01*
X140816094Y-106768000D01*
X140863713Y-106815619D01*
X140911332Y-106910857D01*
X140958951Y-107101333D01*
X140958951Y-107339428D01*
X140911332Y-107529904D01*
X140863713Y-107625142D01*
X140816094Y-107672761D01*
X140720856Y-107720380D01*
X140625618Y-107720380D01*
X140530380Y-107672761D01*
X140482761Y-107625142D01*
X140435142Y-107529904D01*
X140387523Y-107339428D01*
X140387523Y-107101333D01*
X140435142Y-106910857D01*
X140482761Y-106815619D01*
X140530380Y-106768000D01*
X140625618Y-106720380D01*
X141339904Y-106815619D02*
X141387523Y-106768000D01*
X141482761Y-106720380D01*
X141720856Y-106720380D01*
X141816094Y-106768000D01*
X141863713Y-106815619D01*
X141911332Y-106910857D01*
X141911332Y-107006095D01*
X141863713Y-107148952D01*
X141292285Y-107720380D01*
X141911332Y-107720380D01*
X142863713Y-107720380D02*
X142292285Y-107720380D01*
X142577999Y-107720380D02*
X142577999Y-106720380D01*
X142482761Y-106863238D01*
X142387523Y-106958476D01*
X142292285Y-107006095D01*
D11*
X169843428Y-81712000D02*
X169767237Y-81673904D01*
X169652952Y-81673904D01*
X169538666Y-81712000D01*
X169462475Y-81788190D01*
X169424380Y-81864380D01*
X169386285Y-82016761D01*
X169386285Y-82131047D01*
X169424380Y-82283428D01*
X169462475Y-82359619D01*
X169538666Y-82435809D01*
X169652952Y-82473904D01*
X169729142Y-82473904D01*
X169843428Y-82435809D01*
X169881523Y-82397714D01*
X169881523Y-82131047D01*
X169729142Y-82131047D01*
X170224380Y-82473904D02*
X170224380Y-81673904D01*
X170681523Y-82473904D01*
X170681523Y-81673904D01*
X171062475Y-82473904D02*
X171062475Y-81673904D01*
X171252952Y-81673904D01*
X171367237Y-81712000D01*
X171443428Y-81788190D01*
X171481523Y-81864380D01*
X171519618Y-82016761D01*
X171519618Y-82131047D01*
X171481523Y-82283428D01*
X171443428Y-82359619D01*
X171367237Y-82435809D01*
X171252952Y-82473904D01*
X171062475Y-82473904D01*
D12*
X168505332Y-83954857D02*
X168505332Y-84431047D01*
X167505332Y-84431047D01*
X167981523Y-83621523D02*
X167981523Y-83288190D01*
X168505332Y-83145333D02*
X168505332Y-83621523D01*
X167505332Y-83621523D01*
X167505332Y-83145333D01*
X168505332Y-82716761D02*
X167505332Y-82716761D01*
X167505332Y-82478666D01*
X167552952Y-82335809D01*
X167648190Y-82240571D01*
X167743428Y-82192952D01*
X167933904Y-82145333D01*
X168076761Y-82145333D01*
X168267237Y-82192952D01*
X168362475Y-82240571D01*
X168457713Y-82335809D01*
X168505332Y-82478666D01*
X168505332Y-82716761D01*
D10*
X148166666Y-90130380D02*
X147690476Y-90130380D01*
X147642857Y-90606571D01*
X147690476Y-90558952D01*
X147785714Y-90511333D01*
X148023809Y-90511333D01*
X148119047Y-90558952D01*
X148166666Y-90606571D01*
X148214285Y-90701809D01*
X148214285Y-90939904D01*
X148166666Y-91035142D01*
X148119047Y-91082761D01*
X148023809Y-91130380D01*
X147785714Y-91130380D01*
X147690476Y-91082761D01*
X147642857Y-91035142D01*
X148547619Y-90130380D02*
X148785714Y-91130380D01*
X148976190Y-90416095D01*
X149166666Y-91130380D01*
X149404761Y-90130380D01*
D11*
X169158523Y-108233809D02*
X169272809Y-108271904D01*
X169463285Y-108271904D01*
X169539475Y-108233809D01*
X169577571Y-108195714D01*
X169615666Y-108119523D01*
X169615666Y-108043333D01*
X169577571Y-107967142D01*
X169539475Y-107929047D01*
X169463285Y-107890952D01*
X169310904Y-107852857D01*
X169234713Y-107814761D01*
X169196618Y-107776666D01*
X169158523Y-107700476D01*
X169158523Y-107624285D01*
X169196618Y-107548095D01*
X169234713Y-107510000D01*
X169310904Y-107471904D01*
X169501380Y-107471904D01*
X169615666Y-107510000D01*
X169958523Y-108271904D02*
X169958523Y-107471904D01*
X170148999Y-107471904D01*
X170263285Y-107510000D01*
X170339475Y-107586190D01*
X170377571Y-107662380D01*
X170415666Y-107814761D01*
X170415666Y-107929047D01*
X170377571Y-108081428D01*
X170339475Y-108157619D01*
X170263285Y-108233809D01*
X170148999Y-108271904D01*
X169958523Y-108271904D01*
X170720428Y-108043333D02*
X171101380Y-108043333D01*
X170644237Y-108271904D02*
X170910904Y-107471904D01*
X171177571Y-108271904D01*
X169139475Y-112471904D02*
X169634713Y-112471904D01*
X169368047Y-112776666D01*
X169482332Y-112776666D01*
X169558523Y-112814761D01*
X169596618Y-112852857D01*
X169634713Y-112929047D01*
X169634713Y-113119523D01*
X169596618Y-113195714D01*
X169558523Y-113233809D01*
X169482332Y-113271904D01*
X169253761Y-113271904D01*
X169177571Y-113233809D01*
X169139475Y-113195714D01*
X169863285Y-112471904D02*
X170129952Y-113271904D01*
X170396618Y-112471904D01*
X170587094Y-112471904D02*
X171082332Y-112471904D01*
X170815666Y-112776666D01*
X170929952Y-112776666D01*
X171006142Y-112814761D01*
X171044237Y-112852857D01*
X171082332Y-112929047D01*
X171082332Y-113119523D01*
X171044237Y-113195714D01*
X171006142Y-113233809D01*
X170929952Y-113271904D01*
X170701380Y-113271904D01*
X170625190Y-113233809D01*
X170587094Y-113195714D01*
D13*
%TO.C,REF\u002A\u002A*%
X165790000Y-83396267D02*
X165790000Y-83103733D01*
X166810000Y-83396267D02*
X166810000Y-83103733D01*
D14*
X138123377Y-109252315D02*
X138187860Y-109253975D01*
X138187860Y-109253975D02*
X138234493Y-109256945D01*
X138234493Y-109256945D02*
X138254841Y-109260088D01*
X138254841Y-109260088D02*
X138284607Y-109268065D01*
X138284607Y-109268065D02*
X138284607Y-110188530D01*
X138284607Y-110188530D02*
X138075071Y-110181259D01*
X138075071Y-110181259D02*
X137865237Y-110181523D01*
X137865237Y-110181523D02*
X137671049Y-110198382D01*
X137671049Y-110198382D02*
X137486610Y-110233075D01*
X137486610Y-110233075D02*
X137306022Y-110286839D01*
X137306022Y-110286839D02*
X137123387Y-110360911D01*
X137123387Y-110360911D02*
X137047679Y-110396879D01*
X137047679Y-110396879D02*
X136867128Y-110495977D01*
X136867128Y-110495977D02*
X136704488Y-110607326D01*
X136704488Y-110607326D02*
X136552091Y-110736408D01*
X136552091Y-110736408D02*
X136492812Y-110793705D01*
X136492812Y-110793705D02*
X136336175Y-110968861D01*
X136336175Y-110968861D02*
X136200663Y-111159520D01*
X136200663Y-111159520D02*
X136086956Y-111364394D01*
X136086956Y-111364394D02*
X135995734Y-111582193D01*
X135995734Y-111582193D02*
X135927675Y-111811629D01*
X135927675Y-111811629D02*
X135907516Y-111904197D01*
X135907516Y-111904197D02*
X135895367Y-111988244D01*
X135895367Y-111988244D02*
X135887256Y-112091234D01*
X135887256Y-112091234D02*
X135883175Y-112205965D01*
X135883175Y-112205965D02*
X135883116Y-112325234D01*
X135883116Y-112325234D02*
X135887074Y-112441837D01*
X135887074Y-112441837D02*
X135895041Y-112548571D01*
X135895041Y-112548571D02*
X135907009Y-112638233D01*
X135907009Y-112638233D02*
X135908247Y-112645031D01*
X135908247Y-112645031D02*
X135964101Y-112873759D01*
X135964101Y-112873759D02*
X136043489Y-113091965D01*
X136043489Y-113091965D02*
X136145121Y-113298177D01*
X136145121Y-113298177D02*
X136267712Y-113490928D01*
X136267712Y-113490928D02*
X136409971Y-113668748D01*
X136409971Y-113668748D02*
X136570611Y-113830168D01*
X136570611Y-113830168D02*
X136748345Y-113973719D01*
X136748345Y-113973719D02*
X136941883Y-114097931D01*
X136941883Y-114097931D02*
X137149938Y-114201336D01*
X137149938Y-114201336D02*
X137333427Y-114270535D01*
X137333427Y-114270535D02*
X137436567Y-114302118D01*
X137436567Y-114302118D02*
X137531297Y-114326129D01*
X137531297Y-114326129D02*
X137624060Y-114343463D01*
X137624060Y-114343463D02*
X137721296Y-114355016D01*
X137721296Y-114355016D02*
X137829448Y-114361680D01*
X137829448Y-114361680D02*
X137954957Y-114364352D01*
X137954957Y-114364352D02*
X138010101Y-114364504D01*
X138010101Y-114364504D02*
X138284607Y-114364186D01*
X138284607Y-114364186D02*
X138284607Y-115281164D01*
X138284607Y-115281164D02*
X138254841Y-115289141D01*
X138254841Y-115289141D02*
X138229441Y-115292138D01*
X138229441Y-115292138D02*
X138182446Y-115294203D01*
X138182446Y-115294203D02*
X138118700Y-115295382D01*
X138118700Y-115295382D02*
X138043048Y-115295723D01*
X138043048Y-115295723D02*
X137960336Y-115295274D01*
X137960336Y-115295274D02*
X137875407Y-115294083D01*
X137875407Y-115294083D02*
X137793107Y-115292197D01*
X137793107Y-115292197D02*
X137718281Y-115289663D01*
X137718281Y-115289663D02*
X137655773Y-115286531D01*
X137655773Y-115286531D02*
X137610428Y-115282847D01*
X137610428Y-115282847D02*
X137609919Y-115282789D01*
X137609919Y-115282789D02*
X137496919Y-115266341D01*
X137496919Y-115266341D02*
X137369318Y-115241706D01*
X137369318Y-115241706D02*
X137236852Y-115211083D01*
X137236852Y-115211083D02*
X137109256Y-115176667D01*
X137109256Y-115176667D02*
X137028174Y-115151536D01*
X137028174Y-115151536D02*
X136763637Y-115050498D01*
X136763637Y-115050498D02*
X136512913Y-114927513D01*
X136512913Y-114927513D02*
X136276995Y-114783777D01*
X136276995Y-114783777D02*
X136056870Y-114620487D01*
X136056870Y-114620487D02*
X135853530Y-114438838D01*
X135853530Y-114438838D02*
X135667963Y-114240026D01*
X135667963Y-114240026D02*
X135501160Y-114025247D01*
X135501160Y-114025247D02*
X135354111Y-113795698D01*
X135354111Y-113795698D02*
X135227805Y-113552573D01*
X135227805Y-113552573D02*
X135123232Y-113297070D01*
X135123232Y-113297070D02*
X135041382Y-113030383D01*
X135041382Y-113030383D02*
X134983245Y-112753709D01*
X134983245Y-112753709D02*
X134970028Y-112664875D01*
X134970028Y-112664875D02*
X134961572Y-112580107D01*
X134961572Y-112580107D02*
X134955753Y-112476118D01*
X134955753Y-112476118D02*
X134952572Y-112360009D01*
X134952572Y-112360009D02*
X134952029Y-112238887D01*
X134952029Y-112238887D02*
X134954124Y-112119854D01*
X134954124Y-112119854D02*
X134958856Y-112010014D01*
X134958856Y-112010014D02*
X134966227Y-111916472D01*
X134966227Y-111916472D02*
X134970028Y-111884354D01*
X134970028Y-111884354D02*
X135020949Y-111601706D01*
X135020949Y-111601706D02*
X135096395Y-111328614D01*
X135096395Y-111328614D02*
X135196109Y-111065714D01*
X135196109Y-111065714D02*
X135319836Y-110813637D01*
X135319836Y-110813637D02*
X135467318Y-110573017D01*
X135467318Y-110573017D02*
X135546142Y-110462218D01*
X135546142Y-110462218D02*
X135724420Y-110244723D01*
X135724420Y-110244723D02*
X135920423Y-110046344D01*
X135920423Y-110046344D02*
X136132788Y-109867882D01*
X136132788Y-109867882D02*
X136360149Y-109710133D01*
X136360149Y-109710133D02*
X136601143Y-109573897D01*
X136601143Y-109573897D02*
X136854403Y-109459971D01*
X136854403Y-109459971D02*
X137118567Y-109369153D01*
X137118567Y-109369153D02*
X137392269Y-109302241D01*
X137392269Y-109302241D02*
X137583070Y-109270813D01*
X137583070Y-109270813D02*
X137635544Y-109265490D01*
X137635544Y-109265490D02*
X137704408Y-109260930D01*
X137704408Y-109260930D02*
X137784771Y-109257212D01*
X137784771Y-109257212D02*
X137871740Y-109254413D01*
X137871740Y-109254413D02*
X137960426Y-109252612D01*
X137960426Y-109252612D02*
X138045935Y-109251887D01*
X138045935Y-109251887D02*
X138123377Y-109252315D01*
X138123377Y-109252315D02*
X138123377Y-109252315D01*
G36*
X138123377Y-109252315D02*
G01*
X138187860Y-109253975D01*
X138234493Y-109256945D01*
X138254841Y-109260088D01*
X138284607Y-109268065D01*
X138284607Y-110188530D01*
X138075071Y-110181259D01*
X137865237Y-110181523D01*
X137671049Y-110198382D01*
X137486610Y-110233075D01*
X137306022Y-110286839D01*
X137123387Y-110360911D01*
X137047679Y-110396879D01*
X136867128Y-110495977D01*
X136704488Y-110607326D01*
X136552091Y-110736408D01*
X136492812Y-110793705D01*
X136336175Y-110968861D01*
X136200663Y-111159520D01*
X136086956Y-111364394D01*
X135995734Y-111582193D01*
X135927675Y-111811629D01*
X135907516Y-111904197D01*
X135895367Y-111988244D01*
X135887256Y-112091234D01*
X135883175Y-112205965D01*
X135883116Y-112325234D01*
X135887074Y-112441837D01*
X135895041Y-112548571D01*
X135907009Y-112638233D01*
X135908247Y-112645031D01*
X135964101Y-112873759D01*
X136043489Y-113091965D01*
X136145121Y-113298177D01*
X136267712Y-113490928D01*
X136409971Y-113668748D01*
X136570611Y-113830168D01*
X136748345Y-113973719D01*
X136941883Y-114097931D01*
X137149938Y-114201336D01*
X137333427Y-114270535D01*
X137436567Y-114302118D01*
X137531297Y-114326129D01*
X137624060Y-114343463D01*
X137721296Y-114355016D01*
X137829448Y-114361680D01*
X137954957Y-114364352D01*
X138010101Y-114364504D01*
X138284607Y-114364186D01*
X138284607Y-115281164D01*
X138254841Y-115289141D01*
X138229441Y-115292138D01*
X138182446Y-115294203D01*
X138118700Y-115295382D01*
X138043048Y-115295723D01*
X137960336Y-115295274D01*
X137875407Y-115294083D01*
X137793107Y-115292197D01*
X137718281Y-115289663D01*
X137655773Y-115286531D01*
X137610428Y-115282847D01*
X137609919Y-115282789D01*
X137496919Y-115266341D01*
X137369318Y-115241706D01*
X137236852Y-115211083D01*
X137109256Y-115176667D01*
X137028174Y-115151536D01*
X136763637Y-115050498D01*
X136512913Y-114927513D01*
X136276995Y-114783777D01*
X136056870Y-114620487D01*
X135853530Y-114438838D01*
X135667963Y-114240026D01*
X135501160Y-114025247D01*
X135354111Y-113795698D01*
X135227805Y-113552573D01*
X135123232Y-113297070D01*
X135041382Y-113030383D01*
X134983245Y-112753709D01*
X134970028Y-112664875D01*
X134961572Y-112580107D01*
X134955753Y-112476118D01*
X134952572Y-112360009D01*
X134952029Y-112238887D01*
X134954124Y-112119854D01*
X134958856Y-112010014D01*
X134966227Y-111916472D01*
X134970028Y-111884354D01*
X135020949Y-111601706D01*
X135096395Y-111328614D01*
X135196109Y-111065714D01*
X135319836Y-110813637D01*
X135467318Y-110573017D01*
X135546142Y-110462218D01*
X135724420Y-110244723D01*
X135920423Y-110046344D01*
X136132788Y-109867882D01*
X136360149Y-109710133D01*
X136601143Y-109573897D01*
X136854403Y-109459971D01*
X137118567Y-109369153D01*
X137392269Y-109302241D01*
X137583070Y-109270813D01*
X137635544Y-109265490D01*
X137704408Y-109260930D01*
X137784771Y-109257212D01*
X137871740Y-109254413D01*
X137960426Y-109252612D01*
X138045935Y-109251887D01*
X138123377Y-109252315D01*
G37*
X138123377Y-109252315D02*
X138187860Y-109253975D01*
X138234493Y-109256945D01*
X138254841Y-109260088D01*
X138284607Y-109268065D01*
X138284607Y-110188530D01*
X138075071Y-110181259D01*
X137865237Y-110181523D01*
X137671049Y-110198382D01*
X137486610Y-110233075D01*
X137306022Y-110286839D01*
X137123387Y-110360911D01*
X137047679Y-110396879D01*
X136867128Y-110495977D01*
X136704488Y-110607326D01*
X136552091Y-110736408D01*
X136492812Y-110793705D01*
X136336175Y-110968861D01*
X136200663Y-111159520D01*
X136086956Y-111364394D01*
X135995734Y-111582193D01*
X135927675Y-111811629D01*
X135907516Y-111904197D01*
X135895367Y-111988244D01*
X135887256Y-112091234D01*
X135883175Y-112205965D01*
X135883116Y-112325234D01*
X135887074Y-112441837D01*
X135895041Y-112548571D01*
X135907009Y-112638233D01*
X135908247Y-112645031D01*
X135964101Y-112873759D01*
X136043489Y-113091965D01*
X136145121Y-113298177D01*
X136267712Y-113490928D01*
X136409971Y-113668748D01*
X136570611Y-113830168D01*
X136748345Y-113973719D01*
X136941883Y-114097931D01*
X137149938Y-114201336D01*
X137333427Y-114270535D01*
X137436567Y-114302118D01*
X137531297Y-114326129D01*
X137624060Y-114343463D01*
X137721296Y-114355016D01*
X137829448Y-114361680D01*
X137954957Y-114364352D01*
X138010101Y-114364504D01*
X138284607Y-114364186D01*
X138284607Y-115281164D01*
X138254841Y-115289141D01*
X138229441Y-115292138D01*
X138182446Y-115294203D01*
X138118700Y-115295382D01*
X138043048Y-115295723D01*
X137960336Y-115295274D01*
X137875407Y-115294083D01*
X137793107Y-115292197D01*
X137718281Y-115289663D01*
X137655773Y-115286531D01*
X137610428Y-115282847D01*
X137609919Y-115282789D01*
X137496919Y-115266341D01*
X137369318Y-115241706D01*
X137236852Y-115211083D01*
X137109256Y-115176667D01*
X137028174Y-115151536D01*
X136763637Y-115050498D01*
X136512913Y-114927513D01*
X136276995Y-114783777D01*
X136056870Y-114620487D01*
X135853530Y-114438838D01*
X135667963Y-114240026D01*
X135501160Y-114025247D01*
X135354111Y-113795698D01*
X135227805Y-113552573D01*
X135123232Y-113297070D01*
X135041382Y-113030383D01*
X134983245Y-112753709D01*
X134970028Y-112664875D01*
X134961572Y-112580107D01*
X134955753Y-112476118D01*
X134952572Y-112360009D01*
X134952029Y-112238887D01*
X134954124Y-112119854D01*
X134958856Y-112010014D01*
X134966227Y-111916472D01*
X134970028Y-111884354D01*
X135020949Y-111601706D01*
X135096395Y-111328614D01*
X135196109Y-111065714D01*
X135319836Y-110813637D01*
X135467318Y-110573017D01*
X135546142Y-110462218D01*
X135724420Y-110244723D01*
X135920423Y-110046344D01*
X136132788Y-109867882D01*
X136360149Y-109710133D01*
X136601143Y-109573897D01*
X136854403Y-109459971D01*
X137118567Y-109369153D01*
X137392269Y-109302241D01*
X137583070Y-109270813D01*
X137635544Y-109265490D01*
X137704408Y-109260930D01*
X137784771Y-109257212D01*
X137871740Y-109254413D01*
X137960426Y-109252612D01*
X138045935Y-109251887D01*
X138123377Y-109252315D01*
X143417525Y-110184406D02*
X143123175Y-110184695D01*
X143123175Y-110184695D02*
X143021200Y-110185120D01*
X143021200Y-110185120D02*
X142940545Y-110186408D01*
X142940545Y-110186408D02*
X142876078Y-110188914D01*
X142876078Y-110188914D02*
X142822666Y-110192996D01*
X142822666Y-110192996D02*
X142775178Y-110199008D01*
X142775178Y-110199008D02*
X142728479Y-110207308D01*
X142728479Y-110207308D02*
X142694579Y-110214436D01*
X142694579Y-110214436D02*
X142464739Y-110277754D01*
X142464739Y-110277754D02*
X142245422Y-110364012D01*
X142245422Y-110364012D02*
X142038391Y-110472009D01*
X142038391Y-110472009D02*
X141845410Y-110600544D01*
X141845410Y-110600544D02*
X141668239Y-110748418D01*
X141668239Y-110748418D02*
X141508643Y-110914430D01*
X141508643Y-110914430D02*
X141368383Y-111097379D01*
X141368383Y-111097379D02*
X141343744Y-111134449D01*
X141343744Y-111134449D02*
X141291946Y-111221402D01*
X141291946Y-111221402D02*
X141239045Y-111322820D01*
X141239045Y-111322820D02*
X141188026Y-111431866D01*
X141188026Y-111431866D02*
X141141872Y-111541702D01*
X141141872Y-111541702D02*
X141103565Y-111645488D01*
X141103565Y-111645488D02*
X141076088Y-111736388D01*
X141076088Y-111736388D02*
X141069994Y-111761984D01*
X141069994Y-111761984D02*
X141060629Y-111804979D01*
X141060629Y-111804979D02*
X142822211Y-111804979D01*
X142822211Y-111804979D02*
X142822211Y-112744250D01*
X142822211Y-112744250D02*
X141060629Y-112744250D01*
X141060629Y-112744250D02*
X141069994Y-112787244D01*
X141069994Y-112787244D02*
X141095054Y-112878611D01*
X141095054Y-112878611D02*
X141132542Y-112984469D01*
X141132542Y-112984469D02*
X141179375Y-113097878D01*
X141179375Y-113097878D02*
X141232472Y-113211892D01*
X141232472Y-113211892D02*
X141288750Y-113319569D01*
X141288750Y-113319569D02*
X141345126Y-113413967D01*
X141345126Y-113413967D02*
X141354582Y-113428319D01*
X141354582Y-113428319D02*
X141498324Y-113619791D01*
X141498324Y-113619791D02*
X141659523Y-113791630D01*
X141659523Y-113791630D02*
X141837180Y-113943163D01*
X141837180Y-113943163D02*
X142030299Y-114073719D01*
X142030299Y-114073719D02*
X142237881Y-114182624D01*
X142237881Y-114182624D02*
X142458928Y-114269206D01*
X142458928Y-114269206D02*
X142692445Y-114332794D01*
X142692445Y-114332794D02*
X142698146Y-114334021D01*
X142698146Y-114334021D02*
X142750728Y-114344622D01*
X142750728Y-114344622D02*
X142799148Y-114352513D01*
X142799148Y-114352513D02*
X142848799Y-114358078D01*
X142848799Y-114358078D02*
X142905071Y-114361702D01*
X142905071Y-114361702D02*
X142973358Y-114363769D01*
X142973358Y-114363769D02*
X143059049Y-114364664D01*
X143059049Y-114364664D02*
X143129789Y-114364799D01*
X143129789Y-114364799D02*
X143417523Y-114364776D01*
X143417523Y-114364776D02*
X143417523Y-115297479D01*
X143417523Y-115297479D02*
X143129789Y-115295762D01*
X143129789Y-115295762D02*
X143037814Y-115294709D01*
X143037814Y-115294709D02*
X142948081Y-115292766D01*
X142948081Y-115292766D02*
X142866348Y-115290126D01*
X142866348Y-115290126D02*
X142798369Y-115286981D01*
X142798369Y-115286981D02*
X142749901Y-115283526D01*
X142749901Y-115283526D02*
X142742836Y-115282789D01*
X142742836Y-115282789D02*
X142517427Y-115246594D01*
X142517427Y-115246594D02*
X142285576Y-115189376D01*
X142285576Y-115189376D02*
X142053615Y-115113284D01*
X142053615Y-115113284D02*
X141827875Y-115020465D01*
X141827875Y-115020465D02*
X141614689Y-114913068D01*
X141614689Y-114913068D02*
X141558887Y-114881135D01*
X141558887Y-114881135D02*
X141395346Y-114775667D01*
X141395346Y-114775667D02*
X141229404Y-114651545D01*
X141229404Y-114651545D02*
X141067617Y-114514431D01*
X141067617Y-114514431D02*
X140916540Y-114369982D01*
X140916540Y-114369982D02*
X140782730Y-114223859D01*
X140782730Y-114223859D02*
X140746183Y-114179607D01*
X140746183Y-114179607D02*
X140584863Y-113958012D01*
X140584863Y-113958012D02*
X140443538Y-113720378D01*
X140443538Y-113720378D02*
X140323215Y-113469089D01*
X140323215Y-113469089D02*
X140224901Y-113206532D01*
X140224901Y-113206532D02*
X140149602Y-112935092D01*
X140149602Y-112935092D02*
X140098325Y-112657155D01*
X140098325Y-112657155D02*
X140095780Y-112638416D01*
X140095780Y-112638416D02*
X140088831Y-112566751D01*
X140088831Y-112566751D02*
X140083898Y-112476046D01*
X140083898Y-112476046D02*
X140080982Y-112372923D01*
X140080982Y-112372923D02*
X140080085Y-112264009D01*
X140080085Y-112264009D02*
X140081209Y-112155925D01*
X140081209Y-112155925D02*
X140084356Y-112055298D01*
X140084356Y-112055298D02*
X140089528Y-111968752D01*
X140089528Y-111968752D02*
X140095573Y-111910812D01*
X140095573Y-111910812D02*
X140147529Y-111625894D01*
X140147529Y-111625894D02*
X140222759Y-111350354D01*
X140222759Y-111350354D02*
X140320581Y-111085809D01*
X140320581Y-111085809D02*
X140440311Y-110833877D01*
X140440311Y-110833877D02*
X140581266Y-110596177D01*
X140581266Y-110596177D02*
X140742763Y-110374325D01*
X140742763Y-110374325D02*
X140746183Y-110370079D01*
X140746183Y-110370079D02*
X140926470Y-110167121D01*
X140926470Y-110167121D02*
X141125612Y-109980656D01*
X141125612Y-109980656D02*
X141341163Y-109812214D01*
X141341163Y-109812214D02*
X141570675Y-109663325D01*
X141570675Y-109663325D02*
X141811699Y-109535517D01*
X141811699Y-109535517D02*
X142061790Y-109430322D01*
X142061790Y-109430322D02*
X142318499Y-109349267D01*
X142318499Y-109349267D02*
X142418809Y-109324769D01*
X142418809Y-109324769D02*
X142542720Y-109298938D01*
X142542720Y-109298938D02*
X142657890Y-109279592D01*
X142657890Y-109279592D02*
X142771710Y-109265981D01*
X142771710Y-109265981D02*
X142891575Y-109257356D01*
X142891575Y-109257356D02*
X143024877Y-109252968D01*
X143024877Y-109252968D02*
X143136403Y-109252008D01*
X143136403Y-109252008D02*
X143417523Y-109251750D01*
X143417523Y-109251750D02*
X143417525Y-110184406D01*
X143417525Y-110184406D02*
X143417525Y-110184406D01*
G36*
X143417525Y-110184406D02*
G01*
X143123175Y-110184695D01*
X143021200Y-110185120D01*
X142940545Y-110186408D01*
X142876078Y-110188914D01*
X142822666Y-110192996D01*
X142775178Y-110199008D01*
X142728479Y-110207308D01*
X142694579Y-110214436D01*
X142464739Y-110277754D01*
X142245422Y-110364012D01*
X142038391Y-110472009D01*
X141845410Y-110600544D01*
X141668239Y-110748418D01*
X141508643Y-110914430D01*
X141368383Y-111097379D01*
X141343744Y-111134449D01*
X141291946Y-111221402D01*
X141239045Y-111322820D01*
X141188026Y-111431866D01*
X141141872Y-111541702D01*
X141103565Y-111645488D01*
X141076088Y-111736388D01*
X141069994Y-111761984D01*
X141060629Y-111804979D01*
X142822211Y-111804979D01*
X142822211Y-112744250D01*
X141060629Y-112744250D01*
X141069994Y-112787244D01*
X141095054Y-112878611D01*
X141132542Y-112984469D01*
X141179375Y-113097878D01*
X141232472Y-113211892D01*
X141288750Y-113319569D01*
X141345126Y-113413967D01*
X141354582Y-113428319D01*
X141498324Y-113619791D01*
X141659523Y-113791630D01*
X141837180Y-113943163D01*
X142030299Y-114073719D01*
X142237881Y-114182624D01*
X142458928Y-114269206D01*
X142692445Y-114332794D01*
X142698146Y-114334021D01*
X142750728Y-114344622D01*
X142799148Y-114352513D01*
X142848799Y-114358078D01*
X142905071Y-114361702D01*
X142973358Y-114363769D01*
X143059049Y-114364664D01*
X143129789Y-114364799D01*
X143417523Y-114364776D01*
X143417523Y-115297479D01*
X143129789Y-115295762D01*
X143037814Y-115294709D01*
X142948081Y-115292766D01*
X142866348Y-115290126D01*
X142798369Y-115286981D01*
X142749901Y-115283526D01*
X142742836Y-115282789D01*
X142517427Y-115246594D01*
X142285576Y-115189376D01*
X142053615Y-115113284D01*
X141827875Y-115020465D01*
X141614689Y-114913068D01*
X141558887Y-114881135D01*
X141395346Y-114775667D01*
X141229404Y-114651545D01*
X141067617Y-114514431D01*
X140916540Y-114369982D01*
X140782730Y-114223859D01*
X140746183Y-114179607D01*
X140584863Y-113958012D01*
X140443538Y-113720378D01*
X140323215Y-113469089D01*
X140224901Y-113206532D01*
X140149602Y-112935092D01*
X140098325Y-112657155D01*
X140095780Y-112638416D01*
X140088831Y-112566751D01*
X140083898Y-112476046D01*
X140080982Y-112372923D01*
X140080085Y-112264009D01*
X140081209Y-112155925D01*
X140084356Y-112055298D01*
X140089528Y-111968752D01*
X140095573Y-111910812D01*
X140147529Y-111625894D01*
X140222759Y-111350354D01*
X140320581Y-111085809D01*
X140440311Y-110833877D01*
X140581266Y-110596177D01*
X140742763Y-110374325D01*
X140746183Y-110370079D01*
X140926470Y-110167121D01*
X141125612Y-109980656D01*
X141341163Y-109812214D01*
X141570675Y-109663325D01*
X141811699Y-109535517D01*
X142061790Y-109430322D01*
X142318499Y-109349267D01*
X142418809Y-109324769D01*
X142542720Y-109298938D01*
X142657890Y-109279592D01*
X142771710Y-109265981D01*
X142891575Y-109257356D01*
X143024877Y-109252968D01*
X143136403Y-109252008D01*
X143417523Y-109251750D01*
X143417525Y-110184406D01*
G37*
X143417525Y-110184406D02*
X143123175Y-110184695D01*
X143021200Y-110185120D01*
X142940545Y-110186408D01*
X142876078Y-110188914D01*
X142822666Y-110192996D01*
X142775178Y-110199008D01*
X142728479Y-110207308D01*
X142694579Y-110214436D01*
X142464739Y-110277754D01*
X142245422Y-110364012D01*
X142038391Y-110472009D01*
X141845410Y-110600544D01*
X141668239Y-110748418D01*
X141508643Y-110914430D01*
X141368383Y-111097379D01*
X141343744Y-111134449D01*
X141291946Y-111221402D01*
X141239045Y-111322820D01*
X141188026Y-111431866D01*
X141141872Y-111541702D01*
X141103565Y-111645488D01*
X141076088Y-111736388D01*
X141069994Y-111761984D01*
X141060629Y-111804979D01*
X142822211Y-111804979D01*
X142822211Y-112744250D01*
X141060629Y-112744250D01*
X141069994Y-112787244D01*
X141095054Y-112878611D01*
X141132542Y-112984469D01*
X141179375Y-113097878D01*
X141232472Y-113211892D01*
X141288750Y-113319569D01*
X141345126Y-113413967D01*
X141354582Y-113428319D01*
X141498324Y-113619791D01*
X141659523Y-113791630D01*
X141837180Y-113943163D01*
X142030299Y-114073719D01*
X142237881Y-114182624D01*
X142458928Y-114269206D01*
X142692445Y-114332794D01*
X142698146Y-114334021D01*
X142750728Y-114344622D01*
X142799148Y-114352513D01*
X142848799Y-114358078D01*
X142905071Y-114361702D01*
X142973358Y-114363769D01*
X143059049Y-114364664D01*
X143129789Y-114364799D01*
X143417523Y-114364776D01*
X143417523Y-115297479D01*
X143129789Y-115295762D01*
X143037814Y-115294709D01*
X142948081Y-115292766D01*
X142866348Y-115290126D01*
X142798369Y-115286981D01*
X142749901Y-115283526D01*
X142742836Y-115282789D01*
X142517427Y-115246594D01*
X142285576Y-115189376D01*
X142053615Y-115113284D01*
X141827875Y-115020465D01*
X141614689Y-114913068D01*
X141558887Y-114881135D01*
X141395346Y-114775667D01*
X141229404Y-114651545D01*
X141067617Y-114514431D01*
X140916540Y-114369982D01*
X140782730Y-114223859D01*
X140746183Y-114179607D01*
X140584863Y-113958012D01*
X140443538Y-113720378D01*
X140323215Y-113469089D01*
X140224901Y-113206532D01*
X140149602Y-112935092D01*
X140098325Y-112657155D01*
X140095780Y-112638416D01*
X140088831Y-112566751D01*
X140083898Y-112476046D01*
X140080982Y-112372923D01*
X140080085Y-112264009D01*
X140081209Y-112155925D01*
X140084356Y-112055298D01*
X140089528Y-111968752D01*
X140095573Y-111910812D01*
X140147529Y-111625894D01*
X140222759Y-111350354D01*
X140320581Y-111085809D01*
X140440311Y-110833877D01*
X140581266Y-110596177D01*
X140742763Y-110374325D01*
X140746183Y-110370079D01*
X140926470Y-110167121D01*
X141125612Y-109980656D01*
X141341163Y-109812214D01*
X141570675Y-109663325D01*
X141811699Y-109535517D01*
X142061790Y-109430322D01*
X142318499Y-109349267D01*
X142418809Y-109324769D01*
X142542720Y-109298938D01*
X142657890Y-109279592D01*
X142771710Y-109265981D01*
X142891575Y-109257356D01*
X143024877Y-109252968D01*
X143136403Y-109252008D01*
X143417523Y-109251750D01*
X143417525Y-110184406D01*
X127506284Y-112559158D02*
X127538809Y-112571736D01*
X127538809Y-112571736D02*
X127588383Y-112596712D01*
X127588383Y-112596712D02*
X127659564Y-112635876D01*
X127659564Y-112635876D02*
X127665106Y-112638988D01*
X127665106Y-112638988D02*
X127730664Y-112676476D01*
X127730664Y-112676476D02*
X127785988Y-112709319D01*
X127785988Y-112709319D02*
X127825645Y-112734205D01*
X127825645Y-112734205D02*
X127844202Y-112747820D01*
X127844202Y-112747820D02*
X127844721Y-112748487D01*
X127844721Y-112748487D02*
X127840238Y-112767390D01*
X127840238Y-112767390D02*
X127819676Y-112809605D01*
X127819676Y-112809605D02*
X127784373Y-112872832D01*
X127784373Y-112872832D02*
X127735670Y-112954772D01*
X127735670Y-112954772D02*
X127674908Y-113053122D01*
X127674908Y-113053122D02*
X127603426Y-113165585D01*
X127603426Y-113165585D02*
X127585635Y-113193165D01*
X127585635Y-113193165D02*
X127539283Y-113269699D01*
X127539283Y-113269699D02*
X127505532Y-113335556D01*
X127505532Y-113335556D02*
X127487343Y-113384782D01*
X127487343Y-113384782D02*
X127485476Y-113394507D01*
X127485476Y-113394507D02*
X127486305Y-113437312D01*
X127486305Y-113437312D02*
X127495584Y-113505209D01*
X127495584Y-113505209D02*
X127512158Y-113593843D01*
X127512158Y-113593843D02*
X127534870Y-113698859D01*
X127534870Y-113698859D02*
X127562563Y-113815902D01*
X127562563Y-113815902D02*
X127594080Y-113940616D01*
X127594080Y-113940616D02*
X127628265Y-114068645D01*
X127628265Y-114068645D02*
X127663961Y-114195634D01*
X127663961Y-114195634D02*
X127700011Y-114317228D01*
X127700011Y-114317228D02*
X127735258Y-114429072D01*
X127735258Y-114429072D02*
X127768546Y-114526810D01*
X127768546Y-114526810D02*
X127798718Y-114606087D01*
X127798718Y-114606087D02*
X127819751Y-114653122D01*
X127819751Y-114653122D02*
X127844527Y-114703225D01*
X127844527Y-114703225D02*
X127867920Y-114751168D01*
X127867920Y-114751168D02*
X127869187Y-114753793D01*
X127869187Y-114753793D02*
X127907889Y-114802220D01*
X127907889Y-114802220D02*
X127964374Y-114834828D01*
X127964374Y-114834828D02*
X128030129Y-114850454D01*
X128030129Y-114850454D02*
X128096641Y-114847937D01*
X128096641Y-114847937D02*
X128155395Y-114826114D01*
X128155395Y-114826114D02*
X128188448Y-114797382D01*
X128188448Y-114797382D02*
X128236049Y-114718583D01*
X128236049Y-114718583D02*
X128270929Y-114620378D01*
X128270929Y-114620378D02*
X128290067Y-114512779D01*
X128290067Y-114512779D02*
X128292778Y-114451780D01*
X128292778Y-114451780D02*
X128281860Y-114337935D01*
X128281860Y-114337935D02*
X128249814Y-114243660D01*
X128249814Y-114243660D02*
X128194916Y-114164379D01*
X128194916Y-114164379D02*
X128177797Y-114146733D01*
X128177797Y-114146733D02*
X128126851Y-114097235D01*
X128126851Y-114097235D02*
X128123353Y-113747362D01*
X128123353Y-113747362D02*
X128119854Y-113397489D01*
X128119854Y-113397489D02*
X128209008Y-113262531D01*
X128209008Y-113262531D02*
X128250844Y-113201445D01*
X128250844Y-113201445D02*
X128291135Y-113146493D01*
X128291135Y-113146493D02*
X128324133Y-113105336D01*
X128324133Y-113105336D02*
X128338316Y-113090192D01*
X128338316Y-113090192D02*
X128378471Y-113052810D01*
X128378471Y-113052810D02*
X128432855Y-113082098D01*
X128432855Y-113082098D02*
X128467229Y-113103084D01*
X128467229Y-113103084D02*
X128486036Y-113119378D01*
X128486036Y-113119378D02*
X128487239Y-113122307D01*
X128487239Y-113122307D02*
X128500093Y-113134728D01*
X128500093Y-113134728D02*
X128522086Y-113143977D01*
X128522086Y-113143977D02*
X128543340Y-113152313D01*
X128543340Y-113152313D02*
X128575884Y-113168149D01*
X128575884Y-113168149D02*
X128622512Y-113193033D01*
X128622512Y-113193033D02*
X128686019Y-113228509D01*
X128686019Y-113228509D02*
X128769198Y-113276123D01*
X128769198Y-113276123D02*
X128874843Y-113337422D01*
X128874843Y-113337422D02*
X128932252Y-113370932D01*
X128932252Y-113370932D02*
X128999784Y-113411071D01*
X128999784Y-113411071D02*
X129044075Y-113439659D01*
X129044075Y-113439659D02*
X129069045Y-113460039D01*
X129069045Y-113460039D02*
X129078613Y-113475553D01*
X129078613Y-113475553D02*
X129076698Y-113489546D01*
X129076698Y-113489546D02*
X129075101Y-113492796D01*
X129075101Y-113492796D02*
X129059566Y-113513266D01*
X129059566Y-113513266D02*
X129026326Y-113551665D01*
X129026326Y-113551665D02*
X128979252Y-113603696D01*
X128979252Y-113603696D02*
X128922218Y-113665066D01*
X128922218Y-113665066D02*
X128872890Y-113717090D01*
X128872890Y-113717090D02*
X128759220Y-113840567D01*
X128759220Y-113840567D02*
X128670295Y-113947591D01*
X128670295Y-113947591D02*
X128605324Y-114039240D01*
X128605324Y-114039240D02*
X128563511Y-114116588D01*
X128563511Y-114116588D02*
X128549407Y-114155866D01*
X128549407Y-114155866D02*
X128543582Y-114190249D01*
X128543582Y-114190249D02*
X128537565Y-114248899D01*
X128537565Y-114248899D02*
X128531886Y-114325117D01*
X128531886Y-114325117D02*
X128527074Y-114412202D01*
X128527074Y-114412202D02*
X128524809Y-114467268D01*
X128524809Y-114467268D02*
X128521649Y-114562464D01*
X128521649Y-114562464D02*
X128520259Y-114632062D01*
X128520259Y-114632062D02*
X128521048Y-114681409D01*
X128521048Y-114681409D02*
X128524425Y-114715854D01*
X128524425Y-114715854D02*
X128530798Y-114740743D01*
X128530798Y-114740743D02*
X128540577Y-114761425D01*
X128540577Y-114761425D02*
X128548257Y-114774053D01*
X128548257Y-114774053D02*
X128592611Y-114822726D01*
X128592611Y-114822726D02*
X128649764Y-114856645D01*
X128649764Y-114856645D02*
X128709898Y-114871438D01*
X128709898Y-114871438D02*
X128754963Y-114866086D01*
X128754963Y-114866086D02*
X128795766Y-114842930D01*
X128795766Y-114842930D02*
X128846914Y-114801462D01*
X128846914Y-114801462D02*
X128901232Y-114748912D01*
X128901232Y-114748912D02*
X128951547Y-114692516D01*
X128951547Y-114692516D02*
X128990684Y-114639505D01*
X128990684Y-114639505D02*
X129005095Y-114613889D01*
X129005095Y-114613889D02*
X129026681Y-114578814D01*
X129026681Y-114578814D02*
X129065943Y-114525389D01*
X129065943Y-114525389D02*
X129119292Y-114457789D01*
X129119292Y-114457789D02*
X129183142Y-114380190D01*
X129183142Y-114380190D02*
X129253905Y-114296768D01*
X129253905Y-114296768D02*
X129327994Y-114211698D01*
X129327994Y-114211698D02*
X129401822Y-114129155D01*
X129401822Y-114129155D02*
X129471801Y-114053316D01*
X129471801Y-114053316D02*
X129534345Y-113988356D01*
X129534345Y-113988356D02*
X129583450Y-113940669D01*
X129583450Y-113940669D02*
X129637969Y-113893032D01*
X129637969Y-113893032D02*
X129683832Y-113857908D01*
X129683832Y-113857908D02*
X129716001Y-113838949D01*
X129716001Y-113838949D02*
X129726679Y-113836864D01*
X129726679Y-113836864D02*
X129743043Y-113845274D01*
X129743043Y-113845274D02*
X129783861Y-113867846D01*
X129783861Y-113867846D02*
X129846776Y-113903224D01*
X129846776Y-113903224D02*
X129929434Y-113950054D01*
X129929434Y-113950054D02*
X130029479Y-114006981D01*
X130029479Y-114006981D02*
X130144556Y-114072649D01*
X130144556Y-114072649D02*
X130272309Y-114145703D01*
X130272309Y-114145703D02*
X130410384Y-114224788D01*
X130410384Y-114224788D02*
X130556424Y-114308548D01*
X130556424Y-114308548D02*
X130708074Y-114395629D01*
X130708074Y-114395629D02*
X130862980Y-114484676D01*
X130862980Y-114484676D02*
X131018785Y-114574332D01*
X131018785Y-114574332D02*
X131173134Y-114663243D01*
X131173134Y-114663243D02*
X131323672Y-114750054D01*
X131323672Y-114750054D02*
X131468044Y-114833409D01*
X131468044Y-114833409D02*
X131603894Y-114911954D01*
X131603894Y-114911954D02*
X131728867Y-114984333D01*
X131728867Y-114984333D02*
X131840607Y-115049190D01*
X131840607Y-115049190D02*
X131936760Y-115105171D01*
X131936760Y-115105171D02*
X132014969Y-115150920D01*
X132014969Y-115150920D02*
X132072879Y-115185083D01*
X132072879Y-115185083D02*
X132108136Y-115206304D01*
X132108136Y-115206304D02*
X132118355Y-115212963D01*
X132118355Y-115212963D02*
X132104592Y-115214280D01*
X132104592Y-115214280D02*
X132061294Y-115215559D01*
X132061294Y-115215559D02*
X131989904Y-115216796D01*
X131989904Y-115216796D02*
X131891863Y-115217983D01*
X131891863Y-115217983D02*
X131768612Y-115219115D01*
X131768612Y-115219115D02*
X131621593Y-115220186D01*
X131621593Y-115220186D02*
X131452247Y-115221189D01*
X131452247Y-115221189D02*
X131262016Y-115222119D01*
X131262016Y-115222119D02*
X131052341Y-115222968D01*
X131052341Y-115222968D02*
X130824663Y-115223732D01*
X130824663Y-115223732D02*
X130580425Y-115224403D01*
X130580425Y-115224403D02*
X130321067Y-115224976D01*
X130321067Y-115224976D02*
X130048031Y-115225444D01*
X130048031Y-115225444D02*
X129762758Y-115225802D01*
X129762758Y-115225802D02*
X129466690Y-115226042D01*
X129466690Y-115226042D02*
X129161269Y-115226159D01*
X129161269Y-115226159D02*
X129033114Y-115226171D01*
X129033114Y-115226171D02*
X125933160Y-115226171D01*
X125933160Y-115226171D02*
X126154243Y-114842847D01*
X126154243Y-114842847D02*
X126201046Y-114761680D01*
X126201046Y-114761680D02*
X126261292Y-114657166D01*
X126261292Y-114657166D02*
X126332968Y-114532801D01*
X126332968Y-114532801D02*
X126414059Y-114392082D01*
X126414059Y-114392082D02*
X126502552Y-114238503D01*
X126502552Y-114238503D02*
X126596430Y-114075562D01*
X126596430Y-114075562D02*
X126693681Y-113906754D01*
X126693681Y-113906754D02*
X126792290Y-113735575D01*
X126792290Y-113735575D02*
X126890243Y-113565521D01*
X126890243Y-113565521D02*
X126915015Y-113522512D01*
X126915015Y-113522512D02*
X127005342Y-113365857D01*
X127005342Y-113365857D02*
X127091479Y-113216803D01*
X127091479Y-113216803D02*
X127172132Y-113077568D01*
X127172132Y-113077568D02*
X127246006Y-112950371D01*
X127246006Y-112950371D02*
X127311807Y-112837432D01*
X127311807Y-112837432D02*
X127368240Y-112740968D01*
X127368240Y-112740968D02*
X127414011Y-112663200D01*
X127414011Y-112663200D02*
X127447825Y-112606346D01*
X127447825Y-112606346D02*
X127468388Y-112572625D01*
X127468388Y-112572625D02*
X127474143Y-112564040D01*
X127474143Y-112564040D02*
X127486248Y-112557189D01*
X127486248Y-112557189D02*
X127506284Y-112559158D01*
X127506284Y-112559158D02*
X127506284Y-112559158D01*
G36*
X127506284Y-112559158D02*
G01*
X127538809Y-112571736D01*
X127588383Y-112596712D01*
X127659564Y-112635876D01*
X127665106Y-112638988D01*
X127730664Y-112676476D01*
X127785988Y-112709319D01*
X127825645Y-112734205D01*
X127844202Y-112747820D01*
X127844721Y-112748487D01*
X127840238Y-112767390D01*
X127819676Y-112809605D01*
X127784373Y-112872832D01*
X127735670Y-112954772D01*
X127674908Y-113053122D01*
X127603426Y-113165585D01*
X127585635Y-113193165D01*
X127539283Y-113269699D01*
X127505532Y-113335556D01*
X127487343Y-113384782D01*
X127485476Y-113394507D01*
X127486305Y-113437312D01*
X127495584Y-113505209D01*
X127512158Y-113593843D01*
X127534870Y-113698859D01*
X127562563Y-113815902D01*
X127594080Y-113940616D01*
X127628265Y-114068645D01*
X127663961Y-114195634D01*
X127700011Y-114317228D01*
X127735258Y-114429072D01*
X127768546Y-114526810D01*
X127798718Y-114606087D01*
X127819751Y-114653122D01*
X127844527Y-114703225D01*
X127867920Y-114751168D01*
X127869187Y-114753793D01*
X127907889Y-114802220D01*
X127964374Y-114834828D01*
X128030129Y-114850454D01*
X128096641Y-114847937D01*
X128155395Y-114826114D01*
X128188448Y-114797382D01*
X128236049Y-114718583D01*
X128270929Y-114620378D01*
X128290067Y-114512779D01*
X128292778Y-114451780D01*
X128281860Y-114337935D01*
X128249814Y-114243660D01*
X128194916Y-114164379D01*
X128177797Y-114146733D01*
X128126851Y-114097235D01*
X128123353Y-113747362D01*
X128119854Y-113397489D01*
X128209008Y-113262531D01*
X128250844Y-113201445D01*
X128291135Y-113146493D01*
X128324133Y-113105336D01*
X128338316Y-113090192D01*
X128378471Y-113052810D01*
X128432855Y-113082098D01*
X128467229Y-113103084D01*
X128486036Y-113119378D01*
X128487239Y-113122307D01*
X128500093Y-113134728D01*
X128522086Y-113143977D01*
X128543340Y-113152313D01*
X128575884Y-113168149D01*
X128622512Y-113193033D01*
X128686019Y-113228509D01*
X128769198Y-113276123D01*
X128874843Y-113337422D01*
X128932252Y-113370932D01*
X128999784Y-113411071D01*
X129044075Y-113439659D01*
X129069045Y-113460039D01*
X129078613Y-113475553D01*
X129076698Y-113489546D01*
X129075101Y-113492796D01*
X129059566Y-113513266D01*
X129026326Y-113551665D01*
X128979252Y-113603696D01*
X128922218Y-113665066D01*
X128872890Y-113717090D01*
X128759220Y-113840567D01*
X128670295Y-113947591D01*
X128605324Y-114039240D01*
X128563511Y-114116588D01*
X128549407Y-114155866D01*
X128543582Y-114190249D01*
X128537565Y-114248899D01*
X128531886Y-114325117D01*
X128527074Y-114412202D01*
X128524809Y-114467268D01*
X128521649Y-114562464D01*
X128520259Y-114632062D01*
X128521048Y-114681409D01*
X128524425Y-114715854D01*
X128530798Y-114740743D01*
X128540577Y-114761425D01*
X128548257Y-114774053D01*
X128592611Y-114822726D01*
X128649764Y-114856645D01*
X128709898Y-114871438D01*
X128754963Y-114866086D01*
X128795766Y-114842930D01*
X128846914Y-114801462D01*
X128901232Y-114748912D01*
X128951547Y-114692516D01*
X128990684Y-114639505D01*
X129005095Y-114613889D01*
X129026681Y-114578814D01*
X129065943Y-114525389D01*
X129119292Y-114457789D01*
X129183142Y-114380190D01*
X129253905Y-114296768D01*
X129327994Y-114211698D01*
X129401822Y-114129155D01*
X129471801Y-114053316D01*
X129534345Y-113988356D01*
X129583450Y-113940669D01*
X129637969Y-113893032D01*
X129683832Y-113857908D01*
X129716001Y-113838949D01*
X129726679Y-113836864D01*
X129743043Y-113845274D01*
X129783861Y-113867846D01*
X129846776Y-113903224D01*
X129929434Y-113950054D01*
X130029479Y-114006981D01*
X130144556Y-114072649D01*
X130272309Y-114145703D01*
X130410384Y-114224788D01*
X130556424Y-114308548D01*
X130708074Y-114395629D01*
X130862980Y-114484676D01*
X131018785Y-114574332D01*
X131173134Y-114663243D01*
X131323672Y-114750054D01*
X131468044Y-114833409D01*
X131603894Y-114911954D01*
X131728867Y-114984333D01*
X131840607Y-115049190D01*
X131936760Y-115105171D01*
X132014969Y-115150920D01*
X132072879Y-115185083D01*
X132108136Y-115206304D01*
X132118355Y-115212963D01*
X132104592Y-115214280D01*
X132061294Y-115215559D01*
X131989904Y-115216796D01*
X131891863Y-115217983D01*
X131768612Y-115219115D01*
X131621593Y-115220186D01*
X131452247Y-115221189D01*
X131262016Y-115222119D01*
X131052341Y-115222968D01*
X130824663Y-115223732D01*
X130580425Y-115224403D01*
X130321067Y-115224976D01*
X130048031Y-115225444D01*
X129762758Y-115225802D01*
X129466690Y-115226042D01*
X129161269Y-115226159D01*
X129033114Y-115226171D01*
X125933160Y-115226171D01*
X126154243Y-114842847D01*
X126201046Y-114761680D01*
X126261292Y-114657166D01*
X126332968Y-114532801D01*
X126414059Y-114392082D01*
X126502552Y-114238503D01*
X126596430Y-114075562D01*
X126693681Y-113906754D01*
X126792290Y-113735575D01*
X126890243Y-113565521D01*
X126915015Y-113522512D01*
X127005342Y-113365857D01*
X127091479Y-113216803D01*
X127172132Y-113077568D01*
X127246006Y-112950371D01*
X127311807Y-112837432D01*
X127368240Y-112740968D01*
X127414011Y-112663200D01*
X127447825Y-112606346D01*
X127468388Y-112572625D01*
X127474143Y-112564040D01*
X127486248Y-112557189D01*
X127506284Y-112559158D01*
G37*
X127506284Y-112559158D02*
X127538809Y-112571736D01*
X127588383Y-112596712D01*
X127659564Y-112635876D01*
X127665106Y-112638988D01*
X127730664Y-112676476D01*
X127785988Y-112709319D01*
X127825645Y-112734205D01*
X127844202Y-112747820D01*
X127844721Y-112748487D01*
X127840238Y-112767390D01*
X127819676Y-112809605D01*
X127784373Y-112872832D01*
X127735670Y-112954772D01*
X127674908Y-113053122D01*
X127603426Y-113165585D01*
X127585635Y-113193165D01*
X127539283Y-113269699D01*
X127505532Y-113335556D01*
X127487343Y-113384782D01*
X127485476Y-113394507D01*
X127486305Y-113437312D01*
X127495584Y-113505209D01*
X127512158Y-113593843D01*
X127534870Y-113698859D01*
X127562563Y-113815902D01*
X127594080Y-113940616D01*
X127628265Y-114068645D01*
X127663961Y-114195634D01*
X127700011Y-114317228D01*
X127735258Y-114429072D01*
X127768546Y-114526810D01*
X127798718Y-114606087D01*
X127819751Y-114653122D01*
X127844527Y-114703225D01*
X127867920Y-114751168D01*
X127869187Y-114753793D01*
X127907889Y-114802220D01*
X127964374Y-114834828D01*
X128030129Y-114850454D01*
X128096641Y-114847937D01*
X128155395Y-114826114D01*
X128188448Y-114797382D01*
X128236049Y-114718583D01*
X128270929Y-114620378D01*
X128290067Y-114512779D01*
X128292778Y-114451780D01*
X128281860Y-114337935D01*
X128249814Y-114243660D01*
X128194916Y-114164379D01*
X128177797Y-114146733D01*
X128126851Y-114097235D01*
X128123353Y-113747362D01*
X128119854Y-113397489D01*
X128209008Y-113262531D01*
X128250844Y-113201445D01*
X128291135Y-113146493D01*
X128324133Y-113105336D01*
X128338316Y-113090192D01*
X128378471Y-113052810D01*
X128432855Y-113082098D01*
X128467229Y-113103084D01*
X128486036Y-113119378D01*
X128487239Y-113122307D01*
X128500093Y-113134728D01*
X128522086Y-113143977D01*
X128543340Y-113152313D01*
X128575884Y-113168149D01*
X128622512Y-113193033D01*
X128686019Y-113228509D01*
X128769198Y-113276123D01*
X128874843Y-113337422D01*
X128932252Y-113370932D01*
X128999784Y-113411071D01*
X129044075Y-113439659D01*
X129069045Y-113460039D01*
X129078613Y-113475553D01*
X129076698Y-113489546D01*
X129075101Y-113492796D01*
X129059566Y-113513266D01*
X129026326Y-113551665D01*
X128979252Y-113603696D01*
X128922218Y-113665066D01*
X128872890Y-113717090D01*
X128759220Y-113840567D01*
X128670295Y-113947591D01*
X128605324Y-114039240D01*
X128563511Y-114116588D01*
X128549407Y-114155866D01*
X128543582Y-114190249D01*
X128537565Y-114248899D01*
X128531886Y-114325117D01*
X128527074Y-114412202D01*
X128524809Y-114467268D01*
X128521649Y-114562464D01*
X128520259Y-114632062D01*
X128521048Y-114681409D01*
X128524425Y-114715854D01*
X128530798Y-114740743D01*
X128540577Y-114761425D01*
X128548257Y-114774053D01*
X128592611Y-114822726D01*
X128649764Y-114856645D01*
X128709898Y-114871438D01*
X128754963Y-114866086D01*
X128795766Y-114842930D01*
X128846914Y-114801462D01*
X128901232Y-114748912D01*
X128951547Y-114692516D01*
X128990684Y-114639505D01*
X129005095Y-114613889D01*
X129026681Y-114578814D01*
X129065943Y-114525389D01*
X129119292Y-114457789D01*
X129183142Y-114380190D01*
X129253905Y-114296768D01*
X129327994Y-114211698D01*
X129401822Y-114129155D01*
X129471801Y-114053316D01*
X129534345Y-113988356D01*
X129583450Y-113940669D01*
X129637969Y-113893032D01*
X129683832Y-113857908D01*
X129716001Y-113838949D01*
X129726679Y-113836864D01*
X129743043Y-113845274D01*
X129783861Y-113867846D01*
X129846776Y-113903224D01*
X129929434Y-113950054D01*
X130029479Y-114006981D01*
X130144556Y-114072649D01*
X130272309Y-114145703D01*
X130410384Y-114224788D01*
X130556424Y-114308548D01*
X130708074Y-114395629D01*
X130862980Y-114484676D01*
X131018785Y-114574332D01*
X131173134Y-114663243D01*
X131323672Y-114750054D01*
X131468044Y-114833409D01*
X131603894Y-114911954D01*
X131728867Y-114984333D01*
X131840607Y-115049190D01*
X131936760Y-115105171D01*
X132014969Y-115150920D01*
X132072879Y-115185083D01*
X132108136Y-115206304D01*
X132118355Y-115212963D01*
X132104592Y-115214280D01*
X132061294Y-115215559D01*
X131989904Y-115216796D01*
X131891863Y-115217983D01*
X131768612Y-115219115D01*
X131621593Y-115220186D01*
X131452247Y-115221189D01*
X131262016Y-115222119D01*
X131052341Y-115222968D01*
X130824663Y-115223732D01*
X130580425Y-115224403D01*
X130321067Y-115224976D01*
X130048031Y-115225444D01*
X129762758Y-115225802D01*
X129466690Y-115226042D01*
X129161269Y-115226159D01*
X129033114Y-115226171D01*
X125933160Y-115226171D01*
X126154243Y-114842847D01*
X126201046Y-114761680D01*
X126261292Y-114657166D01*
X126332968Y-114532801D01*
X126414059Y-114392082D01*
X126502552Y-114238503D01*
X126596430Y-114075562D01*
X126693681Y-113906754D01*
X126792290Y-113735575D01*
X126890243Y-113565521D01*
X126915015Y-113522512D01*
X127005342Y-113365857D01*
X127091479Y-113216803D01*
X127172132Y-113077568D01*
X127246006Y-112950371D01*
X127311807Y-112837432D01*
X127368240Y-112740968D01*
X127414011Y-112663200D01*
X127447825Y-112606346D01*
X127468388Y-112572625D01*
X127474143Y-112564040D01*
X127486248Y-112557189D01*
X127506284Y-112559158D01*
X129348233Y-109353835D02*
X129371255Y-109391245D01*
X129371255Y-109391245D02*
X129406724Y-109450514D01*
X129406724Y-109450514D02*
X129453186Y-109529118D01*
X129453186Y-109529118D02*
X129509186Y-109624538D01*
X129509186Y-109624538D02*
X129573271Y-109734250D01*
X129573271Y-109734250D02*
X129643986Y-109855734D01*
X129643986Y-109855734D02*
X129719877Y-109986468D01*
X129719877Y-109986468D02*
X129799489Y-110123930D01*
X129799489Y-110123930D02*
X129881368Y-110265598D01*
X129881368Y-110265598D02*
X129964060Y-110408951D01*
X129964060Y-110408951D02*
X130046111Y-110551467D01*
X130046111Y-110551467D02*
X130126066Y-110690624D01*
X130126066Y-110690624D02*
X130202471Y-110823901D01*
X130202471Y-110823901D02*
X130273872Y-110948776D01*
X130273872Y-110948776D02*
X130338814Y-111062727D01*
X130338814Y-111062727D02*
X130395843Y-111163233D01*
X130395843Y-111163233D02*
X130443505Y-111247772D01*
X130443505Y-111247772D02*
X130480345Y-111313822D01*
X130480345Y-111313822D02*
X130504910Y-111358862D01*
X130504910Y-111358862D02*
X130515744Y-111380370D01*
X130515744Y-111380370D02*
X130516141Y-111381714D01*
X130516141Y-111381714D02*
X130502691Y-111399965D01*
X130502691Y-111399965D02*
X130465304Y-111427882D01*
X130465304Y-111427882D02*
X130408425Y-111462725D01*
X130408425Y-111462725D02*
X130336502Y-111501754D01*
X130336502Y-111501754D02*
X130261205Y-111538843D01*
X130261205Y-111538843D02*
X130158750Y-111583817D01*
X130158750Y-111583817D02*
X130051007Y-111624226D01*
X130051007Y-111624226D02*
X129934263Y-111660969D01*
X129934263Y-111660969D02*
X129804808Y-111694942D01*
X129804808Y-111694942D02*
X129658930Y-111727044D01*
X129658930Y-111727044D02*
X129492916Y-111758173D01*
X129492916Y-111758173D02*
X129303056Y-111789227D01*
X129303056Y-111789227D02*
X129106659Y-111818145D01*
X129106659Y-111818145D02*
X128936024Y-111843800D01*
X128936024Y-111843800D02*
X128792735Y-111869198D01*
X128792735Y-111869198D02*
X128673198Y-111895602D01*
X128673198Y-111895602D02*
X128573820Y-111924273D01*
X128573820Y-111924273D02*
X128491008Y-111956473D01*
X128491008Y-111956473D02*
X128421168Y-111993465D01*
X128421168Y-111993465D02*
X128360708Y-112036512D01*
X128360708Y-112036512D02*
X128306035Y-112086875D01*
X128306035Y-112086875D02*
X128288404Y-112105583D01*
X128288404Y-112105583D02*
X128250190Y-112149139D01*
X128250190Y-112149139D02*
X128221922Y-112184682D01*
X128221922Y-112184682D02*
X128208808Y-112205583D01*
X128208808Y-112205583D02*
X128208458Y-112207297D01*
X128208458Y-112207297D02*
X128203870Y-112217806D01*
X128203870Y-112217806D02*
X128187948Y-112217924D01*
X128187948Y-112217924D02*
X128157456Y-112206254D01*
X128157456Y-112206254D02*
X128109158Y-112181396D01*
X128109158Y-112181396D02*
X128039817Y-112141952D01*
X128039817Y-112141952D02*
X127991629Y-112113587D01*
X127991629Y-112113587D02*
X127919773Y-112069247D01*
X127919773Y-112069247D02*
X127863932Y-112031279D01*
X127863932Y-112031279D02*
X127827857Y-112002416D01*
X127827857Y-112002416D02*
X127815303Y-111985388D01*
X127815303Y-111985388D02*
X127815311Y-111985264D01*
X127815311Y-111985264D02*
X127823096Y-111969037D01*
X127823096Y-111969037D02*
X127845082Y-111928400D01*
X127845082Y-111928400D02*
X127879993Y-111865567D01*
X127879993Y-111865567D02*
X127926553Y-111782752D01*
X127926553Y-111782752D02*
X127983485Y-111682172D01*
X127983485Y-111682172D02*
X128049513Y-111566040D01*
X128049513Y-111566040D02*
X128123362Y-111436571D01*
X128123362Y-111436571D02*
X128203754Y-111295980D01*
X128203754Y-111295980D02*
X128289414Y-111146482D01*
X128289414Y-111146482D02*
X128379066Y-110990292D01*
X128379066Y-110990292D02*
X128471433Y-110829624D01*
X128471433Y-110829624D02*
X128565239Y-110666693D01*
X128565239Y-110666693D02*
X128659208Y-110503713D01*
X128659208Y-110503713D02*
X128752064Y-110342900D01*
X128752064Y-110342900D02*
X128842530Y-110186468D01*
X128842530Y-110186468D02*
X128929331Y-110036633D01*
X128929331Y-110036633D02*
X129011190Y-109895608D01*
X129011190Y-109895608D02*
X129086831Y-109765609D01*
X129086831Y-109765609D02*
X129154977Y-109648849D01*
X129154977Y-109648849D02*
X129214353Y-109547545D01*
X129214353Y-109547545D02*
X129263683Y-109463911D01*
X129263683Y-109463911D02*
X129301690Y-109400162D01*
X129301690Y-109400162D02*
X129327097Y-109358511D01*
X129327097Y-109358511D02*
X129338630Y-109341175D01*
X129338630Y-109341175D02*
X129339113Y-109340805D01*
X129339113Y-109340805D02*
X129348233Y-109353835D01*
X129348233Y-109353835D02*
X129348233Y-109353835D01*
G36*
X129348233Y-109353835D02*
G01*
X129371255Y-109391245D01*
X129406724Y-109450514D01*
X129453186Y-109529118D01*
X129509186Y-109624538D01*
X129573271Y-109734250D01*
X129643986Y-109855734D01*
X129719877Y-109986468D01*
X129799489Y-110123930D01*
X129881368Y-110265598D01*
X129964060Y-110408951D01*
X130046111Y-110551467D01*
X130126066Y-110690624D01*
X130202471Y-110823901D01*
X130273872Y-110948776D01*
X130338814Y-111062727D01*
X130395843Y-111163233D01*
X130443505Y-111247772D01*
X130480345Y-111313822D01*
X130504910Y-111358862D01*
X130515744Y-111380370D01*
X130516141Y-111381714D01*
X130502691Y-111399965D01*
X130465304Y-111427882D01*
X130408425Y-111462725D01*
X130336502Y-111501754D01*
X130261205Y-111538843D01*
X130158750Y-111583817D01*
X130051007Y-111624226D01*
X129934263Y-111660969D01*
X129804808Y-111694942D01*
X129658930Y-111727044D01*
X129492916Y-111758173D01*
X129303056Y-111789227D01*
X129106659Y-111818145D01*
X128936024Y-111843800D01*
X128792735Y-111869198D01*
X128673198Y-111895602D01*
X128573820Y-111924273D01*
X128491008Y-111956473D01*
X128421168Y-111993465D01*
X128360708Y-112036512D01*
X128306035Y-112086875D01*
X128288404Y-112105583D01*
X128250190Y-112149139D01*
X128221922Y-112184682D01*
X128208808Y-112205583D01*
X128208458Y-112207297D01*
X128203870Y-112217806D01*
X128187948Y-112217924D01*
X128157456Y-112206254D01*
X128109158Y-112181396D01*
X128039817Y-112141952D01*
X127991629Y-112113587D01*
X127919773Y-112069247D01*
X127863932Y-112031279D01*
X127827857Y-112002416D01*
X127815303Y-111985388D01*
X127815311Y-111985264D01*
X127823096Y-111969037D01*
X127845082Y-111928400D01*
X127879993Y-111865567D01*
X127926553Y-111782752D01*
X127983485Y-111682172D01*
X128049513Y-111566040D01*
X128123362Y-111436571D01*
X128203754Y-111295980D01*
X128289414Y-111146482D01*
X128379066Y-110990292D01*
X128471433Y-110829624D01*
X128565239Y-110666693D01*
X128659208Y-110503713D01*
X128752064Y-110342900D01*
X128842530Y-110186468D01*
X128929331Y-110036633D01*
X129011190Y-109895608D01*
X129086831Y-109765609D01*
X129154977Y-109648849D01*
X129214353Y-109547545D01*
X129263683Y-109463911D01*
X129301690Y-109400162D01*
X129327097Y-109358511D01*
X129338630Y-109341175D01*
X129339113Y-109340805D01*
X129348233Y-109353835D01*
G37*
X129348233Y-109353835D02*
X129371255Y-109391245D01*
X129406724Y-109450514D01*
X129453186Y-109529118D01*
X129509186Y-109624538D01*
X129573271Y-109734250D01*
X129643986Y-109855734D01*
X129719877Y-109986468D01*
X129799489Y-110123930D01*
X129881368Y-110265598D01*
X129964060Y-110408951D01*
X130046111Y-110551467D01*
X130126066Y-110690624D01*
X130202471Y-110823901D01*
X130273872Y-110948776D01*
X130338814Y-111062727D01*
X130395843Y-111163233D01*
X130443505Y-111247772D01*
X130480345Y-111313822D01*
X130504910Y-111358862D01*
X130515744Y-111380370D01*
X130516141Y-111381714D01*
X130502691Y-111399965D01*
X130465304Y-111427882D01*
X130408425Y-111462725D01*
X130336502Y-111501754D01*
X130261205Y-111538843D01*
X130158750Y-111583817D01*
X130051007Y-111624226D01*
X129934263Y-111660969D01*
X129804808Y-111694942D01*
X129658930Y-111727044D01*
X129492916Y-111758173D01*
X129303056Y-111789227D01*
X129106659Y-111818145D01*
X128936024Y-111843800D01*
X128792735Y-111869198D01*
X128673198Y-111895602D01*
X128573820Y-111924273D01*
X128491008Y-111956473D01*
X128421168Y-111993465D01*
X128360708Y-112036512D01*
X128306035Y-112086875D01*
X128288404Y-112105583D01*
X128250190Y-112149139D01*
X128221922Y-112184682D01*
X128208808Y-112205583D01*
X128208458Y-112207297D01*
X128203870Y-112217806D01*
X128187948Y-112217924D01*
X128157456Y-112206254D01*
X128109158Y-112181396D01*
X128039817Y-112141952D01*
X127991629Y-112113587D01*
X127919773Y-112069247D01*
X127863932Y-112031279D01*
X127827857Y-112002416D01*
X127815303Y-111985388D01*
X127815311Y-111985264D01*
X127823096Y-111969037D01*
X127845082Y-111928400D01*
X127879993Y-111865567D01*
X127926553Y-111782752D01*
X127983485Y-111682172D01*
X128049513Y-111566040D01*
X128123362Y-111436571D01*
X128203754Y-111295980D01*
X128289414Y-111146482D01*
X128379066Y-110990292D01*
X128471433Y-110829624D01*
X128565239Y-110666693D01*
X128659208Y-110503713D01*
X128752064Y-110342900D01*
X128842530Y-110186468D01*
X128929331Y-110036633D01*
X129011190Y-109895608D01*
X129086831Y-109765609D01*
X129154977Y-109648849D01*
X129214353Y-109547545D01*
X129263683Y-109463911D01*
X129301690Y-109400162D01*
X129327097Y-109358511D01*
X129338630Y-109341175D01*
X129339113Y-109340805D01*
X129348233Y-109353835D01*
X131171718Y-112502619D02*
X131183098Y-112521693D01*
X131183098Y-112521693D02*
X131208678Y-112565421D01*
X131208678Y-112565421D02*
X131247192Y-112631619D01*
X131247192Y-112631619D02*
X131297376Y-112718102D01*
X131297376Y-112718102D02*
X131357965Y-112822685D01*
X131357965Y-112822685D02*
X131427693Y-112943183D01*
X131427693Y-112943183D02*
X131505297Y-113077412D01*
X131505297Y-113077412D02*
X131589510Y-113223187D01*
X131589510Y-113223187D02*
X131679069Y-113378323D01*
X131679069Y-113378323D02*
X131771188Y-113538000D01*
X131771188Y-113538000D02*
X131865266Y-113701117D01*
X131865266Y-113701117D02*
X131955592Y-113857709D01*
X131955592Y-113857709D02*
X132040855Y-114005506D01*
X132040855Y-114005506D02*
X132119747Y-114142240D01*
X132119747Y-114142240D02*
X132190959Y-114265642D01*
X132190959Y-114265642D02*
X132253181Y-114373444D01*
X132253181Y-114373444D02*
X132305103Y-114463377D01*
X132305103Y-114463377D02*
X132345418Y-114533173D01*
X132345418Y-114533173D02*
X132372814Y-114580564D01*
X132372814Y-114580564D02*
X132385697Y-114602786D01*
X132385697Y-114602786D02*
X132406697Y-114640330D01*
X132406697Y-114640330D02*
X132418115Y-114663831D01*
X132418115Y-114663831D02*
X132418741Y-114667920D01*
X132418741Y-114667920D02*
X132404826Y-114660242D01*
X132404826Y-114660242D02*
X132366131Y-114638203D01*
X132366131Y-114638203D02*
X132304677Y-114602971D01*
X132304677Y-114602971D02*
X132222488Y-114555711D01*
X132222488Y-114555711D02*
X132121586Y-114497589D01*
X132121586Y-114497589D02*
X132003995Y-114429771D01*
X132003995Y-114429771D02*
X131871736Y-114353424D01*
X131871736Y-114353424D02*
X131726832Y-114269714D01*
X131726832Y-114269714D02*
X131571307Y-114179806D01*
X131571307Y-114179806D02*
X131407182Y-114084867D01*
X131407182Y-114084867D02*
X131344739Y-114048732D01*
X131344739Y-114048732D02*
X131177677Y-113952083D01*
X131177677Y-113952083D02*
X131018264Y-113859938D01*
X131018264Y-113859938D02*
X130868545Y-113773475D01*
X130868545Y-113773475D02*
X130730566Y-113693871D01*
X130730566Y-113693871D02*
X130606375Y-113622305D01*
X130606375Y-113622305D02*
X130498017Y-113559955D01*
X130498017Y-113559955D02*
X130407538Y-113507998D01*
X130407538Y-113507998D02*
X130336986Y-113467613D01*
X130336986Y-113467613D02*
X130288405Y-113439978D01*
X130288405Y-113439978D02*
X130263844Y-113426272D01*
X130263844Y-113426272D02*
X130261275Y-113424974D01*
X130261275Y-113424974D02*
X130268759Y-113413220D01*
X130268759Y-113413220D02*
X130294804Y-113381795D01*
X130294804Y-113381795D02*
X130336749Y-113333594D01*
X130336749Y-113333594D02*
X130391936Y-113271510D01*
X130391936Y-113271510D02*
X130457707Y-113198439D01*
X130457707Y-113198439D02*
X130531402Y-113117276D01*
X130531402Y-113117276D02*
X130610363Y-113030916D01*
X130610363Y-113030916D02*
X130691930Y-112942253D01*
X130691930Y-112942253D02*
X130773444Y-112854182D01*
X130773444Y-112854182D02*
X130852247Y-112769599D01*
X130852247Y-112769599D02*
X130925680Y-112691397D01*
X130925680Y-112691397D02*
X130991083Y-112622472D01*
X130991083Y-112622472D02*
X131045798Y-112565719D01*
X131045798Y-112565719D02*
X131087167Y-112524032D01*
X131087167Y-112524032D02*
X131101354Y-112510363D01*
X131101354Y-112510363D02*
X131148370Y-112466201D01*
X131148370Y-112466201D02*
X131171718Y-112502619D01*
X131171718Y-112502619D02*
X131171718Y-112502619D01*
G36*
X131171718Y-112502619D02*
G01*
X131183098Y-112521693D01*
X131208678Y-112565421D01*
X131247192Y-112631619D01*
X131297376Y-112718102D01*
X131357965Y-112822685D01*
X131427693Y-112943183D01*
X131505297Y-113077412D01*
X131589510Y-113223187D01*
X131679069Y-113378323D01*
X131771188Y-113538000D01*
X131865266Y-113701117D01*
X131955592Y-113857709D01*
X132040855Y-114005506D01*
X132119747Y-114142240D01*
X132190959Y-114265642D01*
X132253181Y-114373444D01*
X132305103Y-114463377D01*
X132345418Y-114533173D01*
X132372814Y-114580564D01*
X132385697Y-114602786D01*
X132406697Y-114640330D01*
X132418115Y-114663831D01*
X132418741Y-114667920D01*
X132404826Y-114660242D01*
X132366131Y-114638203D01*
X132304677Y-114602971D01*
X132222488Y-114555711D01*
X132121586Y-114497589D01*
X132003995Y-114429771D01*
X131871736Y-114353424D01*
X131726832Y-114269714D01*
X131571307Y-114179806D01*
X131407182Y-114084867D01*
X131344739Y-114048732D01*
X131177677Y-113952083D01*
X131018264Y-113859938D01*
X130868545Y-113773475D01*
X130730566Y-113693871D01*
X130606375Y-113622305D01*
X130498017Y-113559955D01*
X130407538Y-113507998D01*
X130336986Y-113467613D01*
X130288405Y-113439978D01*
X130263844Y-113426272D01*
X130261275Y-113424974D01*
X130268759Y-113413220D01*
X130294804Y-113381795D01*
X130336749Y-113333594D01*
X130391936Y-113271510D01*
X130457707Y-113198439D01*
X130531402Y-113117276D01*
X130610363Y-113030916D01*
X130691930Y-112942253D01*
X130773444Y-112854182D01*
X130852247Y-112769599D01*
X130925680Y-112691397D01*
X130991083Y-112622472D01*
X131045798Y-112565719D01*
X131087167Y-112524032D01*
X131101354Y-112510363D01*
X131148370Y-112466201D01*
X131171718Y-112502619D01*
G37*
X131171718Y-112502619D02*
X131183098Y-112521693D01*
X131208678Y-112565421D01*
X131247192Y-112631619D01*
X131297376Y-112718102D01*
X131357965Y-112822685D01*
X131427693Y-112943183D01*
X131505297Y-113077412D01*
X131589510Y-113223187D01*
X131679069Y-113378323D01*
X131771188Y-113538000D01*
X131865266Y-113701117D01*
X131955592Y-113857709D01*
X132040855Y-114005506D01*
X132119747Y-114142240D01*
X132190959Y-114265642D01*
X132253181Y-114373444D01*
X132305103Y-114463377D01*
X132345418Y-114533173D01*
X132372814Y-114580564D01*
X132385697Y-114602786D01*
X132406697Y-114640330D01*
X132418115Y-114663831D01*
X132418741Y-114667920D01*
X132404826Y-114660242D01*
X132366131Y-114638203D01*
X132304677Y-114602971D01*
X132222488Y-114555711D01*
X132121586Y-114497589D01*
X132003995Y-114429771D01*
X131871736Y-114353424D01*
X131726832Y-114269714D01*
X131571307Y-114179806D01*
X131407182Y-114084867D01*
X131344739Y-114048732D01*
X131177677Y-113952083D01*
X131018264Y-113859938D01*
X130868545Y-113773475D01*
X130730566Y-113693871D01*
X130606375Y-113622305D01*
X130498017Y-113559955D01*
X130407538Y-113507998D01*
X130336986Y-113467613D01*
X130288405Y-113439978D01*
X130263844Y-113426272D01*
X130261275Y-113424974D01*
X130268759Y-113413220D01*
X130294804Y-113381795D01*
X130336749Y-113333594D01*
X130391936Y-113271510D01*
X130457707Y-113198439D01*
X130531402Y-113117276D01*
X130610363Y-113030916D01*
X130691930Y-112942253D01*
X130773444Y-112854182D01*
X130852247Y-112769599D01*
X130925680Y-112691397D01*
X130991083Y-112622472D01*
X131045798Y-112565719D01*
X131087167Y-112524032D01*
X131101354Y-112510363D01*
X131148370Y-112466201D01*
X131171718Y-112502619D01*
%TD*%
M02*
