M48
; DRILL file {KiCad 5.99.0-unknown-1f4a56005e~130~ubuntu20.04.1} date Sat Jun 26 22:45:06 2021
; FORMAT={-:-/ absolute / inch / decimal}
; #@! TF.CreationDate,2021-06-26T22:45:06+02:00
; #@! TF.GenerationSoftware,Kicad,Pcbnew,5.99.0-unknown-1f4a56005e~130~ubuntu20.04.1
; #@! TF.FileFunction,Plated,1,2,PTH
FMAT,2
INCH
; #@! TA.AperFunction,Plated,PTH,ViaDrill
T1C0.0157
; #@! TA.AperFunction,Plated,PTH,ComponentDrill
T2C0.0374
; #@! TA.AperFunction,Plated,PTH,ComponentDrill
T3C0.0394
; #@! TA.AperFunction,Plated,PTH,ComponentDrill
T4C0.0433
%
G90
G05
T1
X5.5118Y-3.5827
X5.5118Y-3.6811
X5.5118Y-3.878
X5.5118Y-3.9764
X5.5906Y-3.6614
X5.5906Y-3.7402
X5.5906Y-3.8189
X5.5906Y-3.8976
X5.6299Y-3.7008
X5.6299Y-3.7795
X5.6299Y-3.8583
X5.6693Y-3.6614
X5.6693Y-3.7402
X5.6693Y-3.8189
X5.6693Y-3.8976
X5.7087Y-3.563
X5.7087Y-3.7008
X5.7087Y-3.7795
X5.7087Y-3.8583
X5.7087Y-3.9961
X5.748Y-3.6614
X5.748Y-3.7402
X5.748Y-3.8189
X5.748Y-3.8976
X5.7874Y-3.7008
X5.7874Y-3.7795
X5.7874Y-3.8583
X5.8268Y-3.6614
X5.8268Y-3.7402
X5.8268Y-3.8189
X5.8268Y-3.8976
X5.9055Y-3.5827
X5.9055Y-3.6811
X5.9055Y-3.878
X5.9055Y-3.9764
T2
X6.81Y-4.1524
X6.81Y-4.2508
X6.81Y-4.3492
X6.81Y-4.4476
T3
X6.811Y-3.2283
X6.811Y-3.3268
T4
X6.626Y-3.5661
X6.626Y-3.6331
X6.626Y-3.7
X6.626Y-3.7669
X6.626Y-3.8339
T0
M30
